<?xml version="1.0" encoding="UTF-8"?>
<svg width="192px" height="48px" viewBox="0 0 192 48" version="1.1" xmlns="http://www.w3.org/2000/svg" xmlns:xlink="http://www.w3.org/1999/xlink">
    <title>github</title>
    <g id="github" stroke="none" stroke-width="1" fill="none" fill-rule="evenodd">
        <g id="Fill-5" fill="#161514">
            <path d="M23.9555702,-2.84217094e-15 C10.7270083,-2.84217094e-15 -5.63736385e-15,10.8144 -5.63736385e-15,24.1552 C-5.63736385e-15,34.8276 6.864,43.882 16.382281,47.076 C17.5795041,47.2996 18.0190413,46.552 18.0190413,45.914 C18.0190413,45.338 17.9968264,43.4352 17.9865124,41.4168 C11.3220496,42.878 9.9157686,38.5668 9.9157686,38.5668 C8.82604959,35.7748 7.25593388,35.0324 7.25593388,35.0324 C5.08244628,33.5332 7.4197686,33.564 7.4197686,33.564 C9.82532231,33.7344 11.0919669,36.0532 11.0919669,36.0532 C13.228562,39.746 16.6960661,38.6784 18.0630744,38.0612 C18.2780826,36.5 18.8989091,35.4344 19.584,34.8312 C14.2631405,34.2204 8.66975207,32.1492 8.66975207,22.8936 C8.66975207,20.2564 9.60555372,18.1016 11.1379835,16.41 C10.8892562,15.8016 10.0692893,13.3448 11.3700496,10.0176 C11.3700496,10.0176 13.381686,9.3684 17.9595372,12.4936 C19.8704132,11.9584 21.9197355,11.69 23.9555702,11.6808 C25.991405,11.69 28.042314,11.9584 29.9567603,12.4936 C34.5290579,9.3684 36.5379174,10.0176 36.5379174,10.0176 C37.8418512,13.3448 37.0214876,15.8016 36.7727603,16.41 C38.3087603,18.1016 39.2382149,20.2564 39.2382149,22.8936 C39.2382149,32.1712 33.6341157,34.214 28.2997686,34.812 C29.1590083,35.5616 29.9246281,37.0316 29.9246281,39.2852 C29.9246281,42.5172 29.8968595,45.1184 29.8968595,45.914 C29.8968595,46.5568 30.3280661,47.31 31.5423471,47.0728 C41.0554711,43.8752 47.9107438,34.824 47.9107438,24.1552 C47.9107438,10.8144 37.1853223,-2.84217094e-15 23.9555702,-2.84217094e-15"></path>
        </g>
        <g id="GitHub_Logo" transform="translate(74.000000, 8.000000)" fill="#11110F">
            <g id="Group-12">
                <path d="M22.948898,13.7103673 L13.0657959,13.7103673 C12.8107755,13.7103673 12.6040816,13.9170612 12.6040816,14.1724082 L12.6040816,19.0044082 C12.6040816,19.259102 12.8107755,19.4667755 13.0657959,19.4667755 L16.9211429,19.4667755 L16.9211429,25.4700408 C16.9211429,25.4700408 16.0555102,25.7652245 13.6620408,25.7652245 C10.8385306,25.7652245 6.89404082,24.7337143 6.89404082,16.0597551 C6.89404082,7.38416327 11.0014694,6.24261224 14.8574694,6.24261224 C18.1955918,6.24261224 19.6333061,6.83004082 20.5485714,7.11346939 C20.8362449,7.20130612 21.1020408,6.91526531 21.1020408,6.65991837 L22.2044082,1.9915102 C22.2044082,1.872 22.1639184,1.728 22.0280816,1.63069388 C21.6564898,1.36555102 19.3893878,0.0969795918 13.6620408,0.0969795918 C7.0644898,0.0969795918 0.296489796,2.90383673 0.296489796,16.3980408 C0.296489796,29.8922449 8.04506122,31.9030204 14.5746939,31.9030204 C19.9810612,31.9030204 23.2607347,29.5928163 23.2607347,29.5928163 C23.3959184,29.5180408 23.4106122,29.3293061 23.4106122,29.2427755 L23.4106122,14.1724082 C23.4106122,13.9170612 23.2039184,13.7103673 22.948898,13.7103673" id="Fill-11"></path>
            </g>
            <path d="M73.882449,1.71363265 C73.882449,1.45665306 73.6786939,1.24930612 73.4233469,1.24930612 L67.8586122,1.24930612 C67.6045714,1.24930612 67.3978776,1.45665306 67.3978776,1.71363265 C67.3978776,1.71493878 67.3995102,12.4679184 67.3995102,12.4679184 L58.7252245,12.4679184 L58.7252245,1.71363265 C58.7252245,1.45665306 58.5208163,1.24930612 58.2661224,1.24930612 L52.7017143,1.24930612 C52.4486531,1.24930612 52.2419592,1.45665306 52.2419592,1.71363265 L52.2419592,30.8329796 C52.2419592,31.0899592 52.4486531,31.2989388 52.7017143,31.2989388 L58.2661224,31.2989388 C58.5208163,31.2989388 58.7252245,31.0899592 58.7252245,30.8329796 L58.7252245,18.3777959 L67.3995102,18.3777959 C67.3995102,18.3777959 67.3841633,30.832 67.3841633,30.8329796 C67.3841633,31.0899592 67.5905306,31.2989388 67.8452245,31.2989388 L73.4230204,31.2989388 C73.6780408,31.2989388 73.8817959,31.0899592 73.882449,30.8329796 L73.882449,1.71363265" id="Fill-13"></path>
            <path d="M33.4497959,5.53502041 C33.4497959,3.53110204 31.8435918,1.91183673 29.861551,1.91183673 C27.8814694,1.91183673 26.2736327,3.53110204 26.2736327,5.53502041 C26.2736327,7.53665306 27.8814694,9.16016327 29.861551,9.16016327 C31.8435918,9.16016327 33.4497959,7.53665306 33.4497959,5.53502041" id="Fill-14"></path>
            <path d="M33.0520816,24.6906122 C33.0520816,23.9441633 33.0520816,11.2489796 33.0520816,11.2489796 C33.0520816,10.9936327 32.8460408,10.7849796 32.5916735,10.7849796 L27.0442449,10.7849796 C26.7898776,10.7849796 26.5622857,11.0475102 26.5622857,11.3028571 C26.5622857,11.3028571 26.5622857,27.4772245 26.5622857,30.5603265 C26.5622857,31.1262041 26.9149388,31.2946939 27.371102,31.2946939 C27.371102,31.2946939 29.739102,31.2946939 32.3689796,31.2946939 C32.917551,31.2946939 33.0520816,31.0253061 33.0520816,30.5511837 C33.0520816,29.5190204 33.0520816,25.4752653 33.0520816,24.6906122" id="Fill-15"></path>
            <path d="M95.0308571,10.8290612 L89.508898,10.8290612 C89.2558367,10.8290612 89.0494694,11.0377143 89.0494694,11.2943673 L89.0494694,25.5725714 C89.0494694,25.5725714 87.6463673,26.5988571 85.6551837,26.5988571 C83.6643265,26.5988571 83.136,25.6953469 83.136,23.7459592 C83.136,21.7939592 83.136,11.2943673 83.136,11.2943673 C83.136,11.0377143 82.9302857,10.8290612 82.6765714,10.8290612 L77.072,10.8290612 C76.8192653,10.8290612 76.6119184,11.0377143 76.6119184,11.2943673 C76.6119184,11.2943673 76.6119184,18.8979592 76.6119184,24.6886531 C76.6119184,30.4796735 79.8393469,31.8964898 84.2791837,31.8964898 C87.9219592,31.8964898 90.8587755,29.8840816 90.8587755,29.8840816 C90.8587755,29.8840816 90.9985306,30.9446531 91.0618776,31.0703673 C91.124898,31.1957551 91.2897959,31.322449 91.4680816,31.322449 L95.0334694,31.306449 C95.2862041,31.306449 95.493551,31.0974694 95.493551,30.8417959 L95.4915918,11.2943673 C95.4915918,11.0377143 95.285551,10.8290612 95.0308571,10.8290612" id="Fill-16"></path>
            <path d="M107.945796,26.5812245 C106.030367,26.523102 104.731102,25.6538776 104.731102,25.6538776 L104.731102,16.4323265 C104.731102,16.4323265 106.012735,15.6466939 107.585306,15.5062857 C109.573878,15.3283265 111.489959,15.9288163 111.489959,20.6726531 C111.489959,25.6747755 110.625306,26.6622041 107.945796,26.5812245 Z M110.123755,10.1746939 C106.987429,10.1746939 104.854204,11.5742041 104.854204,11.5742041 L104.854204,1.71363265 C104.854204,1.45665306 104.64849,1.24930612 104.395102,1.24930612 L98.8143673,1.24930612 C98.5606531,1.24930612 98.3546122,1.45665306 98.3546122,1.71363265 L98.3546122,30.8329796 C98.3546122,31.0899592 98.5606531,31.2989388 98.8150204,31.2989388 C98.8156735,31.2989388 102.685714,31.2989388 102.68702,31.2989388 C102.861388,31.2989388 102.993306,31.2091429 103.090939,31.0517551 C103.187265,30.8953469 103.326041,29.7090612 103.326041,29.7090612 C103.326041,29.7090612 105.607837,31.8713469 109.92751,31.8713469 C114.999184,31.8713469 117.907592,29.2989388 117.907592,20.3235918 C117.907592,11.3475918 113.262367,10.1746939 110.123755,10.1746939 L110.123755,10.1746939 Z" id="Fill-17"></path>
            <path d="M49.045551,10.7823673 L44.8711837,10.7823673 C44.8711837,10.7823673 44.8649796,5.26889796 44.8649796,5.26791837 C44.8649796,5.05893878 44.7572245,4.95477551 44.5159184,4.95477551 L38.8277551,4.95477551 C38.6063673,4.95477551 38.4878367,5.05208163 38.4878367,5.26465306 L38.4878367,10.9632653 C38.4878367,10.9632653 35.6372245,11.6515918 35.4442449,11.707102 C35.2525714,11.7626122 35.1111837,11.9395918 35.1111837,12.1508571 L35.1111837,15.7319184 C35.1111837,15.989551 35.316898,16.1972245 35.5712653,16.1972245 L38.4878367,16.1972245 C38.4878367,16.1972245 38.4878367,19.9428571 38.4878367,24.8124082 C38.4878367,31.2114286 42.9763265,31.84 46.004898,31.84 C47.3890612,31.84 49.0445714,31.3955918 49.3178776,31.2946939 C49.483102,31.2339592 49.579102,31.0625306 49.579102,30.8770612 L49.584,26.9377959 C49.584,26.6808163 49.3668571,26.4728163 49.1226122,26.4728163 C48.8790204,26.4728163 48.2569796,26.5717551 47.6163265,26.5717551 C45.5657143,26.5717551 44.8711837,25.6182857 44.8711837,24.3843265 C44.8711837,23.1513469 44.8708571,16.1972245 44.8708571,16.1972245 L49.045551,16.1972245 C49.2999184,16.1972245 49.5059592,15.989551 49.5059592,15.7319184 L49.5059592,11.2463673 C49.5059592,10.9893878 49.2999184,10.7823673 49.045551,10.7823673" id="Fill-18"></path>
        </g>
    </g>
</svg>