<?xml version="1.0" encoding="UTF-8"?>
<svg width="232px" height="48px" viewBox="0 0 232 48" version="1.1" xmlns="http://www.w3.org/2000/svg" xmlns:xlink="http://www.w3.org/1999/xlink">
    <title>patreon</title>
    <defs>
        <polygon id="path-1" points="0.00819352321 0.047639485 64.6679672 0.047639485 64.6679672 20.8934842 0.00819352321 20.8934842"></polygon>
    </defs>
    <g id="patreon" stroke="none" stroke-width="1" fill="none" fill-rule="evenodd">
        <g id="Digital-Patreon-Logo_FieryCoral" fill="#FF424D">
            <path d="M32.04075,0.0184166667 C22.11775,0.0184166667 14.0445833,8.09891667 14.0445833,18.0316667 C14.0445833,27.9344167 22.11775,35.991 32.04075,35.991 C41.9330833,35.991 49.9809167,27.9344167 49.9809167,18.0316667 C49.9809167,8.09891667 41.9330833,0.0184166667 32.04075,0.0184166667" id="Fill-1"></path>
            <polygon id="Fill-3" points="0 47.995 8.78675 47.995 8.78675 0.01825 0 0.01825"></polygon>
        </g>
        <g id="Digital-Patreon-Wordmark_Black" transform="translate(82.000000, 13.000000)">
            <path d="M10.9044089,7.72356613 C10.9044089,5.88236442 9.65788139,4.29615685 7.73199376,4.29615685 L4.58825595,4.29615685 L4.58825595,11.1499805 L7.73199376,11.1499805 C9.65788139,11.1499805 10.9044089,9.56476785 10.9044089,7.72356613 Z M0,0.557686305 L8.29816621,0.557686305 C12.6884901,0.557686305 15.5211666,3.8718494 15.5211666,7.72356613 C15.5211666,11.5752829 12.6884901,14.8883925 8.29816621,14.8883925 L4.58825595,14.8883925 L4.58825595,20.3834959 L0,20.3834959 L0,0.557686305 L0,0.557686305 Z" id="Fill-1" fill="#141518"></path>
            <path d="M28.8043309,6.22204448 L26.3684549,14.3793991 L31.1830862,14.3793991 L28.8043309,6.22204448 Z M33.0814085,20.3834959 L32.317421,17.9761217 L25.2647288,17.9761217 L24.4996879,20.3834959 L19.5993757,20.3834959 L26.6805696,0.557686305 L30.9005267,0.557686305 L38.0664651,20.3834959 L33.0814085,20.3834959 L33.0814085,20.3834959 Z" id="Fill-2" fill="#141518"></path>
            <polyline id="Fill-3" fill="#141518" points="45.7698986 4.52264924 41.2959423 4.52264924 41.2959423 0.557686305 54.861666 0.557686305 54.861666 4.52264924 50.358096 4.52264924 50.358096 20.3834959 45.7698986 20.3834959 45.7698986 4.52264924"></polyline>
            <path d="M72.9036286,7.72356613 C72.9036286,5.88236442 71.6570425,4.29615685 69.7309793,4.29615685 L66.5870074,4.29615685 L66.5870074,11.1499805 L69.7309793,11.1499805 C71.6570425,11.1499805 72.9036286,9.56476785 72.9036286,7.72356613 Z M61.9992197,0.557686305 L70.3267655,0.557686305 C74.7161529,0.557686305 77.548771,3.8718494 77.548771,7.72356613 C77.548771,10.4991221 76.0756925,12.9625634 73.6111978,14.124405 L77.5774483,20.3834959 L72.2528287,20.3834959 L68.739563,14.8883925 L66.5870074,14.8883925 L66.5870074,20.3834959 L61.9992197,20.3834959 L61.9992197,0.557686305 L61.9992197,0.557686305 Z" id="Fill-4" fill="#141518"></path>
            <g id="Group-9" transform="translate(85.329692, 0.000000)">
                <mask id="mask-2" fill="white">
                    <use xlink:href="#path-1"></use>
                </mask>
                <g id="Clip-6"></g>
                <polyline id="Fill-5" fill="#141518" mask="url(#mask-2)" points="4.59656652 4.24008974 4.59656652 8.74260632 12.1018338 8.74260632 12.1018338 12.3403238 4.59656652 12.3403238 4.59656652 16.7010339 12.1018338 16.7010339 12.1018338 20.3834959 0.00819352321 20.3834959 0.00819352321 0.557686305 12.1018338 0.557686305 12.1018338 4.24008974 4.59656652 4.24008974"></polyline>
                <path d="M35.8653921,10.4705618 C35.8653921,7.21351931 33.6554819,4.18296918 30.0591104,4.18296918 C26.4334764,4.18296918 24.2528287,7.21351931 24.2528287,10.4705618 C24.2528287,13.7276044 26.4334764,16.758213 30.0591104,16.758213 C33.6554819,16.758213 35.8653921,13.7276044 35.8653921,10.4705618 Z M19.5503316,10.4705618 C19.5503316,5.03263753 23.4592275,0.047639485 30.0591104,0.047639485 C36.6291455,0.047639485 40.5380414,5.03263753 40.5380414,10.4705618 C40.5380414,15.9084861 36.6291455,20.8934842 30.0591104,20.8934842 C23.4592275,20.8934842 19.5503316,15.9084861 19.5503316,10.4705618 L19.5503316,10.4705618 Z" id="Fill-7" fill="#141518" mask="url(#mask-2)"></path>
                <polyline id="Fill-8" fill="#141518" mask="url(#mask-2)" points="60.1100273 13.4726102 60.1100273 0.557686305 64.669723 0.557686305 64.669723 20.3834959 59.8835349 20.3834959 52.7452204 7.63788529 52.7452204 20.3834959 48.1568474 20.3834959 48.1568474 0.557686305 52.9430355 0.557686305 60.1100273 13.4726102"></polyline>
            </g>
        </g>
    </g>
</svg>