<svg width="279" height="45" viewBox="0 0 279 45" fill="none" xmlns="http://www.w3.org/2000/svg">
<path d="M38.7394 14.4169C38.7323 9.2456 34.7048 5.00735 29.9794 3.4781C24.1114 1.5791 16.3722 1.85435 10.7689 4.4981C3.97767 7.70285 1.84429 14.7229 1.76479 21.7241C1.69954 27.4803 2.27404 42.6412 10.8255 42.7492C17.1795 42.8299 18.1257 34.6425 21.0657 30.6994C23.1574 27.894 25.8507 27.1016 29.166 26.2811C34.8642 24.8707 38.7477 20.3737 38.7394 14.4169Z" fill="#F96854"/>
<path d="M59.925 8.40003C59.925 6.90003 61.035 5.88003 62.775 5.88003H71.1C78.645 5.88003 83.775 10.035 83.775 16.14C83.775 22.14 78.69 26.595 71.1 26.595H69.945C67.035 26.595 65.535 28.095 65.535 30.51V37.35C65.535 39.285 64.425 40.5 62.73 40.5C61.035 40.5 59.925 39.285 59.925 37.35V8.40003ZM65.535 17.07C65.535 20.115 67.08 21.57 70.035 21.57H70.7551C74.91 21.57 77.97 19.875 77.97 16.155C77.97 12.435 74.925 10.74 70.7551 10.74H70.05C67.095 10.74 65.55 12.195 65.55 15.24V17.07H65.535ZM83.79 37.83C83.79 39.42 84.9 40.485 86.595 40.485C87.705 40.485 88.725 39.765 89.31 38.265L90.33 35.55C91.155 33.375 92.61 32.355 94.2 32.355H103.395C104.985 32.355 106.44 33.375 107.265 35.55L108.285 38.265C108.87 39.765 109.875 40.485 111 40.485C112.695 40.485 113.805 39.42 113.805 37.83C113.805 37.395 113.715 36.855 113.52 36.33L102.54 7.77004C101.865 6.03004 100.32 5.16003 98.82 5.16003C97.32 5.16003 95.775 6.03004 95.1 7.77004L84.12 36.33C83.88 36.87 83.79 37.395 83.79 37.83ZM94.485 24.855C94.485 24.33 94.635 23.835 94.875 23.115L96.96 17.355C97.35 16.245 98.025 15.705 98.805 15.705C99.585 15.705 100.26 16.23 100.65 17.355L102.735 23.115C102.975 23.835 103.125 24.33 103.125 24.855C103.125 26.31 102.3 27.33 100.125 27.33H97.515C95.31 27.33 94.485 26.31 94.485 24.855ZM111.96 8.50503C111.96 6.96003 113.07 5.89504 114.87 5.89504H137.13C138.915 5.89504 140.04 6.96003 140.04 8.50503C140.04 10.05 138.93 11.115 137.13 11.115H133.41C130.455 11.115 128.865 12.615 128.865 16.05V37.305C128.865 39.285 127.755 40.5 126.015 40.5C124.275 40.5 123.165 39.285 123.165 37.305V16.05C123.165 12.615 121.575 11.115 118.62 11.115H114.9C113.07 11.115 111.96 10.05 111.96 8.50503ZM145.26 37.35C145.26 39.285 146.37 40.5 148.065 40.5C149.76 40.5 150.87 39.285 150.87 37.35V29.655C150.87 27.48 152.13 26.55 153.675 26.55H154.065C155.085 26.55 156.105 27.18 156.72 28.095L164.07 38.895C164.745 39.915 165.615 40.485 166.725 40.485C168.18 40.485 169.335 39.27 169.335 37.83C169.335 37.245 169.14 36.615 168.705 35.985L163.815 29.115C163.23 28.29 162.99 27.615 162.99 27.03C162.99 25.815 164.055 24.945 165.315 24.03C167.595 22.335 170.055 20.115 170.055 15.855C170.055 9.90004 165.405 5.88003 157.755 5.88003H148.02C146.28 5.88003 145.215 6.90003 145.215 8.40003V37.35H145.26ZM150.87 16.635V15.18C150.87 12.03 152.52 10.725 155.025 10.725H157.44C161.595 10.725 164.265 12.27 164.265 15.855C164.265 19.44 161.46 21.075 157.29 21.075H155.01C152.52 21.09 150.87 19.785 150.87 16.635ZM177.255 37.245V8.40003C177.255 6.90003 178.32 5.88003 180.06 5.88003H198.36C200.1 5.88003 201.165 6.90003 201.165 8.40003C201.165 9.90003 200.1 10.92 198.36 10.92H186.795C184.515 10.92 182.88 12.27 182.88 14.835V15.9C182.88 18.465 184.53 19.815 186.795 19.815H195.75C197.49 19.815 198.555 20.835 198.555 22.335C198.555 23.835 197.49 24.855 195.75 24.855H187.14C184.86 24.855 182.88 26.265 182.88 29.115V30.465C182.88 33.315 184.86 34.725 187.14 34.725H198.375C200.115 34.725 201.18 35.745 201.18 37.245C201.18 38.745 200.115 39.765 198.375 39.765H180.075C178.32 39.765 177.255 38.745 177.255 37.245ZM204.495 22.83C204.495 12.375 212.34 5.16003 221.535 5.16003C230.73 5.16003 238.575 12.375 238.575 22.83C238.575 33.285 230.73 40.5 221.535 40.5C212.34 40.5 204.495 33.285 204.495 22.83ZM210.885 22.83C210.885 30.18 215.235 34.875 221.535 34.875C227.82 34.875 232.185 30.18 232.185 22.83C232.185 15.42 227.835 10.785 221.535 10.785C215.25 10.77 210.885 15.42 210.885 22.83ZM245.295 37.35C245.295 39.285 246.405 40.5 248.1 40.5C249.795 40.5 250.905 39.285 250.905 37.35V22.545C250.905 20.76 251.97 19.89 253.08 19.89C253.95 19.89 254.67 20.37 255.21 21.24L264.495 36.78C265.755 38.91 266.91 40.5 269.28 40.5C271.56 40.5 273.195 38.85 273.195 36.195V8.31003C273.195 6.37503 272.085 5.16003 270.39 5.16003C268.695 5.16003 267.585 6.37503 267.585 8.31003V23.115C267.585 24.9 266.52 25.77 265.41 25.77C264.54 25.77 263.805 25.29 263.28 24.42L253.995 8.88003C252.735 6.75003 251.58 5.16003 249.21 5.16003C246.93 5.16003 245.295 6.81004 245.295 9.46504V37.35Z" fill="black" class="bd-svg-black"/>
</svg>
