<?xml version="1.0" standalone="no"?>
<!DOCTYPE svg PUBLIC "-//W3C//DTD SVG 20010904//EN"
 "http://www.w3.org/TR/2001/REC-SVG-20010904/DTD/svg10.dtd">
<svg version="1.0" xmlns="http://www.w3.org/2000/svg"
 width="480.000000pt" height="480.000000pt" viewBox="0 0 480.000000 480.000000"
 preserveAspectRatio="xMidYMid meet">
<metadata>
Created by potrace 1.11, written by Peter Selinger 2001-2013
</metadata>
<g transform="translate(0.000000,480.000000) scale(0.100000,-0.100000)"
fill="#000000" stroke="none">
<path d="M1760 4200 c-330 -330 -600 -603 -601 -607 0 -5 -2 -15 -3 -23 -2 -8
-7 -40 -11 -70 -4 -30 -8 -62 -10 -70 -1 -8 -6 -40 -10 -70 -4 -30 -8 -64 -10
-75 -4 -21 -13 -88 -21 -145 -6 -44 -13 -90 -19 -132 -4 -27 -95 -667 -110
-773 -2 -16 -11 -79 -20 -140 -9 -60 -18 -126 -21 -145 -2 -20 -6 -46 -9 -59
-2 -13 -7 -44 -10 -70 -3 -25 -7 -59 -10 -76 -2 -16 -7 -47 -10 -68 -3 -20 -7
-54 -10 -75 -3 -20 -8 -51 -11 -69 -5 -31 18 -55 746 -783 l750 -750 673 447
c369 247 674 450 677 453 3 3 105 71 228 153 l222 147 -595 595 c-327 327
-595 599 -595 605 0 6 198 208 440 450 242 242 440 444 440 450 0 6 -335 345
-745 755 l-745 745 -600 -600z"/>
</g>
</svg>
