<?xml version="1.0" standalone="no"?>
<!DOCTYPE svg PUBLIC "-//W3C//DTD SVG 20010904//EN"
 "http://www.w3.org/TR/2001/REC-SVG-20010904/DTD/svg10.dtd">
<svg version="1.0" xmlns="http://www.w3.org/2000/svg"
 width="320.000000pt" height="320.000000pt" viewBox="0 0 320.000000 320.000000"
 preserveAspectRatio="xMidYMid meet">
<metadata>
Created by potrace 1.11, written by Peter Selinger 2001-2013
</metadata>
<g transform="translate(0.000000,320.000000) scale(0.100000,-0.100000)"
fill="#000000" stroke="none">
<path d="M1105 2807 c-214 -215 -394 -397 -398 -404 -5 -8 -17 -74 -27 -146
-11 -73 -22 -148 -24 -167 -3 -19 -26 -179 -51 -355 -57 -403 -54 -385 -60
-415 -2 -14 -6 -41 -9 -60 -11 -84 -27 -198 -32 -227 -5 -31 12 -49 496 -533
l500 -500 600 400 600 400 -395 395 c-217 217 -395 399 -395 405 0 6 133 143
295 305 l295 295 -500 500 c-275 275 -501 500 -503 499 -1 0 -177 -177 -392
-392z"/>
</g>
</svg>
