<svg xmlns="http://www.w3.org/2000/svg" width="640" height="640" preserveAspectRatio="xMidYMid meet" version="1.0" viewBox="0 0 480 480"><metadata>Created by potrace 1.11, written by Peter Selinger 2001-2013</metadata><g fill="#000" stroke="none"><path d="M1756 4200 l-598 -598 -58 -408 c-32 -225 -61 -427 -64 -449 -3 -22 -12 -85 -20 -140 -8 -55 -17 -118 -20 -140 -3 -22 -13 -89 -21 -150 -9 -60 -18 -123 -20 -140 -3 -16 -23 -156 -45 -310 -21 -154 -42 -300 -45 -325 l-5 -45 749 -748 c523 -522 754 -746 763 -741 7 4 413 275 902 601 l890 593 -595 594 c-327 327 -594 600 -594 606 0 6 200 211 444 456 l445 444 -740 740 c-406 407 -746 745 -754 750 -12 7 -147 -122 -614 -590z" transform="translate(0.000000,480.000000) scale(0.100000,-0.100000)"/></g></svg>