<svg width="207" height="109" viewBox="0 0 207 109" fill="none" xmlns="http://www.w3.org/2000/svg">
<path class="bd-svg-black" d="M25.942 44.7646L25.6382 46.0366C25.686 46.9218 25.3754 47.464 24.7065 47.6631L24.528 48.2632L23.3346 49.3266L23.0889 49.7761L22.5303 50.5245C22.2986 50.5924 22.0059 50.6982 21.6521 50.8418C21.0804 51.5925 20.3497 52.2088 19.4598 52.6906L18.8133 53.1702C18.3498 53.306 17.6624 53.6303 16.7509 54.1431L16.0858 54.7477L15.3165 54.7615C14.8762 55.0287 14.4722 55.1947 14.1046 55.2596C13.8157 55.3105 13.5044 55.3112 13.1708 55.2617C13.1985 55.4193 13.068 55.5236 12.7791 55.5745C12.5428 55.6162 12.1566 55.576 11.6206 55.4538L11.3054 55.5094L11.4352 55.3241L10.7609 55.646L10.4319 55.6228L10.0588 55.8105L8.79365 55.5461L8.22598 55.3213L7.18561 55.1798L6.91224 54.7812C6.07961 54.8197 5.55752 54.5462 5.34597 53.9607L5.31818 53.8032L5.41086 53.8681C5.10194 53.6518 4.75597 53.2253 4.37296 52.5889C4.15824 52.5996 3.87789 52.3918 3.53193 51.9654C3.20759 51.5081 3.00143 51.03 2.91345 50.531C2.85788 50.2159 2.81082 49.8722 2.77225 49.4999C2.62553 49.2821 2.51281 48.9499 2.43409 48.5035L2.51297 47.7991L2.35321 46.893L2.64056 46.6799L2.63828 46.4366L2.83781 44.5737L3.14848 43.341L3.31776 42.4582C3.30545 42.0813 3.45227 41.6086 3.75821 41.0402L3.88105 40.8154L3.54517 40.0623L4.3354 39.4762C4.53007 39.1981 4.68381 38.995 4.79659 38.8668L4.7944 37.933L5.33667 37.5531L5.4086 36.8093C5.92457 36.6642 6.25826 36.4835 6.40968 36.2672C6.62447 35.7961 6.93888 35.4293 7.35291 35.1667L7.65187 34.7891L8.62745 34.3327L9.15582 33.874L9.96679 34.0966C10.5477 33.8587 10.93 33.7236 11.1138 33.6912L11.5471 33.6148L11.7974 33.6519L12.277 33.608C12.9892 33.8073 13.6588 33.9194 14.286 33.9442L14.8745 34.2872L17.4278 35.1774L17.8008 35.6803L18.2572 35.9653L18.6789 36.7439L19.0194 37.2932L19.3089 38.0138L19.4363 38.9662C19.4455 39.0187 19.4517 39.2072 19.4547 39.5316L19.4756 39.6497C19.6191 40.4639 18.9617 41.189 17.5034 41.8253L16.6252 41.4521L16.0877 40.9376L15.7055 40.152L15.6013 39.5612L15.372 38.9517L15.1983 37.9669L15.2401 37.5128L14.9876 37.2323C14.8687 37.1721 14.6771 37.084 14.413 36.9681L14.2809 36.9102C13.4823 36.8344 13.0513 36.6937 12.988 36.4883L12.2396 36.6202L11.8897 36.4788L11.7691 36.9469L10.9373 36.6062L10.7612 36.7591L10.2746 36.7636L9.85746 37.1621C9.58095 37.1296 9.32452 37.1342 9.08817 37.1759L8.70109 37.9753L7.77176 39.1546L7.05556 40.6212L6.87249 40.7347L6.74955 41.65L6.33241 42.0485L6.39492 42.403L5.8479 43.6773L5.77121 45.3156L5.83838 45.4662L5.59499 46.159L5.94248 46.7476L5.57167 47.1785L5.59946 47.3361L5.46273 47.482L5.69661 48.5781L5.6849 49.4331L6.09034 49.8896L6.2108 50.1121L6.62089 50.3647L6.71814 50.9162L7.25564 51.4307L7.14669 51.7342L7.79543 52.1885L7.86955 52.3785L9.37797 52.6405L9.38025 52.8838L10.4253 52.8214L10.8817 53.1065L11.7322 52.6316L12.2489 53.0279L12.4783 52.9468C12.7471 52.6286 13.0259 52.4441 13.3148 52.3931C13.3936 52.3793 13.5427 52.38 13.762 52.3955L14.2741 52.3052L14.5846 52.4536L14.9114 52.2335C15.174 52.1872 15.3686 52.1393 15.4953 52.0899C15.8028 51.6837 16.2322 51.4319 16.7837 51.3347C16.9568 51.0876 17.3059 50.9177 17.8311 50.8251C17.9347 50.6443 18.283 50.3934 18.8763 50.0721C19.1914 50.0166 19.4293 49.9069 19.59 49.7432L19.8148 49.1755L20.3779 48.9138L20.8808 48.5408L21.2702 47.9847L21.9237 47.5446L23.6572 45.1674L24.7997 44.2755L25.942 44.7646ZM41.0428 34.8314L40.9568 36.1869L39.5341 36.6409L38.8365 37.2919L38.2827 37.1459L37.7868 37.5583L37.2376 37.8988L36.8923 38.244L36.9201 38.4016L36.1623 38.9414L35.7358 39.7477L35.4601 39.7963C35.1186 40.3168 34.8652 40.6458 34.6999 40.7833L34.3082 41.7865L34.1251 41.9001C34.0834 42.124 34.047 42.4554 34.0161 42.8941L33.4993 43.1883L33.3463 43.7027L33.1006 44.1522L33.126 44.757L32.8317 44.9307L32.9359 45.5216L32.8386 45.6606C32.9405 45.778 33.0579 45.9062 33.1907 46.0453L32.6415 46.3858L32.653 46.9118L32.3772 47.651L32.7039 48.1214L32.3168 48.9207C32.4156 49.1741 32.4743 49.3533 32.4928 49.4583C32.4974 49.4846 32.5067 49.5371 32.5206 49.6159C32.5082 49.6993 32.5067 49.7673 32.5159 49.8198L32.6572 50.1605L33.4519 50.7514L33.0996 51.7478L32.6894 52.1856L31.6836 52.9316L30.1219 52.5977L29.9622 51.6917L29.7421 51.365L29.7561 50.7532C29.6295 50.3423 29.5476 50.0318 29.5106 49.8217C29.4967 49.7429 29.4913 49.6356 29.4944 49.4996C29.4713 49.3683 29.4551 49.2764 29.4458 49.2239L29.3369 48.8369C29.1207 48.6855 28.9917 48.4916 28.9501 48.2552C28.913 48.0452 28.9633 47.7926 29.1008 47.4976C29.0776 47.3663 28.9819 46.977 28.8136 46.3297L28.911 46.1907L28.7025 45.6994L28.6979 45.2128L28.5705 44.951L28.5289 44.0241L28.2231 43.6718L28.3043 43.2107L28.0564 42.7264C28.0549 42.5642 28.031 42.3518 27.9847 42.0892C27.9152 41.6953 27.8164 41.4419 27.6882 41.3291L27.8041 41.065L27.5215 40.3837L27.0767 39.9341L27.1625 39.2691L26.9632 39.0606L26.639 38.1429L26.5834 37.8278C26.4243 37.6934 26.3239 37.508 26.2823 37.2716C26.1896 36.7464 26.6887 36.1981 27.7794 35.6267L28.7989 35.65L29.1278 36.3637L29.612 36.8064L29.6814 37.8908C29.8528 38.4021 30.0466 38.9637 30.2628 39.5754L30.4921 40.1849C30.5276 40.2328 30.5793 40.3726 30.6473 40.6043C30.6751 40.7619 30.6395 40.9441 30.5406 41.1511L30.7977 41.9181L30.8717 42.7987L30.7836 43.2204L30.9296 43.3571L31.0778 43.7371C31.203 43.5255 31.2602 43.3123 31.2494 43.0976L31.3028 42.479C31.3538 42.3075 31.4511 42.1685 31.5948 42.0619L31.6482 41.4432L32.1441 41.0309L32.1395 40.5443L32.4895 39.9951L32.7004 39.3487C32.977 38.9208 33.2636 38.6266 33.5602 38.466L33.6182 38.3339L33.8755 37.7199L34.2555 37.5717L34.3528 37.4326L34.4687 37.1685L34.8604 36.8558L35.0481 36.5383L35.2914 36.536L35.5787 36.3229L35.6946 36.0588L36.1257 35.7391L36.7189 35.1877L37.6088 34.7058C37.9672 34.5885 38.1595 34.5275 38.1858 34.5229C38.1904 34.5491 38.1927 34.5623 38.1927 34.5623C38.1665 34.5669 38.1556 34.5823 38.1603 34.6086L38.1997 34.6016C38.3047 34.5831 38.453 34.5028 38.6446 34.3607C38.7574 34.2325 38.9319 34.1476 39.1683 34.1059C39.2733 34.0874 39.4618 34.0812 39.7337 34.0875C40.4211 33.9933 40.8575 34.2413 41.0428 34.8314ZM56.9102 30.6932L56.6066 31.2748L57.0884 32.1646L56.6805 32.8458L56.6294 33.7078L56.546 33.9256L56.6595 34.1086C56.7243 34.4763 56.681 34.7683 56.5296 34.9845L56.4717 35.1166L56.4995 35.2741C56.6107 35.4441 56.6801 35.6078 56.7079 35.7654C56.7311 35.8967 56.7342 35.9909 56.7172 36.0481L56.7843 36.1987L56.7032 36.6598L56.9047 37.1117L56.6451 37.4824L56.8606 38.013L57.1455 38.2471L56.8466 38.6248L56.9577 39.255L56.7931 39.9339L57.1012 40.5295L56.9204 40.8863L57.3629 41.0926L56.9712 42.0959L56.9527 42.221L57.3605 42.2303L57.2445 43.1849L57.2723 43.3425C57.3047 43.5263 57.317 43.6731 57.3093 43.7828L57.3695 43.894L58.0137 43.8617L58.6647 44.5592L58.4931 45.1987L58.9195 45.0829C59.1326 45.3703 59.2732 45.6298 59.3411 45.8615L58.8544 46.5566C58.703 46.7729 58.4728 47.003 58.1638 47.247L57.5567 47.7196L57.325 47.5574L56.9727 47.8632L55.5015 46.6604L55.3834 45.9907C55.1332 45.4933 54.9688 45.0213 54.8901 44.5749L54.8484 44.3385L54.2022 42.0561L54.2256 40.346L53.8226 39.4423L53.3474 40.6634L53.1735 41.7501L52.8861 41.9632L52.4874 42.9271L51.6624 44.0068L51.47 44.5281L50.7353 45.4293L50.6287 45.9762L49.507 46.9863L48.4316 48.7194L47.711 49.0089L47.2683 49.4931C46.6071 49.5826 46.0642 49.4211 45.6394 49.0086C44.3558 48.6392 43.5928 47.9208 43.3504 46.8534L43.5265 46.7005L43.4455 46.471L43.3227 46.0053L42.9961 45.5349L43.1352 44.9417L43.0681 44.1006L43.1146 42.752C43.11 42.7257 43.1007 42.6732 43.0868 42.5944C43.0513 42.5465 43.0289 42.4963 43.0197 42.4438C43.0011 42.3388 43.0043 42.2028 43.029 42.036C42.9935 41.9881 42.9618 41.8854 42.934 41.7278C42.9016 41.544 42.9272 41.2281 43.0106 40.7801L43.2655 40.6133C43.0848 40.5098 42.9806 40.3792 42.9528 40.2217C42.9343 40.1166 42.9335 40.0355 42.9505 39.9784C42.9103 39.9042 42.881 39.8146 42.8625 39.7096C42.8069 39.3944 42.9228 39.1303 43.2102 38.9171C43.2426 38.6406 43.3408 38.3526 43.5046 38.0529L43.252 37.7725L43.6206 37.0982L43.5928 36.9407C43.5048 36.4417 43.5945 35.952 43.8618 35.4716L43.6973 34.7695L43.8271 34.5842C43.8225 34.5579 43.8156 34.5185 43.8063 34.466C43.7708 34.4181 43.7507 34.381 43.7461 34.3548C43.7183 34.1972 43.7476 34.0566 43.8342 33.9331L43.7925 33.6967C43.8512 33.4156 44.0575 32.973 44.4114 32.3691C44.7652 31.7651 45.0124 31.2477 45.1531 30.8167L45.3847 30.9789L45.7833 30.7056L45.9664 30.592L47.1622 29.7719L50.2232 29.3947L50.2718 29.6704L51.2519 29.7007C51.8559 29.5942 52.2846 29.7217 52.5379 30.0832C52.524 30.0044 52.5209 29.9102 52.5286 29.8005C52.5148 29.7217 52.5055 29.6692 52.5009 29.6429L53.4601 30.2455L54.2363 30.2711L55.5919 29.6665L56.2777 30.561L56.9102 30.6932ZM53.5291 33.4015L53.323 33.1535L52.9939 33.1303L51.5991 32.3608L50.7904 32.3816L50.1602 32.4927L50.0675 32.4278L49.7732 32.6015L49.3839 32.4671L48.3597 32.6477L48.5057 32.7844L47.6552 33.2593L47.5324 33.4841L47.4212 33.5443C47.0179 34.0216 46.7475 34.4077 46.61 34.7027L46.501 35.6968L46.4059 36.0791L46.8971 36.5611L46.3177 37.1913L46.4243 37.335C46.2234 37.8849 46.1646 38.3962 46.2479 38.8689L46.0023 39.3184L46.1273 40.0275L45.8747 40.4376L45.8584 40.806L45.7541 40.9056L45.8513 41.4571L45.7679 41.6749C45.8235 41.99 45.8412 42.2441 45.8211 42.4372L45.9346 42.6203L45.712 43.4313L45.9113 43.6398L45.705 44.0824L46.1127 44.7822L45.7767 45.4101L45.9874 46.1447L46.0082 46.2629L46.1797 46.3139L46.3697 46.2397C46.4779 46.0853 46.5883 45.9439 46.7011 45.8157L46.5668 45.5145L47.1044 45.3385L47.1739 45.0419L49.1647 42.7412L49.3871 42.6208L49.5448 41.9025C49.6931 41.8222 49.8978 41.6778 50.1589 41.4693L50.2841 40.7973L50.5993 40.7418L50.363 40.0929L50.9006 39.9169C50.9346 39.8026 50.9902 39.6574 51.0675 39.4813C51.171 39.3006 51.2769 39.133 51.385 38.9785L52.9217 35.9456L53.1327 35.2992L53.0655 35.1485L53.2648 34.6666L53.2672 34.2194L53.5662 33.8417L53.5291 33.4015ZM82.6154 39.7268C82.6756 40.0682 82.6408 40.3316 82.511 40.5169L81.8968 41.6407L81.7716 42.3126L81.1366 42.6277L81.0022 43.0169L80.0196 43.4339L79.2318 43.5728L77.6608 43.6467L77.1116 43.9873L76.3214 43.8829L75.2926 44.2674L74.9613 44.0009L74.66 44.1352C74.4067 44.234 74.1093 44.3136 73.7679 44.3737L72.9986 44.3875L71.6847 44.538L70.7138 44.7904C70.2087 44.6899 69.8117 44.6652 69.5228 44.7161C69.3127 44.7531 68.9111 44.9323 68.3178 45.2535L67.3956 45.0912C67.3215 45.1313 67.1794 45.1699 66.9693 45.207C66.7329 45.2486 66.553 45.2262 66.4294 45.1397L65.9172 45.9205L65.3541 46.1823C65.1672 46.3506 64.9779 46.5058 64.7863 46.6479C64.621 46.7854 64.4773 46.892 64.3553 46.9676L63.3729 46.6941L62.8609 46.0939L62.7544 45.2597L62.9398 44.699L63.3825 44.2147L63.5494 43.7791L64.05 43.1629L64.4624 42.9683L64.6641 42.7296L65.0604 42.213L65.0859 42.1272L65.1438 41.9952L65.2087 41.9025C65.2303 41.8716 65.2388 41.843 65.2342 41.8168C65.2558 41.7859 65.2883 41.7395 65.3316 41.6777L65.5471 41.5179L66.5621 40.3641L66.6456 40.1463C67.0133 39.6211 67.313 39.3246 67.5448 39.2566L67.6931 38.9462L67.7302 38.6959L68.1196 38.1399L68.3189 37.6579L68.8171 37.4888L68.9956 36.8887C69.1702 36.8038 69.2567 36.6802 69.2552 36.518C69.4622 36.1566 69.7032 35.911 69.9782 35.7813L69.9829 35.5774L70.5113 35.1186L70.9957 34.1803L71.2436 33.9741C71.1123 33.9972 71.0096 34.0289 70.9354 34.069L72.0617 32.855L72.2148 32.3406L72.6319 31.9421L73.0885 30.8462L73.6099 30.3481L73.6864 30.0909L72.9774 30.2159L72.4931 30.4638L71.7632 30.4706L71.1676 30.7787L70.739 30.6512L69.6661 31.2466C69.3324 31.1971 68.9423 31.2117 68.4959 31.2905C68.1545 31.3507 67.82 31.4502 67.4925 31.5892L67.0245 31.4687L66.2181 31.7327L65.8821 31.6701L65.2078 31.9921L63.8198 31.9525L62.8095 32.2119L62.1839 32.1191L61.0462 32.1166L60.2931 32.4525L59.6119 32.0446L59.0281 30.8072L59.5056 29.8294L59.9528 29.8318L60.2077 29.665L60.9423 29.4542L61.5679 29.547L62.1588 29.4428L62.6407 29.6422L63.6649 29.4616L64.2048 29.5288L64.8861 29.2462L65.4654 29.3066C65.6137 29.2263 65.7797 29.1699 65.9636 29.1375C66.1211 29.1097 66.2833 29.1082 66.4502 29.1329L66.3969 29.0611L67.0804 29.0218L68.8531 28.7092L71.1564 28.1812L71.4066 28.2183L71.7728 27.9913L72.6 27.8454L73.9626 27.2803L74.6508 27.037L75.2556 27.0116L76.0342 26.59L76.7108 26.5113C76.89 26.4527 77.0453 26.4118 77.1766 26.3886C77.3032 26.3392 77.406 26.3075 77.4848 26.2936C78.3777 26.1362 78.97 26.6545 79.2618 27.8487L78.6222 28.3676L78.2977 28.831L77.7416 29.1322L76.6824 30.4968L76.4206 30.6242L75.774 31.7943C75.3507 32.0043 75.0115 32.3078 74.7566 32.7048L74.6893 33.2447L74.1563 33.9073L73.5954 35.1029L73.1574 35.3832L71.8433 37.6051L71.2941 37.9457L70.9325 38.6593L70.71 38.7798C70.6019 38.9342 70.4829 39.1041 70.3531 39.2895C70.2496 39.4702 70.1175 39.6424 69.9568 39.8061L69.7065 40.4595L68.9579 41.282L68.3947 42.2343L67.959 42.7579L67.9405 42.883L69.252 42.4893L69.6182 42.2623L70.5891 42.0098L71.0177 42.1373L72.999 41.6255L74.9454 41.6073C75.1987 41.5084 75.3517 41.4544 75.4042 41.4451C75.5618 41.4173 75.7263 41.4289 75.8977 41.4799L76.3937 41.0676L77.2765 41.2368L77.8396 40.9751L78.6482 40.9543L78.9634 40.8988C79.0499 40.7752 79.2307 40.6486 79.5056 40.5188C79.6478 40.2501 79.793 40.0755 79.9413 39.9952L80.0433 39.6523L80.1082 39.5596L80.0596 39.2839L80.4907 38.2737L81.6146 38.1974C82.1984 38.7443 82.532 39.2541 82.6154 39.7268ZM105.497 30.8994C105.469 31.2022 105.409 31.5513 105.316 31.9467L105.397 32.1761L105.923 33.5456L105.911 35.0912L106.154 35.7794L106.008 36.3332L106.471 38.0386L106.362 38.3422L106.564 39.4845L106.684 40.3975L106.872 40.7706L107.23 43.2662L107.671 43.9197L107.49 44.2765L107.726 44.9253L107.564 45.157L107.879 45.792L107.594 46.2484L107.642 46.5242L107.547 46.9065C107.547 47.3668 107.372 48.0612 107.021 48.9895L106.919 50.0229C106.727 50.165 106.61 50.267 106.567 50.3287L106.469 50.4678L106.198 51.003L105.909 51.6633L105.301 52.1359C105.088 52.7693 104.778 53.1624 104.372 53.3152C104.264 53.4697 104.186 53.5647 104.138 53.6002L104.041 53.7392L103.531 54.0728L103.271 54.4435L102.877 54.513L102.736 54.8629L101.999 54.8303L101.334 55.435L100.597 55.4024L99.3319 55.8286L99.0492 55.8379L98.8662 55.9514L97.5245 55.9442L96.9337 56.0484L96.6556 55.8537L94.9896 55.6195L93.6156 55.6587L93.3561 55.3389L92.6331 55.3851L92.2787 54.7571L91.7852 54.7223L91.3658 54.187L90.5688 54.0432L89.7787 53.2483L88.5113 52.7407L88.4581 51.9783C88.401 51.9613 88.1925 51.4701 87.8327 50.5046C87.7586 50.0844 87.7602 49.5561 87.8376 48.9196L87.7751 48.5651L88.1343 48.2987L88.2525 47.5873L88.424 47.6383L88.7068 46.9386L89.3186 46.2621L89.8423 46.0073L90.7531 44.9531L91.7912 44.8513C92.0075 44.5424 92.3257 44.3509 92.7459 44.2768C93.4009 44.4591 93.7654 44.7604 93.8395 45.1806C93.8858 45.4432 93.8139 45.7267 93.6239 46.031L93.121 46.404L92.6065 46.9415L92.0434 47.2032L91.807 47.9354L91.2161 48.0396L91.0492 48.4752L90.6135 48.9988L90.7571 49.5827L90.5392 50.1898L90.7662 50.5559L91.1531 51.1376L92.117 51.5363L92.4181 52.0924L93.6276 52.7321L94.2254 52.6673L95.0317 53.0938L95.7408 52.9688L96.2505 53.3257L96.795 53.1891L97.1518 53.3698L99.0288 52.9576L100.18 52.3484L100.936 52.2558L101.68 51.6372C101.876 51.5214 102.053 51.4496 102.21 51.4218C102.258 51.3863 102.341 51.3176 102.458 51.2156L102.6 50.8658L103.015 50.9145L103.144 50.7291L103.089 50.414C103.087 50.2518 103.235 50.0904 103.531 49.9298C103.59 49.6486 103.761 49.3884 104.044 49.149C104.099 49.0038 104.114 48.7033 104.088 48.2476L104.584 47.8352L104.653 47.5386C104.721 47.31 104.787 47.0683 104.85 46.8134L104.869 46.6883L104.716 45.1311L104.853 44.9852L104.742 44.3549L104.48 43.7918L104.633 43.2774C104.488 42.7615 104.399 42.4116 104.367 42.2277C104.325 41.9914 104.289 41.7133 104.26 41.3935C104.235 41.1 104.219 40.927 104.209 40.8745L103.855 38.8655L103.489 38.402L103.619 37.5261L103.401 36.7522L103.047 34.7432L102.838 34.2519L102.947 33.9484L102.857 33.4363C102.825 33.2525 102.817 33.132 102.834 33.0748L102.359 32.2244L102.116 30.8456L101.808 31.6311L101.397 32.069L101.008 32.625L100.714 32.7988L100.679 33.2923L100.359 33.5518L100.341 33.6769L99.8725 34.2469L99.2838 35.2849L98.4147 36.5754L98.0416 36.763L97.9582 36.9808L96.9292 38.0558L96.5747 38.1184L96.2502 38.5817L96.1621 39.0034L95.3441 39.432L95.2352 39.7355L94.6582 39.9185L93.9282 40.6159L93.2863 40.8915L93.0128 41.1834L92.5934 41.3386L92.4891 41.4382C92.2125 41.8661 91.7066 42.1449 90.9713 42.2745C90.1834 42.4134 89.5223 42.2728 88.9879 41.8525L87.892 40.7054L87.7206 39.9639L86.9979 38.6291L86.7895 37.4473L86.5486 37.0024L86.7155 36.5668L86.3657 35.7349L86.5998 35.4499L86.5697 35.0491L86.7227 34.5347L86.4981 33.7213L86.6001 33.3784L86.5514 33.1027C86.4542 32.5512 86.4327 31.8916 86.4868 31.1238L86.1811 30.0811L86.1257 29.0754L85.5211 27.7198L85.5512 27.4302L85.352 27.2216L85.6024 25.8777C85.6334 25.439 85.6118 25.0096 85.5377 24.5894C85.8251 24.3762 86.1263 24.2419 86.4415 24.1863C86.6778 24.1446 86.9211 24.1424 87.1714 24.1795L87.6648 24.9048L88.4178 25.2594C88.4085 25.6672 88.3984 25.994 88.3876 26.2396L88.8463 26.7679L88.7582 27.1896L89.3467 27.5327L89.0268 28.4826L89.4437 29.4652L89.2444 29.9471L89.2977 30.0189L89.36 31.7545L89.6309 33.2908L89.4362 33.5688L89.5218 34.9753L89.2436 35.4712C89.2668 35.6025 89.31 35.7709 89.3733 35.9763C89.4057 36.1601 89.4289 36.2915 89.4428 36.3702L89.8436 37.0307L89.6581 37.5914L89.848 38.2078L89.797 38.3792C89.9051 38.6851 89.9592 38.8381 89.9592 38.8381L90.3693 39.0907L90.6311 38.9633L90.7122 39.1927L90.9185 38.7501L92.0608 38.5487C92.1906 38.3634 92.3644 38.1973 92.5823 38.0506C93.1122 37.5239 93.6089 37.1926 94.0723 37.0568L94.0214 36.5377C94.6873 36.0141 95.5293 35.3376 96.5474 34.5083L96.6494 34.1653C96.5799 34.2317 96.5212 34.2827 96.4733 34.3182C96.5428 34.2518 96.7058 34.1012 96.9622 33.8665L97.0295 33.3266L97.2289 32.8446L97.7456 32.5504L97.9774 32.0222L98.1813 32.0268L98.3899 31.8276L98.7723 31.2321L98.9623 31.158L98.9809 31.0329L99.5579 30.1594L99.8662 29.3739C100.141 29.2442 100.358 29.0164 100.517 28.6905L100.868 27.4509L100.573 26.2436L100.94 26.0166L100.919 25.8984L100.557 25.231L100.569 25.0665C100.334 24.81 100.203 24.603 100.175 24.4454C100.124 24.1565 100.219 23.7742 100.46 23.2985L100.481 23.4167L100.569 22.995L100.581 22.8304L100.602 22.9486C100.719 22.3863 101.196 22.018 102.031 21.8435L103.507 22.8424L103.806 23.8458L104.318 24.446L104.193 25.118L104.281 25.3868L104.316 25.5837C104.277 25.6718 104.232 25.8015 104.181 25.973L104.341 26.1885L104.452 26.8188L104.406 27.4768L104.716 28.3157L104.827 28.946L104.994 29.2009L105.047 29.9632L105.497 30.8994ZM115.108 18.1162L115.011 18.2552L115.011 18.9457L114.814 18.9804L114.772 19.4346L114.89 19.4137C114.998 19.7196 115.093 19.9467 115.173 20.095L115.078 20.4773C115.177 20.7307 115.235 20.9099 115.254 21.0149C115.268 21.0937 115.269 21.2559 115.258 21.5015L115.242 21.8699L115.68 25.0422L115.985 25.3944L115.923 26.4209L116.305 27.2065L116.177 27.6351C116.303 27.8838 116.388 28.1395 116.435 28.4021L116.75 29.0371L116.534 29.1969L116.569 29.3939C116.61 29.6302 116.614 29.8056 116.58 29.9199L116.629 30.1956C116.596 30.9325 116.278 31.3541 115.674 31.4606C114.886 31.5996 114.402 31.1569 114.221 30.1327L114.089 29.3843L113.858 28.5315L113.483 27.7854L113.603 27.3173L113.337 26.9581L113.353 25.8992L112.931 25.8111L113.008 24.8634L112.867 24.5227L112.742 23.8137L112.628 23.6306L112.63 23.1834C112.607 23.0521 112.625 22.8459 112.684 22.5647L112.584 22.4604L112.543 22.2241L112.119 21.8927L112.448 21.2254L112.214 20.8199L112.262 20.4051C112.235 20.2475 112.202 20.0637 112.165 19.8536C112.102 19.6481 112.066 19.5192 112.056 19.4666C112.038 19.3616 112.03 19.2411 112.033 19.1052C112.01 18.9738 111.994 18.8819 111.985 18.8294C111.904 18.6811 111.86 18.5807 111.85 18.5282L111.704 18.3914C111.686 18.2864 111.724 18.1983 111.82 18.1273L111.674 17.9906L111.591 17.5179L111.134 17.2328L110.966 15.3536L112.136 15.3097L112.745 15.0804L114.279 15.2567L114.573 15.7735C114.627 15.9264 114.68 16.1473 114.731 16.4362C114.759 16.5938 114.766 16.7142 114.754 16.7977L114.677 17.0549L114.619 17.1869L115.108 18.1162ZM118.834 34.6402L118.813 35.2125C118.802 35.4581 118.804 35.6203 118.818 35.6991L117.926 36.6282L117.221 36.5493L116.679 36.9292L116.072 36.7113L115.245 36.8572L114.508 35.4436L114.649 34.4033L115.143 33.7476L115.294 33.6804L115.618 33.217C116.021 33.2001 116.322 33.2148 116.52 33.2612C116.94 33.1871 117.253 33.1995 117.46 33.2984C117.343 33.4003 117.223 33.4891 117.101 33.5648L117.989 33.5302L118.355 33.9936L118.834 34.6402Z" fill="black"/>
<g clip-path="url(#clip0_9_130)">
<path class="bd-svg-black" d="M108.258 85.7967C109.832 85.8751 111.405 85.6537 112.98 85.882C126.774 88.1605 138.98 83.9158 150.28 76.9712C154.172 74.5817 157.686 70.9173 160.225 67.026C167.62 56.0261 172.165 43.8208 173.41 30.5591C173.776 26.738 173.393 22.7653 172.41 18.7913C171.887 19.9143 171.291 21.112 170.844 22.3101C169.502 25.7544 168.236 29.2738 166.67 32.6426C165.998 34.065 164.727 35.3362 163.456 36.4575C163.007 36.9062 161.658 36.9032 161.133 36.5273C160.607 36.1515 160.23 34.8767 160.528 34.4277C164.932 26.119 166.71 16.8303 169.238 7.84305C170.13 4.69753 171.702 3.72675 174.627 4.85729C181.828 7.72086 188.132 12.0813 193.465 17.7135C193.616 17.8637 193.542 18.3881 193.544 19.2874C187.48 22.0469 184.019 15.8942 178.02 14.2323C178.398 15.657 178.775 16.7819 178.927 17.8314C181.147 38.8945 174.818 57.5407 162.565 74.3004C160.772 76.8444 158.229 79.087 155.61 80.9548C145.957 87.7531 135.175 91.6263 123.335 91.9C119.513 91.9665 115.614 90.9088 111.865 90.0013C110.365 89.6982 109.088 88.4214 107.813 87.5942C107.961 86.9951 108.11 86.3959 108.258 85.7967Z" fill="black"/>
</g>
<defs>
<clipPath id="clip0_9_130">
<rect width="110" height="43.5" fill="white" transform="translate(98 77.7817) rotate(-45)"/>
</clipPath>
</defs>
</svg>
