<svg width="301" height="143" viewBox="0 0 301 143" fill="none" xmlns="http://www.w3.org/2000/svg">
<path class="bd-svg-black" d="M89.0413 25.3312L88.3209 26.4227C88.063 27.2708 87.5857 27.6741 86.889 27.6325L86.5161 28.1353L85.0308 28.7264L84.6462 29.0648L83.8654 29.577C83.6245 29.5615 83.3132 29.5608 82.9316 29.5748C82.1377 30.0847 81.2402 30.4138 80.2393 30.5622L79.4677 30.7918C78.9857 30.7609 78.2288 30.8305 77.1969 31.0006L76.3651 31.3413L75.6375 31.0912C75.1324 31.1917 74.696 31.2095 74.3283 31.1447C74.0394 31.0937 73.7467 30.988 73.4501 30.8273C73.4223 30.9849 73.264 31.0382 72.9751 30.9873C72.7387 30.9456 72.3896 30.7757 71.9277 30.4777L71.6125 30.4221L71.7979 30.2923L71.0541 30.3643L70.7529 30.2299L70.3381 30.2786L69.2397 29.5975L68.7831 29.1921L67.8539 28.7033L67.7333 28.2353C66.9378 27.9867 66.5407 27.5511 66.5422 26.9286L66.5699 26.771L66.6348 26.8637C66.4185 26.5548 66.2393 26.0357 66.097 25.3066C65.8916 25.2433 65.6992 24.9522 65.5199 24.4332C65.3716 23.8925 65.3414 23.3727 65.4294 22.8737C65.4849 22.5586 65.5583 22.2195 65.6494 21.8565C65.586 21.6016 65.5937 21.2509 65.6724 20.8045L65.9874 20.1696L66.1472 19.2635L66.4901 19.1615L66.5712 18.9321L67.3958 17.2498L68.1094 16.1977L68.5704 15.426C68.6877 15.0676 68.9873 14.6737 69.4693 14.2441L69.6615 14.075L69.6035 13.2524L70.5465 12.9719C70.8246 12.7772 71.0385 12.6389 71.1883 12.557L71.5057 11.6788L72.1452 11.5072L72.4672 10.8329C73.0016 10.873 73.377 10.8173 73.5933 10.6659C73.9562 10.2967 74.3771 10.0595 74.856 9.95437L75.2661 9.70175L76.3389 9.60659L76.9923 9.35625L77.6783 9.84276C78.3054 9.81795 78.7109 9.82176 78.8948 9.85417L79.3281 9.93058L79.5505 10.051L80.0163 10.1738C80.6173 10.6047 81.2082 10.939 81.789 11.1769L82.2247 11.7005L84.3197 13.4102L84.4982 14.0103L84.8296 14.4343L84.9595 15.3102L85.0916 15.9427L85.1172 16.719L84.9111 17.6575C84.9019 17.71 84.8432 17.8892 84.7351 18.1951L84.7143 18.3132C84.5707 19.1273 83.7049 19.5839 82.1169 19.683L81.4194 19.032L81.0903 18.3647L80.9998 17.4958L81.104 16.9049L81.0969 16.2538L81.2706 15.269L81.4652 14.8565L81.3238 14.5066C81.2326 14.4093 81.0827 14.2611 80.8742 14.0618L80.7699 13.9622C80.0454 13.6178 79.6885 13.3383 79.6993 13.1235L78.9508 12.9916L78.6704 12.739L78.397 13.1376L77.7319 12.5329L77.5141 12.6164L77.0553 12.4543L76.527 12.686C76.2783 12.561 76.0358 12.4776 75.7994 12.4359L75.1623 13.0547L73.8857 13.845L72.711 14.9782L72.5002 15.0223L72.0716 15.8403L71.5433 16.0721L71.4808 16.4266L70.5309 17.437L69.8986 18.9502L69.9102 19.1147L69.4445 19.6825L69.5697 20.3544L69.0739 20.6325L69.0461 20.7901L68.8677 20.8805L68.7126 21.9904L68.4092 22.7899L68.634 23.3576L68.6711 23.6078L68.9701 23.9855L68.8729 24.537L69.202 25.2042L68.9958 25.4522L69.45 26.1009L69.4547 26.3048L70.7825 27.067L70.7015 27.2964L71.7048 27.5952L72.0362 28.0192L72.9978 27.8638L73.3478 28.4129L73.5911 28.4152C73.9525 28.2081 74.2777 28.1301 74.5666 28.181C74.6454 28.1949 74.7852 28.2466 74.986 28.3362L75.4981 28.4265L75.7391 28.6721L76.1214 28.577C76.384 28.6233 76.5833 28.6449 76.7193 28.6418C77.1471 28.3653 77.6368 28.2756 78.1883 28.3728C78.4354 28.1998 78.8216 28.1596 79.3468 28.2522C79.5059 28.1178 79.9191 28.0011 80.5865 27.9021C80.9016 27.9577 81.1627 27.936 81.3696 27.8371L81.7751 27.3806L82.3938 27.3272L82.9939 27.1487L83.5499 26.7594L84.3146 26.5693L86.7566 24.9284L88.1352 24.481L89.0413 25.3312ZM111.46 34.7675C111.404 35.0826 111.101 35.4217 110.549 35.7848L110.213 35.8474L109.875 36.1534L109.131 36.2253C108.967 36.386 108.82 36.4547 108.689 36.4316C108.662 36.4269 108.638 36.4092 108.617 36.3783C108.564 36.369 108.525 36.3621 108.499 36.3575C107.87 36.5445 107.148 36.5662 106.334 36.4226L106.019 36.3671L105.069 35.9965L104.455 35.5632L103.18 34.0387L103.053 32.9196L102.513 32.2963C102.61 32.2052 102.68 32.0414 102.721 31.8051C102.749 31.6475 102.69 31.3664 102.545 30.9617L102.83 30.0371L102.858 29.8795C102.913 29.5644 102.893 29.1411 102.797 28.6097L103.242 27.4696L102.549 28.4035L101.945 28.3781L101.72 29.1915C101.491 29.2595 101.233 29.268 100.944 29.2171L100.344 30.0861L99.7273 30.5867C99.4756 30.786 99.2686 30.8849 99.1064 30.8834L98.9743 30.9413L97.2992 32.1488L97.1416 32.121L96.2404 32.8557L95.4688 33.0852L94.9846 33.5278L94.0299 33.6438L92.6397 33.9267L91.9213 33.3938C91.3961 33.3012 91.0701 33 90.9433 32.4903L90.6235 32.2308C90.6374 32.152 90.6691 32.0493 90.7185 31.9226C90.7416 31.7913 90.7579 31.6994 90.7671 31.6469L90.2341 30.9842L90.4333 30.7757L90.1551 29.5893L90.3405 29.4595L90.2756 29.3669C90.2848 29.3143 90.2987 29.2356 90.3172 29.1305C90.3049 29.0471 90.3033 28.9791 90.3126 28.9266C90.3635 28.6377 90.4515 28.3689 90.5766 28.1202L90.7966 27.103L90.7849 26.2479C90.9532 26.061 91.0513 25.8887 91.0791 25.7312C91.1115 25.5473 91.0628 25.3627 90.933 25.1774L91.4219 24.9387L91.5053 24.466L91.5769 23.1382L92.4548 20.6935C92.5289 20.2733 92.5195 19.6354 92.4267 18.7796C92.6537 17.9531 93.2862 17.5908 94.3243 17.6926L94.6186 17.8663L95.1562 18.0423L95.7263 18.9552L95.3094 19.9377L94.9319 21.6177L94.8209 22.9385L94.5012 23.3695L94.5638 23.7055L94.2557 24.3011L94.1862 24.695L94.0866 24.7993C94.099 24.8827 94.0913 25.0032 94.0635 25.1607C94.0033 25.5021 93.8883 25.8474 93.7184 26.1965L93.8667 26.507L93.605 27.0701L93.6004 27.5567L93.5032 28.1082C93.6067 28.2889 93.6376 28.4975 93.5959 28.7338C93.5589 28.9439 93.4693 29.1448 93.3272 29.3363L93.2994 29.4939C93.352 29.9635 93.3667 30.2639 93.3436 30.3953L93.6356 30.8123C93.8117 30.735 94.0187 30.6361 94.2566 30.5156C94.3817 30.2669 94.5956 30.1286 94.8984 30.1008L94.9678 29.7068C95.1254 29.7346 95.3818 29.7392 95.7371 29.7206L95.8784 29.38L96.5967 29.2223L96.7357 29.125C96.952 28.9736 97.2841 28.8561 97.732 28.7726L97.7598 28.6151L98.6055 28.1956C98.8773 27.729 99.2635 27.4586 99.764 27.3844C100.104 27.1465 100.331 27.0105 100.445 26.9765L101.075 26.3971L101.096 26.2789L101.268 26.2279L101.65 26.1329L101.944 25.6161L102.834 25.4075L102.998 25.3958C102.998 25.3958 103.107 25.3201 103.323 25.1687L103.385 24.8142L103.636 24.7771C103.788 24.3708 104.054 24.0927 104.433 23.9428L105.26 22.7076L105.582 22.0333L105.688 21.8896L105.846 21.9174L106.156 21.7691L105.934 21.6486C106.306 21.2268 106.617 20.7672 106.867 20.2698L108.017 20.4318L108.791 21.34L109.073 22.0398L108.341 23.6572L107.612 24.3409L106.868 25.7939L106.432 25.9607L106.328 26.5516L106.016 26.9433L106.009 27.6732L105.645 27.8933L105.58 29.1817L105.346 30.9682L105.543 31.003L105.363 32.0272L105.796 32.7941L106.26 33.1601L106.264 33.364C106.444 33.4227 106.655 33.5277 106.899 33.6791L107.87 33.9315L108.489 33.8781L109.643 33.5536C109.871 33.4856 110.143 33.4793 110.458 33.5349C111.246 33.6738 111.58 34.0847 111.46 34.7675ZM128.729 36.8377L128.159 37.3059L127.545 38.2537L127.188 38.4345L126.815 38.9373L126.014 38.8772L125.411 39.299L124.623 39.1601L124.081 39.4707L123.669 39.2761L123.136 39.304L123.08 39.6191L121.644 39.2439L121.006 39.1722L120.492 39.3252L120.14 39.0194C120.407 39.0394 120.619 39.0633 120.777 39.0911C120.562 39.0803 119.923 39.0217 118.858 38.9153L118.747 38.855L118.439 38.7601L117.878 38.9455C117.739 38.8127 117.471 38.6436 117.074 38.4382C116.506 38.2838 116.129 38.1904 115.946 38.158L115.63 38.1024C115.451 38.0437 115.257 37.9959 115.046 37.9588C114.836 37.9218 114.617 37.9373 114.388 38.0053L113.899 37.5535L113.598 37.4191C113.519 37.4052 113.382 37.3404 113.186 37.2246C112.233 36.9482 111.89 36.0484 112.159 34.5252L112.221 34.1707L113.067 33.7512L114.075 33.5634L114.722 34.0429L115.273 34.1402L115.252 34.2583C115.496 34.4097 115.669 34.6568 115.771 34.9997L116.08 35.0947L115.989 35.6068L116.48 35.8153L116.585 35.9149L121.683 36.4888L122.938 36.5072L123.057 36.528L123.17 36.345L123.736 36.3634L123.835 36.2591C124.401 36.2776 124.94 36.2103 125.455 36.0573L125.529 35.8673C125.507 35.8364 125.471 35.7352 125.42 35.5638L125.216 35.5684L124.773 35.0842L124.419 35.0217L124.271 34.7112L124.417 34.5745L123.969 34.5769L123.717 34.1668C123.633 34.1792 123.5 34.1691 123.316 34.1367C122.974 34.0765 122.645 33.9507 122.326 33.7592L121.972 33.6966L121.717 33.5298L121.131 33.6296L120.878 33.2195L120.76 33.1986L120.285 32.6681L119.147 31.98L118.809 31.5954L117.36 31.0557L117.251 30.7522L116.273 29.8487L115.912 28.4445L115.557 27.6915L115.761 25.6153L115.96 25.4068C116.119 24.812 116.422 24.3238 116.868 23.9422C117.299 23.8016 117.549 23.5343 117.619 23.1404L118.23 23.1264C118.373 22.9348 118.617 22.7749 118.965 22.6466L119.639 22.2781L122.288 21.7703L122.742 21.7285L123.543 21.7887L124.906 21.6633L127.36 22.2585L127.404 22.4694C127.626 22.5898 127.852 22.8462 128.081 23.2385L128.046 23.4355L128.607 23.9406L128.164 24.8374L128.023 25.178C127.75 25.8068 127.324 26.0702 126.746 25.9683C126.274 25.885 125.958 25.5992 125.801 25.1111L125.822 24.9929L125.356 24.8702L124.777 24.9305L124.327 24.4857L124.017 24.634C123.675 24.5738 123.342 24.6233 123.016 24.7825C122.622 24.713 122.213 24.8034 121.79 25.0537L121.278 24.9634L120.875 25.1767L120.302 25.1976L120.21 25.2625L119.952 25.339L119.535 25.631L119.41 25.6496L118.958 26.1386L118.483 26.2985C118.318 26.6214 118.202 26.8987 118.134 27.1304C118.095 27.5027 118.091 27.7591 118.12 27.8997C118.18 28.0186 118.343 28.1692 118.609 28.3515L118.574 28.5484L119.038 28.9145C119.43 29.1461 119.715 29.3724 119.893 29.5933L120.681 29.7322L121.116 30.2558L122.001 30.5337L122.314 30.8326L123.774 31.5368L123.895 32.0049L124.101 31.7569C124.442 31.8171 124.874 32.0557 125.396 32.4727L126.085 32.7159L126.115 33.0056L126.745 33.1167L127.737 33.9415C127.808 34.306 128.041 34.6721 128.437 35.0397L128.821 35.3918L128.62 35.8437C128.757 36.1387 128.801 36.4307 128.75 36.7196L128.729 36.8377ZM145.981 28.6287C145.939 28.8651 145.663 29.0466 145.154 29.1734C145.025 29.2862 144.808 29.3696 144.5 29.4237C144.105 29.5165 143.819 29.6015 143.643 29.6787L142.864 29.2571C142.388 29.4982 141.822 29.5608 141.166 29.445L140.714 29.2435L140.304 29.4961L139.24 29.3086L138.494 29.6238C138.224 29.4679 137.957 29.3667 137.695 29.3204C137.607 29.359 137.414 29.3791 137.115 29.3807C136.984 29.3576 136.847 29.2927 136.703 29.1861L136.321 30.6622L136.166 31.7721L135.804 33.13L135.619 34.6408L135.612 35.3707L135.515 35.9222L135.858 37.2012C135.766 37.2661 135.71 37.3511 135.691 37.4562C135.659 37.64 135.922 37.8354 136.482 38.0423L136.477 38.5289L136.732 38.6957L137.149 39.0942L137.423 39.3861C137.695 39.3799 137.883 39.386 137.988 39.4045C138.224 39.4462 138.454 39.5273 138.676 39.6478C138.791 39.6138 139.046 39.4693 139.443 39.2143C139.717 39.0459 139.958 38.9802 140.168 39.0173C140.195 39.0219 140.234 39.0289 140.287 39.0381C140.334 39.0736 140.372 39.0937 140.398 39.0983C140.722 38.6411 141.2 38.3869 141.832 38.3358C142.383 38.4331 142.813 38.6848 143.12 39.091L143.072 39.3668C142.914 40.2597 142.5 40.7687 141.828 40.8939C141.494 41.4037 140.933 41.6703 140.143 41.6936L139.594 42.0435L139.082 41.9532L138.134 42.0298C137.915 42.0453 137.608 42.0183 137.214 41.9489C137.004 41.9118 136.79 41.8199 136.573 41.6732L136.06 41.5829L134.814 40.5914L134.48 40.4107L133.847 39.1618L133.465 38.5664L132.946 36.4439L132.957 34.5369L133.119 34.0781L132.88 33.5892L133.174 33.0725L133.13 32.1711L133.455 31.944L133.624 31.4458L133.589 30.9522L133.793 30.2571L133.746 29.599L133.978 29.4368L134.089 28.8065L133.834 28.6397L133.058 28.6653L132.439 28.0282L132.321 28.0073C131.533 27.8684 131.213 27.3788 131.362 26.5384L131.382 26.4202L131.042 25.5884L131.915 25.0113L132.872 25.3426L133.398 25.3541L134.112 25.683L134.939 25.8289L135.078 25.041L134.76 23.8477L135.321 23.6623L135.228 23.0367L135.483 21.8225L135.258 21.2548C135.125 20.9335 135.08 20.6547 135.121 20.4183C135.172 20.1294 135.28 19.9047 135.443 19.744L135.659 19.2133L136.03 18.9538C136.762 18.9475 137.246 18.9652 137.482 19.0069C138.323 19.155 138.715 19.6169 138.66 20.3923L138.507 20.5685C138.623 20.8326 138.662 21.0697 138.625 21.2798C138.62 21.3061 138.596 21.3694 138.551 21.4698L138.43 21.6923L138.342 21.9611L138.41 22.501L138.336 22.691L138.317 23.2564L137.879 23.6666L137.937 24.4891L137.613 25.4068L137.866 25.8169L137.425 26.4704L138.674 26.5281L140.806 27.1071L142.588 27.137L143.172 27.2806L143.376 27.2759L144.912 27.5468C145.726 27.6903 146.083 28.051 145.981 28.6287ZM160.655 36.2934L160.294 36.9608C160.173 37.6436 160.039 38.175 159.891 38.555L159.585 38.9073L159.509 39.3406L159.263 39.5816L159.048 40.1123L158.538 40.4692L158.088 41.4053L157.752 41.468L157.519 41.8735L156.997 42.0659L156.564 42.68L156.05 42.833L155.927 43.2988L155.13 43.4425C154.705 43.855 154.232 44.083 153.709 44.1263L153.545 44.1379C153.08 44.6245 152.546 44.8146 151.942 44.7081C151.651 44.8194 151.335 44.8449 150.994 44.7847L150.551 44.991L150.137 45.0397L149.555 45.3434L149.05 45.2137L148.471 45.274L147.85 44.8802L146.176 44.4633L145.745 43.4531L145.038 42.3943L145.347 41.7987L144.992 40.3552L145.358 39.8917L145.328 38.9116L145.629 38.3554C145.641 37.9785 145.661 37.7112 145.689 37.5537C145.777 37.0547 145.973 36.7102 146.277 36.5201C146.35 36.2622 146.597 35.8589 147.019 35.3105L147.216 35.3452L147.185 35.0556L147.401 34.5249L147.505 33.9341C147.757 33.7347 147.903 33.598 147.943 33.5239L147.922 32.9515L147.95 32.794C148.198 32.4587 148.357 32.0941 148.427 31.7002L149.456 30.7037C149.456 30.7037 149.487 30.6821 149.548 30.6388C149.636 30.6002 149.711 30.5592 149.773 30.516L149.761 30.3514L149.919 30.3792L150.628 29.8137L150.827 28.9147L151.874 28.7338C152.284 28.5623 152.59 28.21 152.792 27.677L153.304 27.7673C153.621 27.6607 153.897 27.6282 154.134 27.6699C154.37 27.7116 154.584 27.8035 154.775 27.9456L155.202 28.0614L156.295 27.848L156.757 28.4574L157.141 28.8095L157.456 28.8651L157.992 29.2844L158.307 29.34C158.593 29.7153 158.91 30.2181 159.259 30.8483L159.304 31.0592L159.551 31.2653L160.191 32.4748L160.613 34.4582L160.544 34.8521L160.655 36.2934ZM157.889 36.7804L157.884 36.5765C157.732 36.3602 157.662 36.1447 157.673 35.93L157.826 35.7539L157.603 34.9429L157.814 34.2084L157.691 33.9836C157.396 33.6608 157.249 33.4183 157.251 33.2561C157.033 33.1094 156.961 32.8259 157.035 32.4057L156.806 32.3247L156.472 31.4535L156.166 31.1152L155.394 30.6542L155.093 30.5199C154.936 30.4921 154.84 30.421 154.806 30.3067L153.865 31.0344L153.159 32.0471L152.255 32.3346L152.06 32.747L151.632 32.8745L151.294 33.871L150.779 34.024C150.609 34.3731 150.497 34.7052 150.441 35.0204L149.707 35.5001L149.883 35.653C149.827 35.9682 149.66 36.2231 149.382 36.4178C149.262 36.6402 149.11 36.8843 148.928 37.15L148.873 37.4652L148.727 37.6019L148.683 38.0816L148.062 39.0688L148.106 39.2796L147.911 40.3826L147.657 40.9063L147.599 41.4647L147.863 42.0394L148.38 42.3336L148.563 42.4471L148.906 42.3451L149.916 42.6044L150.143 42.2383L150.301 42.2661C150.458 42.2939 150.543 42.3495 150.556 42.4329L150.931 42.3772L151.225 42.551L151.8 42.2867L151.899 42.1825L152.268 42.1662C152.503 41.9097 152.987 41.6972 153.721 41.5288L153.834 41.3457L154.719 40.9331L155.264 40.3792L155.95 40.1752L156.024 39.9852L156.297 39.5866L156.387 39.0745L156.93 38.764L157.136 38.516L157.374 38.3144C157.325 37.9807 157.312 37.7482 157.335 37.6169C157.377 37.3806 157.499 37.145 157.703 36.9102L157.889 36.7804ZM196.081 47.2515C195.885 47.596 195.665 47.8416 195.423 47.9884C195.293 48.2634 195.138 48.4526 194.957 48.5562C194.78 48.7956 194.59 48.9517 194.387 49.0243L194.188 49.2329C194.055 49.3719 193.897 49.4252 193.713 49.3928L193.447 49.752L193.171 49.7034L192.911 50.0232L192.575 50.0858L192.29 50.3199L192.066 50.4427C191.672 50.3733 191.323 50.4336 191.018 50.6236C190.654 50.6947 190.288 50.6979 189.92 50.633C189.552 50.5682 189.201 50.4115 188.866 50.1628C188.45 50.0624 188.252 49.9597 188.27 49.8547L187.732 49.6787L187.635 49.5397L187.482 49.0253L187.111 48.5943C186.883 48.202 186.781 47.8591 186.805 47.5656C186.668 47.2705 186.572 46.7392 186.518 45.9714L186.235 45.2717L186.298 44.9172L186.23 43.6868L186.353 43.221L186.332 41.9582L186.624 40.9942L186.475 40.6837L185.908 41.5991C185.312 42.0626 184.949 42.3507 184.821 42.4635C184.724 42.5547 184.61 42.5887 184.478 42.5655C184.452 42.5609 184.402 42.5385 184.328 42.4983L184.015 42.89C183.984 42.9116 183.962 42.9618 183.948 43.0406C183.92 43.1982 183.996 43.3063 184.175 43.365C184.113 43.4082 183.949 43.5689 183.684 43.847C183.542 44.0386 183.424 44.1668 183.331 44.2317L183.248 44.0139L183.072 44.5515C182.684 44.7539 182.378 45.1062 182.155 45.6082C181.832 45.9033 181.339 46.3174 180.676 46.8504L180.067 47.3116C179.936 47.2885 179.865 47.3032 179.856 47.3557L179.842 47.4345C179.62 47.7743 179.293 48.0146 178.862 48.1552L178.285 48.6628L178.01 48.6141L177.002 48.802C176.223 48.6105 175.797 48.1835 175.725 47.5208L175.762 47.0805L175.616 46.5267L175.692 46.0934L175.578 44.8955L175.641 44.5409L175.474 44.1053L175.847 42.912C175.844 42.776 175.863 42.5899 175.905 42.3535C175.942 42.1434 175.98 42.0013 176.021 41.9272L176.023 41.6839L176.051 41.5263L175.93 41.0582L176.377 40.3654C176.362 40.146 176.343 39.7907 176.321 39.2995L176.502 38.9658L176.822 37.8442L176.652 36.9614L176.849 36.3057L176.794 35.9303C176.781 35.8469 176.733 35.5812 176.65 35.1332L176.346 35.2422L175.723 35.7821L175.174 36.1321L174.02 37.1472L173.865 37.5666L173.07 38.1576L172.697 38.6605L172.366 38.927C172.185 39.4908 171.825 39.847 171.284 39.9953L171.147 40.5399C170.962 40.6697 170.754 40.8496 170.524 41.0798C170.32 41.3147 170.174 41.4514 170.086 41.49C170.029 41.507 169.91 41.5673 169.73 41.6708L169.139 42.2571C169.06 42.7036 168.834 42.9886 168.46 43.1123L168.418 43.3486C168.224 43.5309 167.977 43.704 167.677 43.8678L167.651 43.782L167.436 44.3127C167.226 44.2756 166.985 44.4904 166.713 44.957L166.567 45.0937C166.467 45.5092 166.188 45.785 165.731 45.921L165.089 46.3359C164.632 46.4719 164.337 46.5283 164.206 46.5051C163.523 46.3848 163.176 45.7414 163.165 44.5751L163.161 43.6807C163.144 43.6236 163.144 43.5425 163.163 43.4374C163.195 43.2536 163.267 43.0767 163.378 42.9067L163.313 42.1236L163.503 41.5072L163.536 40.863C163.685 40.3208 163.838 39.9956 163.992 39.8874C164.01 39.322 164.027 39 164.041 38.9212L164.166 38.2121C164.303 38.0468 164.476 37.8336 164.685 37.5725L164.49 37.2945C164.474 37.0751 164.469 36.9523 164.474 36.9261C164.506 36.7422 164.719 36.4549 165.113 36.064L164.969 35.2669L165.21 34.822L165.175 33.6379L165.351 33.1003L165.307 32.199L165.451 31.615L165.221 30.8435C165.927 29.9119 166.582 29.4993 167.186 29.6058C167.501 29.6614 167.78 29.846 168.023 30.1595L168.032 30.5673C168.437 30.8824 168.597 31.2763 168.514 31.749C168.528 31.6702 168.44 31.939 168.25 32.5554L168.099 32.4882L168.336 33.2204L168.044 33.4939L167.977 33.6445L167.893 35.4982L167.544 37.0206L167.377 37.2755L167.423 37.9336C167.484 38.0525 167.5 38.1908 167.472 38.3484C167.435 38.5585 167.293 38.75 167.046 38.9231C166.981 39.2907 166.862 39.5812 166.689 39.7944L166.599 40.997L166.516 41.4697L166.569 41.3978L166.868 41.085L167.593 40.1974L167.711 40.2183C167.869 40.246 168.083 40.0267 168.355 39.5601L168.763 38.8603C168.843 38.712 169.084 38.4972 169.486 38.216L169.768 37.5347L170.366 36.909L170.621 36.3853C170.766 36.3297 170.914 36.2609 171.063 36.179L171.124 36.0678C171.221 35.9766 171.558 35.7518 172.136 35.3934L172.393 35.3169L172.542 34.9368L172.759 34.8534C172.988 34.325 173.381 34.0153 173.939 33.9241L173.802 33.7781L173.973 33.7271C173.952 33.6962 173.946 33.6545 173.955 33.602C173.964 33.5494 174.004 33.4753 174.075 33.3795L174.754 33.2149L174.984 32.6055L175.417 32.6819C175.421 32.6556 175.464 32.5683 175.544 32.42L176.443 31.9286C176.829 31.8884 177.088 31.8799 177.219 31.9031C177.535 31.9586 177.952 32.1269 178.471 32.408L178.767 33.029L178.911 33.1355L179.025 33.643L179.444 34.4887L179.354 35.0008L179.639 35.4572L179.535 36.0481C179.713 36.7293 179.762 37.2931 179.683 37.7396L179.482 38.1914L179.6 38.9028L179.09 39.2597L179.095 40.1541L179.014 40.3835L178.94 40.5735C178.841 40.8269 178.78 41.0192 178.757 41.1505C178.734 41.2818 178.753 41.556 178.815 41.9731L178.62 42.3856L178.641 42.9579L178.502 43.0553C178.49 43.4322 178.46 44.0632 178.412 44.9484L178.345 45.099L179.849 43.9425L180.375 43.2635C180.508 43.1245 180.722 42.9051 181.019 42.6054L181.033 42.5266C181.212 42.1249 181.433 41.8662 181.698 41.7503C181.725 41.5927 181.891 41.4189 182.196 41.2288L182.546 41.0874C182.729 40.6595 183.07 40.3405 183.567 40.1303L183.861 39.6136L184.299 39.2034L184.763 38.8789C185.031 38.7367 185.266 38.4803 185.467 38.1095L185.866 37.6924L186.127 37.1293L186.602 36.9693L187.133 36.4942L187.733 35.6252C187.628 35.6067 187.58 35.5712 187.589 35.5187C187.589 35.5187 187.625 35.4708 187.696 35.375L188.013 35.1872L188.439 34.6125C188.914 34.5337 189.177 34.4989 189.23 34.5082C189.23 34.5082 189.277 34.5437 189.373 34.6147L190.075 34.7791L190.657 35.166L191.097 35.8935L191.118 36.4659L191.002 36.8922L190.778 37.0151L190.199 37.7659L189.881 38.6442C189.989 38.7986 190.013 39.0466 189.953 39.3879C189.825 39.5007 189.742 39.6622 189.705 39.8723L189.492 40.1596C189.522 40.3002 189.511 40.5149 189.46 40.8038C189.418 41.0401 189.375 41.2085 189.33 41.3089L189.138 41.4781L189.247 41.7817L188.909 42.0876C189.066 42.1153 189.115 42.2999 189.055 42.6413C189.079 42.8082 189.087 42.9178 189.078 42.9704C189.064 43.0492 189.021 43.1364 188.95 43.2322C188.957 43.5041 188.939 43.7582 188.897 43.9946L188.883 44.0734C188.874 44.1259 188.95 44.6943 189.111 45.7787L189.12 46.1865L189.47 46.7357L189.609 47.3288L189.825 47.4887L189.94 47.7528L190.13 47.8269L190.471 47.9682L190.675 47.9636L190.793 47.9844C191.056 48.0307 191.389 47.9812 191.794 47.836C191.946 47.5919 192.27 47.3648 192.767 47.1546C192.817 47.0279 193.018 46.8062 193.372 46.4895L194.125 46.1349L194.445 45.7038C194.678 45.6096 194.913 45.5833 195.149 45.625C195.438 45.6759 195.739 45.8103 196.053 46.028C196.164 46.3184 196.173 46.7262 196.081 47.2515ZM208.913 26.8498C208.858 27.165 208.597 27.4168 208.13 27.6053L208.116 27.6841C207.511 28.2001 207.017 28.4651 206.636 28.4791L205.92 29.084L205.435 29.5266L204.488 29.6032L203.997 30.0852L203.311 30.2892L202.127 31.0147L201.601 30.3127L201.893 29.3487L202.451 28.716C202.542 28.353 202.808 28.0749 203.248 27.8817L203.276 27.7242L203.54 27.6083L203.683 27.0243L204.341 26.9779L204.404 26.6234L204.891 26.6279C205.088 26.1212 205.379 25.7798 205.762 25.6036L205.894 25.5457L206.172 25.351L206.654 24.4612C208.313 25.187 209.066 25.9832 208.913 26.8498ZM209.25 48.4362C209.143 49.0403 208.971 49.4025 208.733 49.523L208.508 49.6459L208.214 50.1626L207.549 50.2485C207.291 50.6362 206.958 50.9159 206.548 51.0874L206.173 51.1431L205.564 51.6043L205.07 51.6391C204.803 52.0794 204.378 52.2617 203.796 52.1861C203.729 52.2557 203.583 52.3924 203.358 52.5963C202.918 52.7895 202.483 52.8753 202.053 52.8537L201.849 52.8584L201.511 53.1643L200.723 53.0254L200.01 53.3869L198.603 51.9204L198.125 50.2521L198.426 48.3149L198.352 47.8144L199.436 44.4313L199.622 44.3015C199.612 43.8937 199.64 43.5059 199.705 43.1383C199.746 42.9019 199.911 42.43 200.198 41.7224L200.555 40.8511C200.53 40.6843 200.455 40.4951 200.33 40.2835L200.698 39.5767L200.937 38.6846L201.036 38.5803C200.973 38.3254 200.954 38.0512 200.978 37.7577C201.014 37.7098 201.052 37.6488 201.092 37.5746C201.137 37.4742 201.164 37.3977 201.173 37.3452C201.136 37.095 201.136 36.8648 201.173 36.6547C201.284 36.0244 201.69 35.7981 202.389 35.9756L202.855 36.0984C203.198 35.9964 203.409 35.9523 203.488 35.9662C204.013 36.0588 204.316 36.4102 204.398 37.0204L204.371 37.1779C204.42 37.5116 204.419 37.8229 204.368 38.1118C204.327 38.3481 204.27 38.5142 204.199 38.61L203.576 40.531L203.755 41.1311C203.672 41.6038 203.44 41.9962 203.06 42.3083L203.134 42.8088L202.358 44.2154C202.19 44.8626 202.036 45.35 201.897 45.6776L201.723 46.6624L201.39 47.1722L201.36 47.573L201.121 48.4652L201.075 49.1881L201.583 49.765L202.069 49.7696L202.169 49.6653L202.477 49.7603L203.017 49.693L203.527 49.3361L203.726 49.1275L204.009 49.1367L204.122 48.9537L204.268 48.8169L204.477 49.0162L204.94 48.6917L205.169 48.7728L205.297 48.5109L205.376 48.5248L205.549 48.2305L205.932 48.1355L206.743 47.9129C207.421 47.5992 208.049 47.4933 208.626 47.5952L208.784 47.623C209.04 47.8578 209.196 48.1288 209.25 48.4362ZM229.69 55.0868C229.63 55.4282 229.508 55.6638 229.322 55.7935L228.361 56.6394L228.013 57.228L227.309 57.3069L227.049 57.6267L225.983 57.6825L225.196 57.5436L223.694 57.0757L223.061 57.2079L222.355 56.8395L221.256 56.849L221.036 56.4852L220.707 56.5084C220.435 56.5146 220.129 56.4876 219.787 56.4274L219.06 56.1773L217.774 55.8693L216.775 55.7744C216.335 55.5073 215.97 55.3482 215.681 55.2973C215.471 55.2602 215.032 55.2912 214.365 55.3901L213.554 54.9222C213.471 54.9345 213.324 54.9222 213.114 54.8852C212.877 54.8435 212.716 54.7609 212.629 54.6373L211.881 55.1958L211.262 55.2492C211.029 55.3435 210.798 55.4246 210.57 55.4926C210.367 55.5652 210.196 55.6162 210.055 55.6456L209.226 55.0525L208.95 54.3134L209.135 53.4931L209.501 53.0296L210.083 52.726L210.388 52.3738L211.07 51.9659L211.524 51.9241L211.795 51.7688L212.344 51.4188L212.397 51.347L212.497 51.2427L212.589 51.1778C212.62 51.1562 212.638 51.1322 212.643 51.106C212.674 51.0843 212.72 51.0519 212.782 51.0086L213.039 50.9321L214.387 50.1951L214.54 50.019C215.066 49.6512 215.449 49.4751 215.69 49.4905L215.935 49.2495L216.056 49.027L216.612 48.6377L216.964 48.253L217.49 48.2645L217.863 47.7616C218.056 47.7415 218.179 47.655 218.234 47.502C218.552 47.2332 218.862 47.0849 219.165 47.057L219.239 46.867L219.892 46.6167L220.669 45.9006L220.972 45.7916C220.841 45.7685 220.733 45.7631 220.65 45.7754L222.124 45.0199L222.443 44.5888L222.972 44.357L223.776 43.4834L224.436 43.1936L224.596 42.9781L223.887 42.8531L223.347 42.9204L222.659 42.6772L221.994 42.763L221.634 42.4966L220.423 42.689C220.126 42.5284 219.754 42.4088 219.308 42.33C218.967 42.2698 218.618 42.249 218.263 42.2676L217.864 41.9943L217.016 41.9666L216.722 41.7928L215.978 41.8648L214.687 41.3529L213.649 41.251L213.093 40.9499L212.025 40.5585L211.202 40.6165L210.702 40.0002L210.576 38.6377L211.36 37.8822L211.779 38.0374L212.076 37.9679L212.838 38.0211L213.394 38.3222L213.985 38.4264L214.37 38.7786L215.394 38.9592L215.878 39.207L216.615 39.1745L217.139 39.4293C217.306 39.4046 217.481 39.4084 217.665 39.4408C217.822 39.4686 217.975 39.5226 218.124 39.6029L218.098 39.5172L218.754 39.7141L220.526 40.0266L222.871 40.3183L223.094 40.4387L223.516 40.3506L224.343 40.4965L225.817 40.4314L226.546 40.4383L227.123 40.6212L227.999 40.4913L228.662 40.6488C228.85 40.655 229.01 40.6696 229.142 40.6928C229.278 40.6897 229.385 40.6951 229.464 40.709C230.357 40.8664 230.736 41.5561 230.602 42.778L229.823 43.0469L229.36 43.3714L228.734 43.4641L227.272 44.3842L226.983 44.4144L225.975 45.2927C225.505 45.3453 225.083 45.5145 224.707 45.8004L224.459 46.2847L223.732 46.725L222.796 47.6567L222.289 47.7703L220.294 49.4088L219.661 49.5409L219.077 50.0879L218.827 50.125C218.673 50.2331 218.503 50.3521 218.317 50.4819C218.158 50.6163 217.975 50.7329 217.768 50.8318L217.31 51.3602L216.325 51.8771L215.47 52.5793L214.881 52.9223L214.821 53.0335L216.188 53.1121L216.61 53.024L217.609 53.1189L217.968 53.3853L220.005 53.582L221.84 54.2305C222.112 54.2243 222.274 54.2258 222.327 54.2351C222.484 54.2629 222.635 54.33 222.778 54.4366L223.385 54.2187L224.157 54.6797L224.776 54.6263L225.543 54.8834L225.858 54.939C225.981 54.8525 226.195 54.7953 226.497 54.7674C226.723 54.5635 226.919 54.4492 227.086 54.4244L227.299 54.1371L227.392 54.0722L227.44 53.7964L228.191 52.9946L229.273 53.3073C229.635 54.0209 229.774 54.6141 229.69 55.0868ZM245.274 57.3878C245.219 57.7029 244.913 58.0552 244.357 58.4446C244.151 58.8416 243.894 59.1483 243.585 59.3646L243.342 59.3623L242.777 60.0343L242.047 60.0275L241.215 60.3682L240.696 61.0078L240.277 60.8526C239.965 60.933 239.714 60.9701 239.526 60.964L239.227 61.2768C239.153 61.2367 239.037 61.2027 238.879 61.1749C238.538 61.1147 238.168 61.2932 237.77 61.7103L237.301 61.1404C237.192 61.1481 237.032 61.1335 236.822 61.0964C236.48 61.0362 236.201 60.9327 235.983 60.786L235.313 60.6679L235.033 60.4154C234.063 60.0819 233.5 59.59 233.344 58.9396L233.364 58.8215L232.933 58.5018L232.815 57.7904L232.398 57.3919L232.502 56.801L232.335 54.9844L232.664 53.5802L232.933 52.9777L233.078 52.1505L233.387 51.5549L233.396 51.2722L233.755 50.8481L233.662 50.913C233.704 50.6767 233.813 50.4388 233.991 50.1993L234.026 50.0023L234.074 49.0361C234.153 48.5896 234.419 48.2304 234.874 47.9585C234.909 47.9106 234.936 47.8341 234.955 47.7291C234.973 47.6241 234.958 47.4047 234.908 47.071C234.89 46.7157 234.892 46.4724 234.915 46.3411C234.971 46.026 235.107 45.7116 235.325 45.398C235.48 45.7502 235.754 45.961 236.148 46.0305L236.266 46.0513C236.337 45.9555 236.476 45.8582 236.683 45.7593C237.009 45.1398 237.395 44.6392 237.841 44.2576L238.027 44.1278C238.045 44.0228 238.177 43.7347 238.423 43.2635L238.738 43.3191L238.851 43.136L239.18 43.1128C239.349 42.9258 239.448 42.8215 239.479 42.7999C239.541 42.7567 239.86 42.6369 240.436 42.4406C240.574 42.2753 240.761 42.1324 240.999 42.0119C241.114 41.9779 241.254 41.9485 241.421 41.9238L241.62 41.7152C242.371 41.6039 242.838 41.5644 243.022 41.5968C243.232 41.6339 243.42 41.7211 243.585 41.8586L243.789 41.8539L244.037 42.0601C244.311 42.352 244.591 42.6046 244.878 42.8177L245.458 43.4479L245.43 43.6055C245.951 44.1847 246.134 44.9076 245.982 45.7742L245.794 46.1473L245.683 47.4681L245.287 47.6419L244.712 48.5967L243.818 49.2919L243.667 49.9153C242.721 50.3711 241.86 50.7203 241.086 50.963C240.785 51.289 240.385 51.408 239.886 51.32L239.768 51.2991L238.936 51.6399L238.306 51.5287L237.291 51.756L236.644 51.2764L236.566 51.2625C236.476 51.4633 236.368 51.7692 236.241 52.1801L235.884 52.3609L235.762 52.8267L235.407 53.4547C235.375 54.0989 235.343 54.5129 235.31 54.6967L235.132 54.7871C235.072 55.1285 235.014 55.3756 234.96 55.5286C234.956 55.5548 234.936 55.5919 234.9 55.6398C234.891 55.6923 234.884 55.7317 234.879 55.758C234.842 55.9681 234.917 56.1573 235.104 56.3257C235.127 56.6547 235.224 56.8748 235.394 56.986L235.628 57.271L236.453 57.6601L236.432 57.7783L236.733 57.9127L238.059 58.2276L238.867 58.2484L239.31 58.0421L239.56 58.005L240.058 57.4835L240.262 57.4789L241.303 57.3374C241.44 57.1721 241.639 57.0446 241.898 56.955L242.051 56.7789C242.595 56.7664 242.945 56.5439 243.103 56.1114C243.535 55.8085 244.041 55.7081 244.618 55.8099L244.776 55.8377C245.173 56.5034 245.339 57.0201 245.274 57.3878ZM243.375 45.3552C243.389 45.2764 243.377 45.1119 243.34 44.8616L243.15 44.7875L243.064 44.813C243.038 44.8084 242.985 44.7991 242.907 44.7852C242.85 44.8022 242.795 44.8061 242.742 44.7968C242.716 44.7922 242.679 44.7721 242.631 44.7366C242.578 44.7273 242.539 44.7204 242.513 44.7158L242.07 44.9221L241.709 44.8989L241.498 44.943L240.675 45.6915L240.187 45.9303L239.362 46.9221L238.966 47.096C238.808 47.5285 238.557 47.8769 238.213 48.1411L238.006 48.3891C238.328 48.2562 238.672 48.2221 239.04 48.287L239.336 48.2174L239.517 47.8837L240.062 48.0203L240.46 47.6032L240.697 47.6449L241.102 47.8789L241.403 47.3227L241.679 47.3713L241.755 46.938L242.288 46.9101L242.427 46.8128L242.569 46.4721L243.213 45.814C243.288 45.6919 243.342 45.539 243.375 45.3552ZM268.617 37.3772C268.562 37.6924 268.301 37.9442 267.834 38.1327L267.82 38.2115C267.215 38.7276 266.721 38.9926 266.34 39.0065L265.624 39.6114L265.139 40.054L264.192 40.1306L263.701 40.6127L263.015 40.8167L261.831 41.5421L261.305 40.8401L261.597 39.8761L262.155 39.2434C262.246 38.8804 262.512 38.6023 262.952 38.4092L262.98 38.2516L263.244 38.1357L263.387 37.5518L264.045 37.5053L264.108 37.1508L264.595 37.1554C264.792 36.6487 265.083 36.3072 265.466 36.1311L265.598 36.0731L265.876 35.8784L266.358 34.9886C268.017 35.7144 268.77 36.5106 268.617 37.3772ZM268.954 58.9637C268.847 59.5677 268.675 59.9299 268.437 60.0505L268.212 60.1733L267.918 60.6901L267.253 60.7759C266.995 61.1637 266.662 61.4433 266.252 61.6148L265.877 61.6705L265.268 62.1317L264.774 62.1665C264.507 62.6068 264.082 62.7892 263.5 62.7135C263.433 62.7831 263.287 62.9198 263.062 63.1237C262.622 63.3169 262.187 63.4027 261.757 63.3811L261.553 63.3858L261.215 63.6917L260.427 63.5528L259.714 63.9144L258.307 62.4478L257.829 60.7795L258.13 58.8424L258.056 58.3419L259.14 54.9587L259.325 54.8289C259.316 54.4211 259.344 54.0334 259.409 53.6657C259.45 53.4293 259.615 52.9574 259.902 52.2499L260.259 51.3786C260.234 51.2117 260.159 51.0225 260.034 50.8109L260.402 50.1041L260.641 49.212L260.74 49.1077C260.677 48.8528 260.658 48.5786 260.682 48.2851C260.718 48.2372 260.756 48.1762 260.796 48.1021C260.841 48.0016 260.868 47.9252 260.877 47.8726C260.84 47.6224 260.84 47.3922 260.877 47.1821C260.988 46.5519 261.394 46.3255 262.093 46.503L262.559 46.6258C262.902 46.5238 263.113 46.4797 263.192 46.4936C263.717 46.5862 264.02 46.9376 264.102 47.5478L264.075 47.7054C264.124 48.039 264.123 48.3503 264.072 48.6392C264.031 48.8755 263.974 49.0416 263.903 49.1374L263.28 51.0584L263.459 51.6585C263.375 52.1312 263.144 52.5236 262.764 52.8357L262.838 53.3362L262.062 54.7428C261.894 55.3901 261.74 55.8775 261.601 56.205L261.427 57.1898L261.094 57.6996L261.064 58.1005L260.825 58.9926L260.779 59.7155L261.287 60.2924L261.773 60.297L261.873 60.1927L262.181 60.2877L262.721 60.2204L263.231 59.8635L263.43 59.6549L263.713 59.6642L263.826 59.4811L263.972 59.3444L264.181 59.5436L264.644 59.2191L264.873 59.3002L265.001 59.0384L265.08 59.0522L265.253 58.7579L265.636 58.6629L266.447 58.4403C267.125 58.1267 267.753 58.0208 268.33 58.1226L268.488 58.1504C268.744 58.3852 268.9 58.6563 268.954 58.9637ZM296.369 63.1478C296.332 63.3579 296.112 63.6035 295.711 63.8847L295.159 64.478L294.863 65.238L294.487 65.2937L294.367 65.5162C293.924 65.5734 293.564 65.8484 293.287 66.3412C292.934 66.6579 292.572 66.865 292.203 66.9624C292.049 67.0705 291.914 67.1416 291.8 67.1756L291.54 67.4954L291.172 67.5117L290.051 67.8826L288.683 67.804L288.343 67.6627L287.731 67.6767L287.543 67.3592C287.208 67.1106 286.978 66.8804 286.853 66.6688C286.551 66.5345 286.359 66.2433 286.276 65.7954C285.922 65.1914 285.773 64.7319 285.828 64.4167L285.849 64.2985L285.657 63.7772L285.592 63.6845L285.48 62.9338L285.258 62.1228L285.496 61.2307L285.193 60.6491L285.199 57.1572C285.199 56.6969 285.227 56.3091 285.283 55.994L285.238 55.7831L285.09 55.4727L284.652 55.8829L282.97 57.1297L282.312 57.8667L281.939 58.3695L281.395 58.9234L281.024 59.183L281.029 59.3869L280.262 60.5108L279.877 60.8492L279.47 60.8585L279.052 61.1505C278.96 61.6757 278.65 61.9731 278.123 62.0427L278.031 62.1076C277.693 62.6437 277.367 62.9519 277.055 63.0323L276.604 63.5213C275.933 63.9446 275.495 64.2058 275.288 64.3046C275.162 64.5534 274.979 64.7511 274.736 64.8979C274.67 64.9674 274.559 65.0563 274.405 65.1644C274.247 65.597 273.824 65.8473 273.135 65.9154L272.681 65.9571C272.16 65.8383 271.78 65.4598 271.541 64.8219L271.124 63.7329L271.487 62.8222L271.499 62.2962L271.591 62.2313L271.721 61.7262L271.455 60.7043L271.853 60.2872L271.786 59.7473L272.159 59.2445L272.397 58.3523L272.267 58.167L272.68 57.671L272.61 57.3745L272.682 56.7372L273.048 55.5833C273.042 55.3114 273.046 55.136 273.059 55.0573C273.069 55.0047 273.091 54.9545 273.127 54.9066C273.141 54.8279 273.15 54.7753 273.154 54.7491L273.013 54.3992L273.354 53.1595L273.391 52.7192L273.62 52.1098L273.65 51.0184L274.567 49.9617C275.358 50.2365 275.89 50.5199 276.164 50.8118C276.442 51.0775 276.53 51.4992 276.428 52.077L276.366 52.4315L276.558 52.9528L276.294 53.7592L276.174 55.3627L275.766 56.0625L275.738 56.9106L275.62 57.5803L275.229 57.958L275.34 58.7088L275.027 59.1004L274.912 59.5268L275.071 60.0018L274.61 60.7734L274.43 61.1071L274.367 61.4616L274.495 61.8903L275.283 61.3387C275.352 60.9448 275.53 60.7053 275.815 60.6203C275.888 60.3623 276.028 60.1839 276.235 60.085L276.137 59.946L276.733 59.5636L276.879 59.4269L276.941 59.0723L277.655 58.7107L277.882 58.3446L278.278 58.1708L280.12 56.7084C279.961 56.8428 279.442 57.2522 278.563 57.9367L278.549 58.0155L278.677 57.7536L279.293 57.253L279.766 56.6459L279.835 56.252L280.461 56.1592L280.63 55.661L280.815 55.5312L280.889 55.3412L280.938 55.0654L281.586 54.6112C281.596 54.5587 281.607 54.493 281.621 54.4142C281.609 54.3308 281.605 54.276 281.61 54.2497C281.693 53.777 282.002 53.5607 282.536 53.6008C282.856 53.1697 283.259 52.9565 283.746 52.9611L284.045 52.6482L284.137 52.5833C284.434 52.2836 284.83 52.1098 285.326 52.0618L285.757 51.691L286.702 51.8577L287.078 52.4926L287.469 52.8053L287.488 52.9304L287.75 53.0578L287.683 53.899L288.283 54.411L287.854 55.229L288.121 56.2508L287.927 57.3538L287.978 58.9063L287.806 60.3383L288.015 61.228L288.071 62.2939C288.201 62.4793 288.28 62.7233 288.307 63.0261L288.982 63.3481L288.843 64.1359L289.16 64.6387L289.139 64.7569L289.29 64.8241L289.406 65.0882L289.598 64.919C289.546 64.9098 289.609 64.9345 289.788 64.9931C290.077 65.0441 290.425 64.8347 290.833 64.365L291.327 64.3302L291.48 64.1541C291.596 63.9579 291.781 63.8281 292.036 63.7647L292.305 63.8528L292.49 63.723L292.564 63.533L292.71 63.3962C293.005 63.2587 293.224 63.013 293.368 62.6593L293.885 62.263L294.026 61.9223L294.413 61.3407L295.21 61.1969L296.211 61.739L296.364 62.9439C296.359 62.9701 296.368 62.9987 296.39 63.0296C296.38 63.0821 296.373 63.1215 296.369 63.1478ZM98.6731 69.1901L98.1888 69.6327L98.3373 70.6337L97.721 71.1343L97.3782 71.9268L97.2253 72.1029L97.2693 72.3138C97.2045 72.6814 97.064 72.941 96.8477 73.0924L96.7481 73.1967L96.7203 73.3543C96.7667 73.552 96.776 73.7296 96.7482 73.8872C96.725 74.0185 96.6957 74.1081 96.6602 74.156L96.6718 74.3205L96.4378 74.726L96.4726 75.2196L96.1019 75.4792L96.1229 76.0515L96.3106 76.3689L95.9005 76.6215L95.7894 77.2518L95.4025 77.8335L95.4883 78.4985L95.1964 78.7719L95.5417 79.1171L94.8304 79.9259L94.7702 80.0372L95.1502 80.1854L94.7147 81.0428L94.6869 81.2004C94.6545 81.3842 94.6159 81.5263 94.5711 81.6267L94.5897 81.7519L95.2061 81.9418L95.5793 82.8199L95.1993 83.3622L95.6396 83.3992C95.7416 83.7421 95.7849 84.0341 95.7695 84.2751L95.0744 84.7618C94.8582 84.9132 94.5631 85.0507 94.1893 85.1743L93.4571 85.4108L93.2949 85.1791L92.8593 85.346L91.8882 83.7125L92.0063 83.0429C91.9413 82.4898 91.9482 81.9901 92.0269 81.5437L92.0686 81.3073L92.242 78.9415L92.8489 77.3426L92.7793 76.3555L91.9151 77.3404L91.38 78.3021L91.0371 78.4041L90.3328 79.1735L89.1882 79.9059L88.8291 80.3299L87.8305 80.9256L87.5432 81.403L86.1438 81.9685L84.5405 83.2293L83.7642 83.2549L83.1827 83.5585C82.5308 83.4165 82.0758 83.079 81.8177 82.5461C80.7379 81.76 80.2666 80.8239 80.4039 79.7379L80.6217 79.6545L80.624 79.4112L80.6679 78.9315L80.5219 78.3777L80.8555 77.8679L81.0801 77.0546L81.5851 75.8033C81.5897 75.777 81.599 75.7245 81.6129 75.6457C81.5959 75.5885 81.592 75.5337 81.6013 75.4812C81.6198 75.3761 81.6692 75.2495 81.7495 75.1011C81.7325 75.044 81.7379 74.9366 81.7657 74.7791C81.7981 74.5952 81.9301 74.3071 82.1618 73.9147L82.4584 73.8452C82.324 73.6861 82.2707 73.5277 82.2984 73.3702C82.317 73.2651 82.344 73.1886 82.3795 73.1408C82.3671 73.0573 82.3702 72.9631 82.3887 72.8581C82.4443 72.5429 82.6435 72.3344 82.9865 72.2324C83.1116 71.9836 83.3023 71.7465 83.5587 71.5209L83.4173 71.171L83.9942 70.6635L84.022 70.5059C84.11 70.007 84.3617 69.5775 84.7772 69.2175L84.8628 68.5015L85.0482 68.3717C85.0528 68.3455 85.0598 68.3061 85.069 68.2535C85.052 68.1964 85.0458 68.1547 85.0505 68.1284C85.0782 67.9708 85.1539 67.8488 85.2775 67.7623L85.3192 67.5259C85.4705 67.2818 85.8157 66.9365 86.3548 66.49C86.8938 66.0435 87.3031 65.6418 87.5827 65.2849L87.7449 65.5166L88.213 65.3961L88.4238 65.352L89.828 64.9903L92.8334 65.6828L92.7848 65.9585L93.6955 66.3222C94.2995 66.4287 94.6587 66.6951 94.773 67.1214C94.7869 67.0426 94.8163 66.953 94.861 66.8526C94.8749 66.7738 94.8842 66.7213 94.8888 66.6951L95.5841 67.5894L96.3048 67.8789L97.7854 67.7744L98.1239 68.8495L98.6731 69.1901ZM94.5696 70.5786L94.4607 70.2751L94.1594 70.1407L93.1119 68.9406L92.3449 68.6835L91.7146 68.5724L91.6497 68.4797L91.3137 68.5423L90.9939 68.2828L89.9697 68.1022L90.0601 68.2806L89.0985 68.436L88.9062 68.6052L88.7811 68.6238C88.239 68.9343 87.8528 69.2047 87.6227 69.4349L87.1802 70.3317L86.9601 70.6585L87.2568 71.2794L86.4969 71.6734L86.5479 71.8449C86.171 72.2929 85.9409 72.7533 85.8575 73.226L85.4729 73.5644L85.3479 74.2734L84.9703 74.5724L84.829 74.913L84.6969 74.971L84.5997 75.5225L84.4467 75.6986C84.3912 76.0137 84.3209 76.2586 84.236 76.4332L84.28 76.644L83.7935 77.3299L83.9094 77.5941L83.5642 77.9394L83.708 78.7365L83.1774 79.2115L83.1243 79.9739L83.1034 80.0921L83.2471 80.1986L83.451 80.194C83.6055 80.0858 83.7576 79.9908 83.9074 79.9089L83.8842 79.5799L84.4496 79.5983L84.6164 79.3434L87.274 77.8624L87.5242 77.8253L87.918 77.2042C88.0849 77.1795 88.3266 77.1138 88.6433 77.0072L88.9908 76.4186L89.3059 76.4742L89.3058 75.7836L89.8712 75.8021C89.9422 75.7063 90.0442 75.5889 90.177 75.4499C90.3361 75.3154 90.4929 75.1942 90.6473 75.086L93.1287 72.7616L93.548 72.2262L93.5364 72.0617L93.8885 71.677L94.0437 71.2576L94.4538 71.005L94.5696 70.5786ZM132.369 67.3331C132.276 67.8583 131.868 68.328 131.145 68.742L130.865 68.4895L130.172 68.7329L129.655 67.0577C129.672 66.6545 129.625 66.3077 129.514 66.0173L129.257 66.0938L128.649 65.6212L128.42 65.5401L127.852 65.765L127.067 65.3828L126.77 65.4523C126.488 65.6733 126.228 65.7629 125.992 65.7212C125.887 65.7027 125.797 65.6734 125.723 65.6332L125.653 66.0271C125.317 66.401 124.898 66.8552 124.398 67.3898C124.325 67.6478 124.148 68.1174 123.865 68.7987L123.469 68.9725L123.235 69.378L122.975 69.6978L123.033 70.5204L122.436 71.1461L122.174 71.7092L121.961 71.9966L121.903 72.555L121.101 73.8759L121.062 74.5595C121.017 74.6599 120.795 74.9998 120.395 75.5791L120.328 75.7297C120.609 75.671 120.844 75.6447 121.032 75.6508L121.262 75.7319C121.319 75.7149 121.444 75.6964 121.637 75.6762L121.755 75.6971C121.755 75.6971 122.197 75.8021 123.081 76.012L123.213 75.9541C123.537 75.9571 123.725 75.9633 123.778 75.9725C124.041 76.0189 124.318 76.1354 124.61 76.3223C124.939 76.2991 125.222 76.3083 125.458 76.35C125.668 76.387 125.845 76.4589 125.989 76.5654L126.343 76.6279L126.834 76.8364C127.775 77.0294 128.181 77.4935 128.051 78.2288C128.014 78.4389 127.931 78.6815 127.801 78.9565L125.938 79.156L124.942 78.8178C124.639 78.8457 124.137 78.8519 123.435 78.8366L123.273 78.6049C123.057 78.7563 122.791 78.8042 122.476 78.7487L122.043 78.6723L120.85 78.9899L120.347 78.6169L120.15 78.5821C119.893 78.8077 119.601 78.9321 119.272 78.9553L119.269 79.1986L119.014 79.7223L119.133 80.4337L118.44 81.3676L118.28 82.9641L117.986 83.4809L118.007 84.0532L117.46 84.8504L117.495 85.3439C117.517 85.3748 117.518 85.4428 117.5 85.5478C117.495 85.5741 117.392 85.8537 117.189 86.3867C116.992 86.8934 116.847 87.4094 116.754 87.9346L116.692 88.2891C116.713 88.32 116.828 88.5162 117.035 88.8776L116.641 89.4987L116.778 90.3351L116.469 90.9307L116.562 92.9373L116.306 95.0853L116.797 95.9843L116.29 96.7884C116.507 97.3955 116.586 97.8697 116.526 98.2111L116.505 98.3293C116.496 98.3818 116.498 98.4498 116.51 98.5332C116.491 98.6383 116.48 98.7039 116.475 98.7302C116.299 99.7281 115.629 100.151 114.464 100L114.26 99.3144L113.836 98.9553L113.882 98.2323L113.483 95.8875L113.56 95.4541C113.538 94.9629 113.534 94.6779 113.548 94.5991C113.571 94.4678 113.601 94.3782 113.636 94.3303L113.636 93.6398L113.872 92.991L113.83 92.5368L113.983 91.6702L114.027 89.119L114.12 89.0541L114.117 88.6069L114.293 88.0693L114.108 87.5086L114.421 87.117L114.782 85.0686L115.02 84.8669L115.27 83.4488L115.444 83.1545L115.541 81.9125L115.782 81.4676C115.914 81.0304 116.247 80.0603 116.783 78.5571L116.625 78.5293L116.141 78.2815L115.55 78.1773L114.419 78.1404L113.777 77.8647L112.593 77.8996L112.213 77.7514C112.077 77.7545 111.918 77.7399 111.734 77.7074C110.671 76.9785 110.125 76.4626 110.098 76.1598L110.019 75.4554C110.541 74.4914 111.104 74.0627 111.708 74.1692C111.734 74.1738 112.164 74.3444 112.998 74.6811L115.269 75.1627L116.414 75.1209L117.352 75.327L117.7 75.4289L117.908 74.9376L118.189 73.8091L118.469 73.3711L118.49 72.5625C118.541 72.2736 118.69 72.0426 118.937 71.8696L118.974 71.4293L119.491 71.033L119.896 69.886L120.088 69.7168L120.06 69.1838C120.44 68.8718 120.651 68.5975 120.693 68.3612C120.694 68.199 120.695 68.1179 120.695 68.1179C120.658 68.328 120.961 67.7587 121.605 66.41L121.916 66.2617L122.108 65.402L122.152 65.6128L122.173 65.4947C122.252 65.0482 122.493 64.7524 122.898 64.6071L123.197 64.2942L123.871 63.2352L123.95 63.2491C124.239 63.3001 124.413 63.1548 124.474 62.8134L124.501 62.6559L125.674 62.4564L125.989 62.512C126.349 62.4671 126.713 62.4771 127.08 62.542L127.356 62.5906L127.567 62.5465L128.468 62.5024L129.451 62.9193C129.499 62.9548 129.597 63.0128 129.745 63.0931C130.026 63.0343 130.219 63.0142 130.324 63.0327C130.692 63.0976 130.985 63.4335 131.203 64.0406L131.685 64.5317L131.94 65.389L132.426 66.0841L132.39 67.2149L132.369 67.3331ZM139.708 89.5449C139.652 89.86 139.346 90.2123 138.79 90.6016C138.585 90.9987 138.328 91.3053 138.019 91.5216L137.775 91.5193L137.21 92.1914L136.48 92.1845L135.648 92.5253L135.129 93.1649L134.71 93.0097C134.398 93.0901 134.148 93.1272 133.959 93.121L133.66 93.4339C133.586 93.3937 133.47 93.3598 133.313 93.332C132.971 93.2718 132.601 93.4502 132.203 93.8674L131.735 93.2974C131.625 93.3052 131.465 93.2905 131.255 93.2535C130.914 93.1933 130.634 93.0898 130.416 92.9431L129.747 92.825L129.466 92.5725C128.496 92.239 127.933 91.747 127.777 91.0967L127.798 90.9785L127.367 90.6588L127.248 89.9475L126.831 89.549L126.935 88.9581L126.768 87.1415L127.097 85.7373L127.366 85.1348L127.512 84.3075L127.82 83.712L127.829 83.4293L128.188 83.0052L128.095 83.0701C128.137 82.8337 128.247 82.5958 128.424 82.3564L128.459 82.1594L128.508 81.1932C128.586 80.7467 128.853 80.3875 129.307 80.1156C129.342 80.0677 129.369 79.9912 129.388 79.8862C129.406 79.7811 129.391 79.5618 129.342 79.2281C129.323 78.8728 129.325 78.6295 129.348 78.4982C129.404 78.1831 129.541 77.8687 129.758 77.5551C129.913 77.9073 130.187 78.1181 130.581 78.1875L130.699 78.2084C130.77 78.1126 130.909 78.0153 131.116 77.9164C131.442 77.2969 131.828 76.7963 132.275 76.4147L132.46 76.2849C132.479 76.1799 132.611 75.8917 132.856 75.4206L133.171 75.4761L133.285 75.2931L133.614 75.2698C133.782 75.0829 133.882 74.9786 133.913 74.957C133.974 74.9137 134.293 74.794 134.87 74.5977C135.007 74.4324 135.195 74.2895 135.433 74.1689C135.547 74.1349 135.687 74.1056 135.854 74.0808L136.054 73.8723C136.804 73.7609 137.272 73.7215 137.455 73.7539C137.665 73.7909 137.853 73.8782 138.018 74.0157L138.222 74.011L138.47 74.2172C138.744 74.5091 139.024 74.7616 139.312 74.9748L139.891 75.605L139.863 75.7625C140.384 76.3417 140.568 77.0647 140.415 77.9313L140.227 78.3044L140.116 79.6252L139.72 79.799L139.146 80.7537L138.251 81.449L138.101 82.0723C137.154 82.5282 136.293 82.8774 135.52 83.12C135.218 83.446 134.818 83.565 134.319 83.477L134.201 83.4562L133.369 83.7969L132.739 83.6858L131.724 83.913L131.078 83.4335L130.999 83.4196C130.909 83.6204 130.801 83.9263 130.675 84.3372L130.318 84.518L130.195 84.9838L129.841 85.6118C129.808 86.2559 129.776 86.6699 129.743 86.8538L129.565 86.9441C129.505 87.2855 129.448 87.5327 129.394 87.6857C129.389 87.7119 129.369 87.749 129.333 87.7969C129.324 87.8494 129.317 87.8888 129.313 87.9151C129.276 88.1252 129.351 88.3144 129.537 88.4827C129.561 88.8118 129.657 89.0319 129.827 89.1431L130.061 89.428L130.886 89.8172L130.865 89.9354L131.167 90.0697L132.492 90.3847L133.301 90.4054L133.743 90.1991L133.994 90.162L134.492 89.6406L134.696 89.6359L135.736 89.4945C135.873 89.3291 136.072 89.2017 136.331 89.112L136.484 88.9359C137.028 88.9235 137.379 88.701 137.536 88.2684C137.969 87.9656 138.474 87.8651 139.052 87.967L139.209 87.9948C139.606 88.6605 139.772 89.1772 139.708 89.5449ZM137.808 77.5122C137.822 77.4335 137.81 77.2689 137.773 77.0187L137.583 76.9446L137.498 76.9701C137.471 76.9654 137.419 76.9562 137.34 76.9423C137.283 76.9593 137.228 76.9632 137.175 76.9539C137.149 76.9493 137.112 76.9292 137.064 76.8937C137.012 76.8844 136.972 76.8775 136.946 76.8728L136.504 77.0791L136.142 77.056L135.931 77.1001L135.109 77.8486L134.62 78.0873L133.795 79.0792L133.399 79.253C133.241 79.6856 132.99 80.034 132.646 80.2982L132.44 80.5461C132.761 80.4132 133.105 80.3792 133.473 80.444L133.77 80.3745L133.95 80.0408L134.495 80.1774L134.893 79.7603L135.13 79.802L135.535 80.0359L135.837 79.4798L136.112 79.5284L136.189 79.0951L136.722 79.0672L136.861 78.9699L137.002 78.6292L137.646 77.9711C137.722 77.849 137.776 77.6961 137.808 77.5122ZM169.359 81.6946L169.03 82.4083L169.04 82.8161L168.296 84.2691L168.12 84.8067L167.464 85.3003L167.135 86.014L166.591 86.5679L165.718 87.8355L164.747 88.9641L163.306 90.4565L163.019 90.9339L162.24 91.8933L161.327 93.154L159.771 95.0728L159.367 95.9765L158.577 96.7714L157.465 96.1691L156.865 95.6571L156.561 93.6945L156.009 92.2163L156.079 91.8223L155.801 90.636L155.645 90.3649L154.602 86.6067L154.236 85.6891L153.685 86.2824L152.964 86.6834L151.836 87.7842L151.087 88.3427L150.552 89.3044L149.498 90.2152L149.357 90.5558L148.55 91.6728L148.446 92.2637L147.955 92.7457L147.818 93.2902L147.404 93.339L146.377 94.0922L146.549 94.0412C146.258 94.1524 145.885 94.195 145.43 94.1688L145.209 93.805L144.66 93.4645L144.737 93.0311L144.556 92.6743L144.507 91.5691L144.317 90.8044L144.407 90.2923L144.396 90.1278L144.103 88.3298L144.133 87.2384L143.816 86.7356L143.985 86.2374L143.758 85.2225L143.82 84.868L143.658 83.9458L143.238 83.1001L143.47 82.2474L143.479 81.9647L143.227 80.8641L143.259 80.2199L143.092 79.7843C142.981 79.4939 142.909 79.2104 142.876 78.9339L142.505 77.122L143.182 76.5102C143.39 76.2491 143.751 76.1231 144.264 76.1323L145.112 76.16L145.318 76.6026L145.789 76.9292L146.018 77.7008L146.285 78.0321L146.055 78.6415L146.144 79.0632L145.963 79.3969L146.246 80.0967L146.063 80.6737L146.262 82.5366L146.107 82.956L146.156 84.0613L146.485 85.4191L146.457 86.9577L146.768 87.4999L146.601 88.4453L146.731 89.3211L146.715 89.6432L147.329 89.3859L148.492 88.0882L148.886 87.4671L149.298 86.9712C149.345 86.7086 149.432 86.5209 149.56 86.4081L149.796 86.4498L150.04 85.7615L150.487 85.7592C150.576 85.5583 150.722 85.4216 150.925 85.349L150.939 85.2702C150.966 85.1126 151.073 84.9689 151.258 84.8392L151.228 84.5495L151.439 84.5055L151.441 84.2622C151.752 83.8837 152.07 83.6148 152.396 83.4557L152.535 82.6678L153.142 82.4499L153.32 82.3595L153.413 82.2946C153.328 82.0089 153.313 81.7084 153.369 81.3933C153.452 80.9206 153.743 80.498 154.242 80.1257C154.497 80.0623 154.795 80.0607 155.137 80.1209C155.347 80.158 155.502 80.1989 155.602 80.2437L156.233 81.0453L156.522 81.7057L156.592 82.6927L156.835 83.3855L156.68 83.805L156.803 84.7202L156.741 85.0747L157.202 86.3746L157.181 86.4928L157.318 86.6387L157.772 88.6685L157.721 89.1875L158.039 89.6903L158.584 91.8985L158.843 91.5787L159.809 90.2462L160.305 89.968L160.766 89.1964L161.195 89.0689L161.299 88.478C161.48 88.3745 161.713 88.2802 161.999 88.1952C162.17 88.1442 162.26 88.0924 162.27 88.0399L162.376 87.2057L162.932 86.8164L163.15 86.7329L163.915 85.8523L163.935 85.7341C164.039 85.4545 164.267 85.1563 164.621 84.8396L164.619 84.3924L165.481 83.6508L165.988 82.8467C165.838 82.0079 165.812 81.3128 165.909 80.7613C166.053 79.9472 166.554 79.5617 167.413 79.6048L168.421 80.1075L168.62 79.8989L168.833 80.3021L169.178 80.6473L168.984 81.0598L169.359 81.6946ZM190.025 97.3205C189.974 97.6093 189.827 97.8272 189.584 97.974C189.319 98.2521 188.919 98.5201 188.387 98.7782L187.944 98.9845L187.506 99.3947L187.124 99.4897L186.51 99.747L186.109 99.7169L185.924 99.8467C185.371 99.9117 184.917 100.103 184.563 100.419C184.356 100.518 184.174 100.554 184.017 100.526C183.912 100.507 183.822 100.478 183.748 100.438C183.255 100.622 182.654 100.651 181.945 100.526C181.341 100.42 180.956 100.298 180.791 100.16L180.152 99.6413L179.985 99.2057L180.005 99.0875C180.066 98.7461 179.97 98.4449 179.718 98.1839L179.699 97.3682L179.447 96.9581L179.507 95.4659L179.62 94.5923L179.771 93.969L179.891 93.7465C179.84 93.5751 179.831 93.3974 179.863 93.2136C180.189 92.1338 180.377 91.4494 180.428 91.1605L180.199 90.389L180.658 89.8606L180.949 88.8966L180.989 88.2131L181.329 87.6638L181.232 86.8343L181.684 86.3453L181.786 85.9978L182.029 84.619L182.195 84.3641L182.448 82.7027L182.865 81.0297L182.763 80.6867L182.932 79.498L183.237 78.4553L183.189 78.0405L183.842 75.7187C184.991 75.6505 185.5 75.6049 185.369 75.5817C185.789 75.6558 186.091 75.9392 186.275 76.432L186.298 76.761L186.785 77.4561L186.324 78.2278L186.375 78.3992C186.234 78.8889 186.111 79.2056 186.004 79.3493L185.937 80.1904L186.002 80.9736L185.58 81.7522C185.502 82.1987 185.364 82.5942 185.168 82.9387C185.145 83.07 185.082 83.2754 184.978 83.5551L184.897 83.7845L185.175 84.2803L184.941 84.6858C184.957 84.9052 184.958 85.0542 184.944 85.133C184.916 85.2906 184.826 85.4914 184.675 85.7355L184.691 86.1039L184.233 87.3228L184.087 88.1501L183.665 88.9287L183.691 89.7049L183.228 91.4104L183.311 91.6282L182.954 92.4995L182.681 93.5886C182.601 93.7369 182.558 93.8242 182.554 93.8504C182.475 94.2969 182.397 94.6622 182.32 94.9465L182.419 95.5327L182.236 96.1097L182.383 96.6635L182.308 96.8535C182.443 97.0126 182.55 97.2481 182.631 97.5602L182.985 97.6227L183.469 97.8705L183.761 97.5971L184.123 97.6202C184.29 97.5955 184.412 97.59 184.491 97.6039L184.609 97.6248C184.881 97.6185 185.115 97.5243 185.309 97.342L185.566 97.2655C185.801 97.009 186.138 96.8653 186.577 96.8343C186.726 96.7525 187.013 96.5864 187.436 96.336C187.501 95.9684 187.773 95.732 188.252 95.6269C188.646 95.6963 188.92 95.677 189.074 95.5688C189.586 95.7402 189.888 95.9426 189.983 96.1758C190.108 96.3874 190.122 96.769 190.025 97.3205ZM202.635 76.5142C202.579 76.8293 202.318 77.0811 201.852 77.2697L201.838 77.3484C201.233 77.8645 200.739 78.1295 200.358 78.1434L199.642 78.7483L199.157 79.1909L198.21 79.2675L197.719 79.7496L197.033 79.9536L195.849 80.679L195.323 79.977L195.614 79.013L196.173 78.3804C196.264 78.0173 196.53 77.7392 196.97 77.5461L196.998 77.3885L197.262 77.2726L197.405 76.6887L198.063 76.6422L198.126 76.2877L198.612 76.2923C198.81 75.7856 199.1 75.4441 199.484 75.268L199.616 75.21L199.894 75.0154L200.375 74.1255C202.035 74.8513 202.788 75.6475 202.635 76.5142ZM202.972 98.1006C202.865 98.7046 202.693 99.0669 202.455 99.1874L202.23 99.3102L201.936 99.827L201.271 99.9128C201.013 100.301 200.68 100.58 200.27 100.752L199.895 100.807L199.286 101.269L198.792 101.303C198.525 101.744 198.1 101.926 197.518 101.85C197.451 101.92 197.305 102.057 197.08 102.261C196.64 102.454 196.205 102.54 195.775 102.518L195.571 102.523L195.233 102.829L194.445 102.69L193.732 103.051L192.325 101.585L191.847 99.9164L192.148 97.9793L192.074 97.4788L193.158 94.0956L193.343 93.9658C193.334 93.558 193.362 93.1703 193.427 92.8026C193.468 92.5663 193.633 92.0943 193.92 91.3868L194.277 90.5155C194.252 90.3486 194.177 90.1594 194.052 89.9478L194.42 89.241L194.659 88.3489L194.758 88.2446C194.695 87.9897 194.676 87.7155 194.7 87.422C194.736 87.3741 194.774 87.3131 194.814 87.239C194.859 87.1385 194.886 87.0621 194.895 87.0096C194.858 86.7593 194.858 86.5291 194.895 86.319C195.006 85.6888 195.411 85.4624 196.111 85.64L196.577 85.7627C196.92 85.6607 197.131 85.6166 197.21 85.6305C197.735 85.7231 198.038 86.0745 198.12 86.6847L198.093 86.8423C198.142 87.1759 198.141 87.4872 198.09 87.7761C198.049 88.0124 197.992 88.1785 197.921 88.2743L197.298 90.1953L197.477 90.7954C197.393 91.2681 197.162 91.6605 196.782 91.9726L196.856 92.4731L196.08 93.8797C195.912 94.527 195.758 95.0144 195.619 95.3419L195.445 96.3267L195.112 96.8365L195.082 97.2374L194.843 98.1295L194.797 98.8525L195.304 99.4294L195.791 99.4339L195.891 99.3296L196.199 99.4246L196.739 99.3573L197.249 99.0004L197.448 98.7918L197.73 98.8011L197.844 98.618L197.99 98.4813L198.198 98.6805L198.662 98.3561L198.891 98.4371L199.019 98.1753L199.097 98.1892L199.271 97.8949L199.654 97.7998L200.465 97.5772C201.143 97.2636 201.771 97.1577 202.348 97.2595L202.506 97.2873C202.762 97.5221 202.918 97.7932 202.972 98.1006ZM230.387 102.285C230.35 102.495 230.13 102.74 229.729 103.022L229.177 103.615L228.881 104.375L228.505 104.431L228.385 104.653C227.942 104.71 227.582 104.985 227.305 105.478C226.952 105.795 226.59 106.002 226.221 106.099C226.067 106.207 225.932 106.279 225.818 106.313L225.558 106.632L225.19 106.649L224.068 107.019L222.701 106.941L222.361 106.8L221.749 106.814L221.561 106.496C221.226 106.247 220.996 106.017 220.871 105.806C220.569 105.671 220.377 105.38 220.294 104.932C219.94 104.328 219.791 103.869 219.846 103.554L219.867 103.435L219.675 102.914L219.61 102.821L219.498 102.071L219.276 101.26L219.514 100.368L219.211 99.7861L219.217 96.2941C219.217 95.8338 219.245 95.446 219.3 95.1309L219.256 94.9201L219.108 94.6096L218.67 95.0198L216.988 96.2666L216.33 97.0036L215.957 97.5064L215.413 98.0603L215.042 98.3199L215.047 98.5238L214.28 99.6477L213.895 99.9861L213.487 99.9954L213.07 100.287C212.978 100.813 212.668 101.11 212.141 101.18L212.049 101.245C211.71 101.781 211.385 102.089 211.073 102.169L210.622 102.658C209.951 103.082 209.512 103.343 209.305 103.442C209.18 103.69 208.997 103.888 208.754 104.035C208.688 104.104 208.577 104.193 208.423 104.301C208.265 104.734 207.842 104.984 207.153 105.052L206.699 105.094C206.178 104.975 205.798 104.597 205.559 103.959L205.142 102.87L205.505 101.959L205.517 101.433L205.609 101.368L205.739 100.863L205.472 99.8413L205.871 99.4241L205.804 98.8842L206.177 98.3814L206.415 97.4892L206.285 97.3039L206.698 96.808L206.628 96.5114L206.7 95.8742L207.066 94.7202C207.06 94.4483 207.064 94.273 207.077 94.1942C207.087 94.1416 207.109 94.0914 207.145 94.0435C207.158 93.9648 207.168 93.9122 207.172 93.886L207.031 93.5361L207.371 92.2964L207.408 91.8561L207.638 91.2467L207.668 90.1553L208.585 89.0986C209.376 89.3734 209.908 89.6568 210.182 89.9487C210.46 90.2144 210.548 90.6361 210.446 91.2139L210.384 91.5684L210.576 92.0897L210.312 92.8961L210.192 94.4996L209.784 95.1994L209.756 96.0475L209.638 96.7172L209.247 97.0949L209.358 97.8457L209.045 98.2373L208.929 98.6637L209.089 99.1387L208.628 99.9103L208.448 100.244L208.385 100.599L208.513 101.027L209.3 100.476C209.37 100.082 209.548 99.8422 209.833 99.7572C209.906 99.4993 210.046 99.3208 210.253 99.2219L210.155 99.0829L210.751 98.7005L210.897 98.5638L210.959 98.2092L211.673 97.8477L211.9 97.4815L212.296 97.3077L214.138 95.8453C213.979 95.9797 213.46 96.3892 212.581 97.0736L212.567 97.1524L212.695 96.8905L213.311 96.39L213.783 95.7828L213.853 95.3889L214.479 95.2961L214.648 94.7979L214.833 94.6681L214.907 94.4781L214.956 94.2023L215.604 93.7481C215.614 93.6956 215.625 93.6299 215.639 93.5511C215.627 93.4677 215.623 93.4129 215.628 93.3866C215.711 92.9139 216.02 92.6976 216.554 92.7377C216.874 92.3067 217.277 92.0934 217.764 92.098L218.063 91.7851L218.155 91.7202C218.452 91.4205 218.848 91.2467 219.344 91.1987L219.775 90.8279L220.72 90.9946L221.096 91.6295L221.487 91.9422L221.506 92.0673L221.768 92.1948L221.701 93.0359L222.301 93.5479L221.872 94.3659L222.139 95.3877L221.945 96.4907L221.996 98.0432L221.824 99.4752L222.033 100.365L222.089 101.431C222.219 101.616 222.297 101.86 222.325 102.163L223 102.485L222.861 103.273L223.178 103.776L223.157 103.894L223.308 103.961L223.424 104.225L223.616 104.056C223.564 104.047 223.627 104.071 223.806 104.13C224.095 104.181 224.443 103.972 224.851 103.502L225.345 103.467L225.498 103.291C225.613 103.095 225.799 102.965 226.054 102.902L226.322 102.99L226.508 102.86L226.582 102.67L226.728 102.533C227.023 102.396 227.242 102.15 227.386 101.796L227.903 101.4L228.044 101.059L228.431 100.478L229.228 100.334L230.229 100.876L230.382 102.081C230.377 102.107 230.386 102.136 230.407 102.167C230.398 102.219 230.391 102.258 230.387 102.285ZM243.497 107.846C243.441 108.161 243.136 108.513 242.58 108.903C242.374 109.3 242.117 109.606 241.808 109.823L241.565 109.82L241 110.492L240.27 110.485L239.438 110.826L238.919 111.466L238.499 111.311C238.187 111.391 237.937 111.428 237.749 111.422L237.45 111.735C237.376 111.695 237.26 111.661 237.102 111.633C236.761 111.573 236.391 111.751 235.992 112.168L235.524 111.598C235.415 111.606 235.255 111.591 235.045 111.554C234.703 111.494 234.424 111.391 234.206 111.244L233.536 111.126L233.256 110.873C232.286 110.54 231.722 110.048 231.566 109.398L231.587 109.279L231.156 108.96L231.038 108.248L230.621 107.85L230.725 107.259L230.558 105.442L230.887 104.038L231.155 103.436L231.301 102.608L231.609 102.013L231.619 101.73L231.978 101.306L231.885 101.371C231.927 101.135 232.036 100.897 232.214 100.657L232.249 100.46L232.297 99.494C232.376 99.0476 232.642 98.6884 233.096 98.4165C233.132 98.3686 233.159 98.2921 233.177 98.1871C233.196 98.082 233.181 97.8627 233.131 97.529C233.112 97.1737 233.115 96.9304 233.138 96.7991C233.193 96.484 233.33 96.1696 233.548 95.856C233.702 96.2081 233.977 96.419 234.371 96.4884L234.489 96.5093C234.56 96.4135 234.699 96.3161 234.906 96.2172C235.232 95.5978 235.618 95.0972 236.064 94.7156L236.249 94.5858C236.268 94.4808 236.4 94.1926 236.646 93.7214L236.961 93.777L237.074 93.5939L237.403 93.5707C237.572 93.3838 237.671 93.2795 237.702 93.2579C237.764 93.2146 238.083 93.0948 238.659 92.8986C238.797 92.7333 238.984 92.5904 239.222 92.4698C239.336 92.4358 239.477 92.4065 239.644 92.3817L239.843 92.1732C240.594 92.0618 241.061 92.0224 241.245 92.0548C241.455 92.0918 241.643 92.1791 241.808 92.3165L242.012 92.3119L242.26 92.5181C242.533 92.81 242.814 93.0625 243.101 93.2757L243.68 93.9058L243.653 94.0634C244.173 94.6426 244.357 95.3655 244.204 96.2322L244.017 96.6053L243.906 97.926L243.51 98.0999L242.935 99.0546L242.041 99.7499L241.89 100.373C240.943 100.829 240.083 101.178 239.309 101.421C239.008 101.747 238.608 101.866 238.109 101.778L237.991 101.757L237.159 102.098L236.529 101.987L235.514 102.214L234.867 101.734L234.788 101.72C234.699 101.921 234.591 102.227 234.464 102.638L234.107 102.819L233.985 103.285L233.63 103.913C233.598 104.557 233.565 104.971 233.533 105.155L233.355 105.245C233.294 105.586 233.237 105.834 233.183 105.987C233.179 106.013 233.158 106.05 233.123 106.098C233.114 106.15 233.107 106.19 233.102 106.216C233.065 106.426 233.14 106.615 233.327 106.784C233.35 107.113 233.447 107.333 233.617 107.444L233.851 107.729L234.676 108.118L234.655 108.236L234.956 108.371L236.282 108.686L237.09 108.706L237.533 108.5L237.783 108.463L238.281 107.941L238.485 107.937L239.525 107.795C239.663 107.63 239.861 107.503 240.121 107.413L240.274 107.237C240.818 107.224 241.168 107.002 241.326 106.569C241.758 106.266 242.263 106.166 242.841 106.268L242.999 106.296C243.396 106.961 243.562 107.478 243.497 107.846ZM241.598 95.8131C241.612 95.7344 241.6 95.5698 241.563 95.3196L241.373 95.2455L241.287 95.271C241.261 95.2663 241.208 95.2571 241.129 95.2432C241.072 95.2602 241.017 95.2641 240.965 95.2548C240.939 95.2502 240.902 95.2301 240.854 95.1946C240.801 95.1853 240.762 95.1784 240.736 95.1737L240.293 95.38L239.932 95.3569L239.721 95.4009L238.898 96.1495L238.409 96.3882L237.585 97.3801L237.188 97.5539C237.031 97.9865 236.78 98.3349 236.435 98.5991L236.229 98.847C236.551 98.7141 236.895 98.6801 237.263 98.7449L237.559 98.6754L237.74 98.3417L238.284 98.4783L238.683 98.0612L238.919 98.1028L239.325 98.3368L239.626 97.7807L239.902 97.8293L239.978 97.396L240.511 97.3681L240.65 97.2707L240.791 96.9301L241.435 96.272C241.511 96.1499 241.565 95.997 241.598 95.8131ZM260.67 110.874L260.1 111.342L259.486 112.29L259.13 112.471L258.757 112.973L257.955 112.913L257.352 113.335L256.565 113.196L256.022 113.507L255.61 113.312L255.077 113.34L255.021 113.655L253.585 113.28L252.948 113.208L252.433 113.361L252.081 113.055C252.348 113.076 252.561 113.099 252.718 113.127C252.503 113.116 251.864 113.058 250.8 112.951L250.688 112.891L250.38 112.796L249.819 112.982C249.68 112.849 249.412 112.68 249.015 112.474C248.447 112.32 248.071 112.227 247.887 112.194L247.572 112.139C247.392 112.08 247.198 112.032 246.988 111.995C246.778 111.958 246.558 111.973 246.33 112.041L245.841 111.59L245.539 111.455C245.461 111.441 245.323 111.377 245.127 111.261C244.174 110.984 243.831 110.085 244.1 108.561L244.163 108.207L245.008 107.787L246.016 107.599L246.663 108.079L247.214 108.176L247.193 108.294C247.437 108.446 247.611 108.693 247.713 109.036L248.021 109.131L247.93 109.643L248.422 109.851L248.526 109.951L253.624 110.525L254.88 110.543L254.998 110.564L255.111 110.381L255.677 110.4L255.776 110.295C256.342 110.314 256.882 110.246 257.396 110.093L257.47 109.903C257.448 109.873 257.412 109.771 257.361 109.6L257.157 109.605L256.715 109.12L256.36 109.058L256.212 108.747L256.358 108.611L255.911 108.613L255.658 108.203C255.574 108.215 255.441 108.205 255.257 108.173C254.916 108.113 254.586 107.987 254.268 107.795L253.913 107.733L253.658 107.566L253.072 107.666L252.819 107.256L252.701 107.235L252.226 106.704L251.088 106.016L250.75 105.632L249.302 105.092L249.193 104.788L248.215 103.885L247.853 102.481L247.498 101.728L247.702 99.6515L247.901 99.4429C248.06 98.8481 248.363 98.3599 248.809 97.9783C249.24 97.8377 249.49 97.5704 249.56 97.1765L250.172 97.1625C250.314 96.9709 250.559 96.811 250.906 96.6828L251.58 96.3142L254.229 95.8064L254.683 95.7646L255.485 95.8248L256.847 95.6995L259.301 96.2946L259.345 96.5055C259.568 96.6259 259.793 96.8823 260.022 97.2747L259.987 97.4716L260.548 97.9767L260.105 98.8735L259.964 99.2141C259.691 99.8429 259.265 100.106 258.688 100.004C258.215 99.9211 257.9 99.6354 257.742 99.1472L257.763 99.0291L257.297 98.9063L256.718 98.9666L256.268 98.5218L255.958 98.6702C255.616 98.61 255.283 98.6594 254.957 98.8186C254.563 98.7491 254.154 98.8396 253.731 99.0899L253.219 98.9996L252.816 99.2128L252.243 99.2337L252.151 99.2986L251.894 99.3751L251.477 99.6672L251.351 99.6857L250.9 100.175L250.425 100.335C250.259 100.658 250.143 100.935 250.075 101.167C250.036 101.539 250.032 101.795 250.061 101.936C250.121 102.055 250.284 102.205 250.55 102.388L250.515 102.585L250.979 102.951C251.371 103.182 251.656 103.409 251.834 103.629L252.622 103.768L253.058 104.292L253.943 104.57L254.256 104.869L255.715 105.573L255.836 106.041L256.042 105.793C256.384 105.853 256.815 106.092 257.338 106.509L258.026 106.752L258.056 107.042L258.686 107.153L259.678 107.978C259.749 108.342 259.983 108.708 260.378 109.076L260.763 109.428L260.561 109.88C260.699 110.175 260.742 110.467 260.691 110.756L260.67 110.874Z" fill="black"/>
<g clip-path="url(#clip0_9_129)">
<path class="bd-svg-black" d="M98.4286 113.018C96.8547 113.097 95.2814 112.876 93.7072 113.104C79.9132 115.382 67.7072 111.138 56.4065 104.193C52.5149 101.804 49.0008 98.1392 46.4614 94.2479C39.0665 83.2479 34.522 71.0426 33.2771 57.781C32.9108 53.9598 33.2943 49.9871 34.2773 46.0131C34.7994 47.1361 35.3963 48.3338 35.8433 49.5319C37.1846 52.9762 38.4508 56.4956 40.0172 59.8645C40.6885 61.2868 41.9597 62.558 43.2312 63.6793C43.6799 64.128 45.0288 64.125 45.5542 63.7492C46.0796 63.3733 46.4571 62.0985 46.1584 61.6495C41.7552 53.3408 39.977 44.0522 37.4488 35.0649C36.5565 31.9194 34.9849 30.9486 32.0597 32.0791C24.8591 34.9427 18.5546 39.3031 13.2214 44.9353C13.0712 45.0856 13.145 45.61 13.143 46.5093C19.2071 49.2687 22.6679 43.116 28.6668 41.4541C28.2889 42.8788 27.9118 44.0038 27.7596 45.0533C25.54 66.1163 31.8689 84.7626 44.1222 101.522C45.9152 104.066 48.4582 106.309 51.077 108.177C60.7293 114.975 71.5122 118.848 83.3522 119.122C87.174 119.188 91.0732 118.131 94.8222 117.223C96.3217 116.92 97.5985 115.643 98.8743 114.816C98.7257 114.217 98.5772 113.618 98.4286 113.018Z" fill="black"/>
</g>
<defs>
<clipPath id="clip0_9_129">
<rect width="110" height="43.5" fill="white" transform="matrix(-0.707107 -0.707107 -0.707107 0.707107 108.687 105.004)"/>
</clipPath>
</defs>
</svg>
