<svg width="182" height="150" viewBox="0 0 182 150" fill="none" xmlns="http://www.w3.org/2000/svg">
<path class="bd-svg-black" d="M27.7969 26.0875L27.2315 26.0691L27.1435 26.3379L27.1228 27.1466L26.898 27.2694L26.8703 27.427C26.8378 27.6108 26.7328 27.8225 26.5552 28.0619C26.3776 28.3014 26.2772 28.4868 26.2541 28.6181L26.2333 29.4268L26.1917 29.6631L26.2242 30.4L25.7377 31.0859L25.7099 31.2435L25.5339 31.7811L25.388 32.6083L25.0034 32.9467L25.1842 33.3035L24.5355 33.7577L24.3966 34.5456L24.1185 34.7402L24.1395 35.3126L23.7177 35.4007L23.6969 35.5189L23.3054 35.8966L22.8976 35.9059L22.71 36.9695L21.9709 37.2454C21.3809 37.9808 20.9484 38.5138 20.6735 38.8444L18.5604 39.7715L17.7425 40.0335L16.9431 40.4205L16.6025 40.2793L15.3443 40.5042L14.1834 40.1776L12.6611 40.5185L11.3912 39.8884L10.4643 39.8468L10.3137 39.7796L9.37534 40.264L8.91643 39.4114L8.59435 39.3952L7.62571 38.8995L6.05935 39.0295L5.91557 38.2324L4.5554 38.1144L4.18688 37.4402L3.13023 37.2132L3.15802 37.0557L2.61575 36.6757L2.18244 36.5993C1.67725 36.2395 1.49412 35.6656 1.63304 34.8778C1.69323 34.5364 2.11726 34.4351 2.9051 34.574C3.69295 34.713 4.54417 35.1068 5.45875 35.7554C6.11529 35.8712 6.73786 36.1028 7.32646 36.4503L7.63466 36.5453L8.30432 36.6634L8.5384 36.9483L9.54404 37.0038L10.3759 37.3536L10.6656 37.3234L11.3005 37.6385L11.801 37.5642C12.9565 37.768 13.6857 37.8559 13.9884 37.8281L15.3278 38.0642L15.6081 37.6263L16.3171 37.7513L16.6091 37.4778L17.0818 37.5612L17.4386 37.3804L17.6425 37.3757L17.953 37.2274L18.5948 36.8125L18.9237 36.0988L19.5562 35.9666L19.8527 35.2066L20.4737 34.9099C20.5246 34.621 20.5748 34.4132 20.6242 34.2866L20.7632 34.1892L20.5569 33.7467L21.1593 33.3249L21.1894 32.924C21.3176 32.8112 21.5385 32.6336 21.852 32.391L22.1416 31.6703L22.4055 30.1734L22.7994 30.2429L22.9361 29.6983L22.9639 29.5407L23.1747 29.4967L22.9892 28.2455L23.2394 28.2084L23.7537 27.3648L23.7722 26.7995L24.6105 23.6573L24.9256 23.0224L24.9254 21.6414L25.2451 21.2103L25.0388 20.7678L25.509 19.7134L25.3466 18.1007L25.6522 16.3674L25.4713 15.3201L25.5061 15.1232L25.126 14.9749C25.8393 12.3117 26.8 11.0865 28.008 11.2995C28.6121 11.406 28.9535 11.6964 29.0323 12.1706L29.1088 12.4278L29.7739 13.0325L29.2156 13.6652L29.4219 14.1077L29.2528 14.6059L29.4683 14.7658L29.3225 15.593L29.4477 16.265L28.9752 17.5626L28.7854 19.56L28.6025 20.137L28.2968 21.8703L28.0653 22.723L28.0075 23.972L27.8407 24.2269L27.7806 25.0286L27.4099 25.2882L27.4284 25.4133L27.7969 26.0875ZM47.1476 26.9813L46.7862 27.6487C46.6658 28.3315 46.5315 28.8629 46.3832 29.243L46.0774 29.5952L46.001 30.0285L45.7554 30.2695L45.54 30.8002L45.0303 31.1571L44.5809 32.0933L44.2449 32.1559L44.011 32.5614L43.4896 32.7538L43.0564 33.3679L42.542 33.5209L42.4193 33.9867L41.6222 34.1305C41.1975 34.543 40.724 34.7709 40.2019 34.8142L40.0374 34.8258C39.5725 35.3125 39.038 35.5026 38.434 35.3961C38.1436 35.5073 37.8277 35.5329 37.4863 35.4727L37.0438 35.6789L36.629 35.7277L36.0474 36.0313L35.5423 35.9016L34.963 35.9619L34.342 35.5681L32.6689 35.1512L32.2378 34.141L31.5309 33.0822L31.839 32.4867L31.4843 31.0431L31.8503 30.5797L31.8201 29.5995L32.1212 29.0434C32.1335 28.6664 32.1536 28.3992 32.1814 28.2416C32.2693 27.7426 32.4655 27.3981 32.7698 27.2081C32.8423 26.9501 33.0894 26.5469 33.5111 25.9984L33.7081 26.0332L33.6779 25.7435L33.8933 25.2129L33.9975 24.622C34.2493 24.4227 34.3952 24.2859 34.4354 24.2118L34.4144 23.6395L34.4422 23.4819C34.6909 23.1466 34.8499 22.7821 34.9194 22.3881L35.9481 21.3916C35.9481 21.3916 35.979 21.37 36.0408 21.3267C36.1288 21.2881 36.2037 21.2472 36.2655 21.2039L36.2539 21.0394L36.4115 21.0672L37.1204 20.5017L37.3196 19.6026L38.3669 19.4217C38.7762 19.2502 39.082 18.898 39.2843 18.365L39.7964 18.4553C40.1131 18.3486 40.3896 18.3162 40.626 18.3578C40.8623 18.3995 41.0763 18.4914 41.2678 18.6335L41.6942 18.7493L42.7879 18.536L43.2491 19.1453L43.6338 19.4975L43.9489 19.553L44.4842 19.9724L44.7994 20.0279C45.0852 20.4033 45.4027 20.906 45.7519 21.5362L45.796 21.7471L46.0439 21.9533L46.6836 23.1627L47.1056 25.1462L47.0362 25.5401L47.1476 26.9813ZM44.381 27.4683L44.3763 27.2644C44.2249 27.0482 44.1546 26.8327 44.1654 26.6179L44.3183 26.4418L44.0957 25.6309L44.3065 24.8963L44.1836 24.6715C43.8885 24.3487 43.7418 24.1062 43.7433 23.944C43.5255 23.7973 43.4536 23.5139 43.5277 23.0937L43.2983 23.0126L42.9645 22.1414L42.6586 21.8031L41.8869 21.3421L41.5856 21.2078C41.4281 21.18 41.3323 21.109 41.2983 20.9947L40.3576 21.7224L39.6511 22.7351L38.7474 23.0225L38.5528 23.435L38.1242 23.5625L37.786 24.5589L37.2716 24.7119C37.1018 25.061 36.989 25.3932 36.9335 25.7083L36.199 26.1881L36.3751 26.341C36.3196 26.6561 36.1528 26.911 35.8747 27.1057C35.7543 27.3282 35.6029 27.5723 35.4207 27.838L35.3651 28.1531L35.2191 28.2898L35.1752 28.7695L34.5543 29.7567L34.5984 29.9675L34.4039 31.0705L34.1491 31.5942L34.0912 32.1527L34.3555 32.7273L34.8722 33.0215L35.0553 33.135L35.3982 33.033L36.4085 33.2924L36.6356 32.9262L36.7931 32.954C36.9507 32.9818 37.0357 33.0374 37.048 33.1208L37.4234 33.0652L37.7177 33.2389L38.2923 32.9747L38.3919 32.8704L38.7604 32.8541C38.9951 32.5977 39.4794 32.3852 40.2131 32.2167L40.3266 32.0336L41.2117 31.6211L41.7562 31.0672L42.442 30.8632L42.5161 30.6732L42.7895 30.2746L42.8798 29.7625L43.422 29.4519L43.6282 29.2039L43.8668 29.0023C43.8173 28.6687 43.8042 28.4362 43.8273 28.3049C43.869 28.0685 43.9918 27.8329 44.1956 27.5981L44.381 27.4683ZM59.8986 11.2769C59.8431 11.5921 59.5821 11.8439 59.1156 12.0324L59.1017 12.1112C58.4962 12.6273 58.0027 12.8922 57.6211 12.9062L56.9052 13.5111L56.421 13.9537L55.4733 14.0303L54.9821 14.5123L54.2963 14.7163L53.1123 15.4418L52.5862 14.7398L52.8781 13.7758L53.4364 13.1431C53.5275 12.7801 53.7932 12.502 54.2334 12.3089L54.2612 12.1513L54.5253 12.0354L54.6689 11.4514L55.327 11.405L55.3895 11.0505L55.8761 11.0551C56.0737 10.5483 56.3641 10.2069 56.7472 10.0308L56.8792 9.97281L57.1573 9.77813L57.6391 8.88828C59.2983 9.61409 60.0515 10.4103 59.8986 11.2769ZM60.2353 32.8633C60.1288 33.4674 59.9566 33.8296 59.7188 33.9502L59.494 34.073L59.1998 34.5898L58.5348 34.6756C58.2769 35.0634 57.9432 35.343 57.5339 35.5145L57.1585 35.5702L56.5492 36.0314L56.0557 36.0662C55.7885 36.5065 55.3637 36.6888 54.7813 36.6132C54.7149 36.6828 54.5689 36.8195 54.3434 37.0234C53.9032 37.2166 53.4684 37.3024 53.0389 37.2808L52.835 37.2855L52.4967 37.5914L51.7089 37.4525L50.9953 37.814L49.5886 36.3475L49.111 34.6792L49.412 32.742L49.3377 32.2416L50.4217 28.8584L50.607 28.7286C50.5977 28.3208 50.6255 27.933 50.6903 27.5654C50.732 27.329 50.8964 26.8571 51.1836 26.1495L51.5404 25.2782C51.5156 25.1114 51.4407 24.9222 51.3155 24.7106L51.6839 24.0038L51.9224 23.1117L52.022 23.0074C51.9586 22.7525 51.9393 22.4783 51.964 22.1848C51.9995 22.1369 52.0373 22.0759 52.0775 22.0017C52.1223 21.9013 52.1493 21.8249 52.1586 21.7723C52.1214 21.5221 52.1214 21.2919 52.1585 21.0818C52.2696 20.4515 52.6751 20.2252 53.3749 20.4027L53.8406 20.5255C54.1835 20.4235 54.3944 20.3794 54.4732 20.3933C54.9984 20.4859 55.302 20.8373 55.384 21.4475L55.3562 21.6051C55.4057 21.9387 55.4049 22.25 55.354 22.5389C55.3123 22.7752 55.256 22.9413 55.1849 23.0371L54.5619 24.9581L54.7404 25.5582C54.657 26.0309 54.4254 26.4233 54.0454 26.7354L54.1196 27.2359L53.3436 28.6425C53.1753 29.2898 53.0216 29.7772 52.8827 30.1047L52.709 31.0895L52.3754 31.5993L52.3453 32.0002L52.1068 32.8923L52.0606 33.6152L52.5681 34.1921L53.0547 34.1967L53.1543 34.0924L53.4625 34.1874L54.0024 34.1201L54.5121 33.7632L54.7114 33.5546L54.9941 33.5639L55.1076 33.3808L55.2535 33.2441L55.4621 33.4433L55.9255 33.1188L56.1549 33.1999L56.2823 32.938L56.3611 32.9519L56.5348 32.6576L56.9171 32.5626L57.7281 32.34C58.4062 32.0263 59.0341 31.9204 59.6119 32.0223L59.7695 32.0501C60.0259 32.2849 60.1812 32.5559 60.2353 32.8633ZM87.6503 37.0475C87.6132 37.2576 87.3939 37.5032 86.9923 37.7844L86.4409 38.3777L86.1444 39.1377L85.769 39.1934L85.6486 39.4159C85.2052 39.4731 84.8453 39.7481 84.5689 40.2409C84.2152 40.5576 83.8538 40.7647 83.4846 40.8621C83.3301 40.9702 83.1957 41.0413 83.0814 41.0753L82.8219 41.3951L82.4535 41.4114L81.3321 41.7823L79.965 41.7037L79.6243 41.5624L79.0126 41.5764L78.8249 41.2589C78.4896 41.0103 78.2594 40.7801 78.1343 40.5685C77.833 40.4342 77.6407 40.143 77.5572 39.695C77.2033 39.0911 77.0542 38.6315 77.1098 38.3164L77.1306 38.1982L76.9382 37.6769L76.8733 37.5842L76.762 36.8335L76.5394 36.0225L76.778 35.1304L76.4744 34.5488L76.4808 31.0569C76.4808 30.5966 76.5085 30.2088 76.5641 29.8937L76.52 29.6828L76.3717 29.3724L75.9338 29.7826L74.2517 31.0294L73.5938 31.7663L73.2208 32.2692L72.6763 32.8231L72.3056 33.0827L72.3103 33.2866L71.5435 34.4105L71.1589 34.7488L70.751 34.7582L70.334 35.0502C70.2414 35.5754 69.9317 35.8728 69.405 35.9424L69.3123 36.0073C68.9741 36.5434 68.6489 36.8516 68.3369 36.932L67.8851 37.421C67.2148 37.8443 66.7761 38.1054 66.5691 38.2043C66.444 38.4531 66.2602 38.6508 66.0177 38.7976C65.9513 38.8671 65.8408 38.956 65.6864 39.0641C65.5289 39.4967 65.1057 39.747 64.4167 39.815L63.9625 39.8568C63.4419 39.7379 63.0619 39.3595 62.8224 38.7216L62.4051 37.6326L62.7688 36.7219L62.7803 36.1959L62.873 36.131L63.0027 35.6259L62.736 34.604L63.1345 34.1869L63.0673 33.647L63.4403 33.1441L63.6788 32.252L63.549 32.0667L63.9614 31.5707L63.8918 31.2741L63.9636 30.6369L64.3295 29.4829C64.3233 29.2111 64.3271 29.0357 64.341 28.9569C64.3503 28.9044 64.3727 28.8542 64.4082 28.8063C64.4221 28.7275 64.4314 28.675 64.436 28.6488L64.2946 28.2989L64.6351 27.0592L64.6721 26.6189L64.9014 26.0095L64.9313 24.9181L65.8488 23.8614C66.6397 24.1362 67.1719 24.4196 67.4454 24.7115C67.7235 24.9772 67.8116 25.3989 67.7097 25.9766L67.6472 26.3312L67.8396 26.8525L67.5756 27.6589L67.4553 29.2624L67.0476 29.9622L67.0199 30.8103L66.9018 31.48L66.5103 31.8577L66.6216 32.6084L66.3089 33.0001L66.1931 33.4264L66.353 33.9014L65.892 34.6731L65.7113 35.0068L65.6488 35.3613L65.7763 35.79L66.564 35.2384C66.6335 34.8445 66.8111 34.605 67.0969 34.52C67.1695 34.262 67.3092 34.0836 67.5162 33.9847L67.4189 33.8457L68.0143 33.4633L68.1603 33.3265L68.2228 32.972L68.9364 32.6104L69.1635 32.2443L69.5597 32.0705L71.4016 30.6081C71.2425 30.7425 70.7235 31.1519 69.8446 31.8364L69.8307 31.9152L69.9582 31.6533L70.5744 31.1527L71.0471 30.5456L71.1165 30.1516L71.7421 30.0589L71.9112 29.5607L72.0966 29.4309L72.1707 29.2409L72.2193 28.9651L72.868 28.5109C72.8773 28.4583 72.8889 28.3927 72.9028 28.3139C72.8904 28.2305 72.8865 28.1757 72.8912 28.1494C72.9745 27.6767 73.2834 27.4604 73.8179 27.5005C74.1376 27.0694 74.5408 26.8562 75.0274 26.8608L75.3263 26.5479L75.4189 26.483C75.7155 26.1833 76.1117 26.0095 76.6075 25.9615L77.0385 25.5907L77.9839 25.7574L78.3594 26.3922L78.751 26.705L78.7696 26.8301L79.0314 26.9575L78.9643 27.7987L79.5645 28.3107L79.136 29.1287L79.4026 30.1505L79.2081 31.2535L79.2593 32.806L79.088 34.238L79.2967 35.1277L79.3525 36.1936C79.4823 36.3789 79.5611 36.623 79.5889 36.9258L80.2632 37.2478L80.1243 38.0356L80.4418 38.5384L80.421 38.6566L80.5716 38.7237L80.6875 38.9879L80.8798 38.8187C80.8273 38.8094 80.8906 38.8341 81.0698 38.8928C81.3587 38.9438 81.707 38.7344 82.1148 38.2647L82.6083 38.2299L82.7612 38.0538C82.8771 37.8576 83.0624 37.7278 83.3173 37.6644L83.5861 37.7524L83.7714 37.6227L83.8456 37.4326L83.9915 37.2959C84.2866 37.1584 84.5059 36.9127 84.6495 36.559L85.1662 36.1627L85.3075 35.822L85.6943 35.2404L86.4914 35.0966L87.4925 35.6387L87.6456 36.8436C87.641 36.8698 87.6495 36.8984 87.6711 36.9293C87.6618 36.9818 87.6549 37.0212 87.6503 37.0475ZM120.207 47.0122C120.151 47.3274 119.848 47.6665 119.296 48.0296L118.96 48.0922L118.622 48.3981L117.878 48.47C117.714 48.6307 117.567 48.6995 117.436 48.6763C117.409 48.6717 117.385 48.6539 117.364 48.623C117.311 48.6138 117.272 48.6068 117.246 48.6022C116.617 48.7892 115.896 48.8109 115.081 48.6674L114.766 48.6118L113.816 48.2412L113.202 47.808L111.927 46.2835L111.8 45.1643L111.26 44.5411C111.357 44.4499 111.427 44.2862 111.468 44.0498C111.496 43.8922 111.437 43.6111 111.292 43.2064L111.577 42.2818L111.605 42.1243C111.66 41.8091 111.64 41.3859 111.544 40.8545L111.989 39.7144L111.296 40.6483L110.692 40.6229L110.467 41.4362C110.238 41.5042 109.98 41.5128 109.691 41.4618L109.091 42.3308L108.474 42.8314C108.223 43.0307 108.016 43.1296 107.853 43.1281L107.721 43.186L106.046 44.3935L105.889 44.3657L104.987 45.1004L104.216 45.3299L103.732 45.7725L102.777 45.8885L101.387 46.1714L100.668 45.6386C100.143 45.5459 99.8172 45.2448 99.6904 44.735L99.3706 44.4755C99.3845 44.3968 99.4162 44.294 99.4656 44.1673C99.4887 44.036 99.5049 43.9441 99.5142 43.8916L98.9812 43.229L99.1804 43.0204L98.9022 41.8341L99.0876 41.7043L99.0227 41.6116C99.0319 41.5591 99.0458 41.4803 99.0643 41.3752C99.052 41.2918 99.0504 41.2239 99.0597 41.1713C99.1106 40.8825 99.1986 40.6137 99.3237 40.3649L99.5437 39.3477L99.532 38.4927C99.7003 38.3057 99.7984 38.1335 99.8262 37.9759C99.8586 37.7921 99.8099 37.6075 99.6801 37.4221L100.169 37.1834L100.252 36.7107L100.324 35.383L101.202 32.9383C101.276 32.5181 101.267 31.8801 101.174 31.0243C101.401 30.1978 102.033 29.8355 103.071 29.9373L103.366 30.111L103.903 30.2871L104.473 31.1999L104.056 32.1825L103.679 33.8624L103.568 35.1832L103.248 35.6143L103.311 35.9502L103.003 36.5458L102.933 36.9397L102.834 37.044C102.846 37.1274 102.838 37.2479 102.811 37.4055C102.75 37.7469 102.635 38.0921 102.465 38.4413L102.614 38.7518L102.352 39.3149L102.347 39.8015L102.25 40.3529C102.354 40.5337 102.385 40.7422 102.343 40.9786C102.306 41.1887 102.216 41.3895 102.074 41.5811L102.047 41.7386C102.099 42.2082 102.114 42.5087 102.091 42.64L102.383 43.057C102.559 42.9798 102.766 42.8809 103.004 42.7603C103.129 42.5116 103.343 42.3733 103.645 42.3455L103.715 41.9516C103.872 41.9794 104.129 41.9839 104.484 41.9654L104.625 41.6247L105.344 41.4671L105.483 41.3697C105.699 41.2183 106.031 41.1009 106.479 41.0174L106.507 40.8598L107.353 40.4403C107.624 39.9737 108.011 39.7033 108.511 39.6291C108.851 39.3912 109.078 39.2552 109.192 39.2212L109.822 38.6418L109.843 38.5237L110.015 38.4727L110.397 38.3776L110.691 37.8608L111.581 37.6522L111.746 37.6406C111.746 37.6406 111.854 37.5649 112.07 37.4134L112.132 37.0589L112.383 37.0218C112.536 36.6155 112.801 36.3374 113.18 36.1875L114.007 34.9524L114.329 34.278L114.435 34.1344L114.593 34.1622L114.903 34.0138L114.681 33.8934C115.053 33.4716 115.364 33.012 115.614 32.5145L116.764 32.6766L117.538 33.5848L117.821 34.2845L117.089 35.902L116.359 36.5856L115.615 38.0386L115.18 38.2055L115.075 38.7964L114.763 39.188L114.756 39.9179L114.392 40.1381L114.327 41.4264L114.094 43.213L114.291 43.2477L114.11 44.2719L114.543 45.0388L115.007 45.4048L115.011 45.6088C115.191 45.6674 115.402 45.7724 115.646 45.9238L116.617 46.1762L117.236 46.1228L118.39 45.7983C118.618 45.7303 118.89 45.7241 119.206 45.7796C119.993 45.9186 120.327 46.3294 120.207 47.0122ZM137.476 49.0825L136.906 49.5506L136.292 50.4984L135.935 50.6792L135.562 51.1821L134.761 51.1219L134.158 51.5437L133.37 51.4048L132.828 51.7154L132.416 51.5208L131.883 51.5487L131.827 51.8638L130.391 51.4886L129.753 51.4169L129.239 51.5699L128.887 51.2641C129.154 51.2841 129.366 51.3081 129.524 51.3358C129.309 51.3251 128.67 51.2664 127.605 51.16L127.494 51.0998L127.186 51.0048L126.625 51.1903C126.486 51.0574 126.218 50.8883 125.821 50.6829C125.253 50.5285 124.876 50.4351 124.693 50.4027L124.378 50.3471C124.198 50.2885 124.004 50.2406 123.794 50.2036C123.583 50.1665 123.364 50.182 123.136 50.25L122.647 49.7982L122.345 49.6639C122.266 49.65 122.129 49.5851 121.933 49.4693C120.98 49.1929 120.637 48.2931 120.906 46.77L120.968 46.4154L121.814 45.9959L122.822 45.8081L123.469 46.2876L124.02 46.3849L123.999 46.5031C124.243 46.6544 124.416 46.9015 124.518 47.2445L124.827 47.3394L124.736 47.8515L125.228 48.06L125.332 48.1596L130.43 48.7336L131.686 48.7519L131.804 48.7728L131.917 48.5897L132.483 48.6082L132.582 48.5039C133.148 48.5223 133.688 48.4551 134.202 48.3021L134.276 48.112C134.254 48.0811 134.218 47.98 134.167 47.8085L133.963 47.8132L133.521 47.3289L133.166 47.2664L133.018 46.956L133.164 46.8192L132.716 46.8216L132.464 46.4115C132.38 46.4239 132.247 46.4139 132.063 46.3814C131.722 46.3212 131.392 46.1954 131.073 46.0039L130.719 45.9414L130.464 45.7746L129.878 45.8743L129.625 45.4642L129.507 45.4434L129.032 44.9128L127.894 44.2248L127.556 43.8402L126.107 43.3005L125.998 42.9969L125.021 42.0934L124.659 40.6893L124.304 39.9362L124.508 37.8601L124.707 37.6515C124.866 37.0567 125.169 36.5686 125.615 36.1869C126.046 36.0463 126.296 35.779 126.366 35.3851L126.978 35.3711C127.12 35.1795 127.364 35.0196 127.712 34.8914L128.386 34.5228L131.035 34.015L131.489 33.9732L132.291 34.0334L133.653 33.9081L136.107 34.5032L136.151 34.7141C136.373 34.8345 136.599 35.0909 136.828 35.4833L136.793 35.6802L137.354 36.1853L136.911 37.0821L136.77 37.4227C136.497 38.0515 136.071 38.3149 135.493 38.2131C135.021 38.1297 134.706 37.844 134.548 37.3558L134.569 37.2377L134.103 37.1149L133.524 37.1753L133.074 36.7304L132.764 36.8788C132.422 36.8186 132.089 36.868 131.763 37.0272C131.369 36.9577 130.96 37.0482 130.537 37.2985L130.025 37.2082L129.622 37.4214L129.049 37.4423L128.957 37.5072L128.7 37.5837L128.282 37.8758L128.157 37.8943L127.706 38.3833L127.231 38.5432C127.065 38.8661 126.949 39.1434 126.881 39.3751C126.842 39.7474 126.838 40.0039 126.867 40.1444C126.927 40.2634 127.09 40.414 127.356 40.5962L127.321 40.7932L127.785 41.1592C128.177 41.3909 128.462 41.6171 128.64 41.838L129.428 41.9769L129.863 42.5005L130.749 42.7785L131.061 43.0773L132.521 43.7816L132.642 44.2496L132.848 44.0016C133.189 44.0618 133.621 44.3004 134.143 44.7174L134.832 44.9607L134.862 45.2503L135.492 45.3614L136.484 46.1862C136.555 46.5507 136.788 46.9168 137.184 47.2844L137.569 47.6366L137.367 48.0884C137.505 48.3835 137.548 48.6754 137.497 48.9643L137.476 49.0825ZM149.337 35.7394L149.198 35.8368L148.962 36.4856L148.765 36.4509L148.571 36.8634L148.689 36.8842C148.686 37.2086 148.697 37.4542 148.721 37.621L148.501 37.9478C148.507 38.2197 148.501 38.4081 148.483 38.5132C148.469 38.592 148.415 38.7449 148.321 38.972L148.179 39.3126L147.505 42.4432L147.672 42.8788L147.262 43.8219L147.353 44.6908L147.086 45.05C147.119 45.3265 147.112 45.5961 147.066 45.8587L147.145 46.5631L146.887 46.6396L146.853 46.8366C146.811 47.0729 146.755 47.239 146.684 47.3348L146.635 47.6105C146.352 48.2918 145.909 48.5792 145.305 48.4727C144.517 48.3338 144.214 47.7522 144.394 46.728L144.526 45.9795L144.6 45.099L144.503 44.2695L144.776 43.8709L144.649 43.4423L145.026 42.4528L144.66 42.2258L145.056 41.3614L145.04 40.993L145.165 40.2839L145.121 40.0731L145.276 39.6537C145.299 39.5223 145.386 39.3346 145.538 39.0906L145.48 38.9585L145.521 38.7221L145.236 38.2657L145.774 37.7512L145.693 37.2901L145.88 36.917C145.908 36.7595 145.941 36.5756 145.978 36.3655C145.988 36.1508 145.998 36.0172 146.008 35.9647C146.026 35.8596 146.06 35.7438 146.11 35.6171C146.133 35.4858 146.149 35.3939 146.158 35.3413C146.133 35.1745 146.126 35.0648 146.135 35.0123L146.045 34.8339C146.063 34.7289 146.13 34.6593 146.244 34.6253L146.153 34.4469L146.237 33.9742L145.905 33.5502L146.389 31.7266L147.504 32.0856L148.155 32.0785L149.536 32.7688L149.636 33.3551C149.634 33.5173 149.608 33.7428 149.557 34.0317C149.529 34.1893 149.496 34.3051 149.455 34.3793L149.295 34.5948L149.196 34.6991L149.337 35.7394ZM147.187 52.5413L146.972 53.072C146.877 53.2991 146.823 53.452 146.81 53.5308L145.653 54.0986L145.018 53.7836L144.379 53.9552L143.883 53.5428L143.056 53.3969L142.847 51.8167L143.336 50.8874L144.024 50.4401L144.188 50.4285L144.652 50.104C145.036 50.226 145.314 50.3426 145.484 50.4538C145.904 50.5279 146.194 50.6468 146.355 50.8105C146.21 50.8662 146.067 50.9087 145.926 50.938L146.772 51.209L146.958 51.7697L147.187 52.5413Z" fill="black"/>
<g clip-path="url(#clip0_9_128)">
<path class="bd-svg-black" d="M164.823 68.9831C164.492 70.5237 163.871 71.986 163.684 73.5657C162.314 87.4794 155.055 98.1708 145.422 107.289C142.107 110.43 137.658 112.876 133.242 114.321C120.703 118.617 107.738 119.848 94.6055 117.618C90.8198 116.983 87.0817 115.584 83.4975 113.606C84.7173 113.393 86.0288 113.126 87.3017 113.004C90.9758 112.6 94.703 112.288 98.3625 111.647C99.9101 111.367 101.467 110.468 102.879 109.53C103.429 109.212 103.775 107.909 103.548 107.304C103.321 106.699 102.187 106.005 101.676 106.177C92.511 108.28 83.0786 107.593 73.7432 107.709C70.4739 107.757 69.1294 109.024 69.4644 112.142C70.3667 119.838 72.9468 127.057 77.0068 133.666C77.113 133.85 77.6387 133.914 78.5068 134.149C82.7417 129.006 77.6944 124.07 77.6417 117.846C78.9201 118.579 79.9091 119.235 80.8834 119.653C100.654 127.249 120.303 125.962 139.663 118.464C142.585 117.39 145.409 115.514 147.891 113.468C156.956 105.904 163.488 96.4911 166.817 85.1254C167.87 81.4511 167.858 77.4109 167.951 73.5548C168.047 72.028 167.144 70.4642 166.675 69.0178C166.058 69.0062 165.441 68.9947 164.823 68.9831Z" fill="black"/>
</g>
<defs>
<clipPath id="clip0_9_128">
<rect width="110" height="43.5" fill="white" transform="matrix(-0.866025 0.5 0.5 0.866025 159.737 57)"/>
</clipPath>
</defs>
</svg>
