<svg width="283" height="93" viewBox="0 0 283 93" fill="none" xmlns="http://www.w3.org/2000/svg">
<path class="bd-svg-black" d="M28.8539 51.7348L28.6058 52.6315L28.6775 53.9592L28.3461 54.3832C28.3737 55.4615 28.0848 56.2029 27.4792 56.6075L27.2242 56.7743L25.1524 58.8456L24.5128 59.3645L23.5927 60.8265L22.8628 60.8334L22.4851 61.2249L21.7459 61.6396L19.9568 63.0111C19.79 62.9863 19.5591 62.9052 19.264 62.7677C19.1265 63.0627 18.8677 63.2843 18.4877 63.4326L18.3301 63.4604L17.6534 64.2296L17.482 64.1786L16.7335 64.3105L16.4276 64.6488L14.9237 64.8733L13.0097 65.5358L12.7733 65.5775C12.5895 65.6099 12.3709 65.6755 12.1176 65.7743L10.9868 65.8112L10.7551 65.649L9.13774 65.6905L8.41251 65.4934L7.46709 65.6601L7.39068 65.2268L6.50331 64.5709L5.4421 64.3113L4.79346 63.1665L4.59431 62.2674L4.30934 62.0334L3.95738 60.2677L4.19164 58.6017L3.94615 57.6701L4.10838 57.4385L3.97641 56.69L4.43066 56.0413L4.3612 55.6473L4.52115 55.1724L4.45169 54.7784L4.57453 54.5537L4.30116 54.1551L4.85504 53.6106L5.32565 51.903L6.53093 49.2941L6.89012 49.0276C6.94575 48.8824 7.03383 48.6909 7.15436 48.453L7.49271 48.0684L7.38158 47.4381L7.95162 47.2158C8.28998 46.8312 8.68162 46.5184 9.12654 46.2775L9.28183 46.0064C9.49966 45.8597 10.1593 45.608 11.2608 45.2513L12.2966 44.9062L13.5849 44.8415L14.3264 44.6701L15.39 44.4826L15.6333 44.4803L15.7584 44.4989L15.9554 44.4641L16.1779 44.3437L17.4454 44.1608L17.4083 44.411L18.0269 44.4644C18.1752 44.3841 18.2355 44.2652 18.2077 44.1076C18.3807 44.3208 18.6904 44.3881 19.1369 44.3093L19.5076 44.5689L20.6893 44.3605L23.53 45.0375L23.998 45.8486L24.2969 46.1614L25.0545 46.3122L26.4238 47.8579L27.193 48.5346C28.1937 50.064 28.7219 50.9863 28.7775 51.3015L28.8539 51.7348ZM25.9411 52.4921L25.5497 51.4238L25.6911 51.074L25.2973 50.4529C25.3143 50.3958 25.3135 50.3147 25.295 50.2096C25.2811 50.1308 25.2433 50.0698 25.1815 50.0266L24.3891 49.6789L24.0416 49.0903L23.7056 49.0277L23.4902 48.497L22.3456 47.7646L21.6714 47.3961L21.4559 47.556C20.7546 47.111 19.5574 46.8482 17.8644 46.7676C17.6543 46.8047 17.5207 46.8147 17.4635 46.7977L17.2874 46.9506L16.5436 46.8787L16.1844 47.1451C15.7673 47.0832 15.5194 47.0593 15.4406 47.0732C15.4144 47.0778 15.314 47.1226 15.1394 47.2075C14.9911 47.2878 14.8513 47.3396 14.72 47.3627C14.5887 47.3859 14.4813 47.3912 14.3979 47.3789C14.2742 47.7527 13.8942 48.1311 13.2577 48.5141L12.7317 48.5256L12.2288 48.8986L11.5059 48.9449C11.098 49.3959 10.6136 49.8739 10.0528 50.379L9.90449 50.6894L9.86034 51.5908L9.02377 52.1445L8.90093 52.3692C8.79893 52.7122 8.63977 53.0381 8.42347 53.347L8.54155 54.0167L8.03173 54.3503L7.92744 54.4499L7.78129 55.6942L7.28537 56.1065C7.44274 57.4598 7.38391 58.4314 7.10886 59.0215C6.9497 59.3474 6.90098 59.7622 6.9627 60.2658L6.88154 60.7269L7.04834 60.9818L7.27071 61.5518L7.83371 61.9806L8.00279 62.4788L8.46617 62.8032C9.27559 63.0938 9.97149 63.2012 10.5539 63.1256L12.1319 62.4006L12.549 62.6926L13.0217 62.6092L13.0866 62.5166L14.2336 62.1112L15.5289 62.0859C15.702 61.8388 15.9329 61.6897 16.2218 61.6388C16.761 61.1646 17.2407 60.8905 17.6609 60.8164L18.4047 60.1978L19.0281 60.0473L19.4707 59.5631L20.6849 59.3084C20.7853 59.2636 20.9012 59.2296 21.0325 59.2065L21.0905 59.0744C21.228 58.7794 21.4736 58.5601 21.8274 58.4164L22.1056 57.2301L22.4555 57.3715L22.7428 57.1584L23.204 56.549L23.4149 56.5931L24.0012 56.0023L24.9746 54.6121L25.4589 54.3643L25.5911 53.7317L25.8715 53.4792L25.7302 53.1385L25.9411 52.4921ZM47.6905 53.125L47.4262 54.3901L47.8803 55.1224L47.7644 55.3865L47.7179 56.0446L47.5 56.6516L47.3564 56.7582L47.4095 57.5205L46.7144 57.7243C46.4069 58.1306 46.0747 58.4735 45.7179 58.753L45.4746 58.7553L44.9184 59.0565L44.5708 59.1584L43.871 59.5661L42.9349 59.325L42.8028 59.267L42.1401 59.4245L42.3116 59.4755L41.1808 59.5124L40.2377 59.9224L39.7812 59.6373L38.9679 59.862L38.6111 59.6812C38.5848 59.6858 38.4821 59.7175 38.3029 59.7762L38.3446 60.0125C38.3862 60.2489 38.3885 60.4922 38.3514 60.7424L38.6016 61.47L38.3559 61.9195C38.5103 62.488 38.6129 62.9167 38.6639 63.2056L38.7193 64.2112L39.1409 65.6803L38.8952 66.1298L39.1569 66.6929L39.1082 67.1077L39.3654 67.1842L39.4696 67.7751C39.5499 67.9234 39.597 68.0369 39.6109 68.1157C39.6526 68.3521 39.5429 68.5745 39.2818 68.783L39.5366 69.3067L39.3952 69.6566L39.5942 71.2462C39.8396 73.0984 39.5946 74.0893 38.8593 74.219C38.7017 74.2467 38.2236 74.2227 37.425 74.1469L37.3348 72.9443L36.7928 71.2527L37.0617 70.4742L36.9483 69.6006L36.5824 68.4467L36.8072 67.879L36.2929 67.0355L36.4853 66.5141L36.11 65.768L36.3001 65.0033C36.2198 64.855 36.0893 64.7291 35.9086 64.6256C35.7541 64.5174 35.6723 64.4371 35.663 64.3846C35.6491 64.3058 35.7271 64.2108 35.8971 64.0996C35.8569 64.0255 35.8206 63.8965 35.7882 63.7126C35.728 63.3712 35.7281 62.9109 35.7884 62.3316L35.4826 61.9794L35.5105 61.4464L35.1722 61.1405L35.4504 60.6447L35.0914 59.5301L35.0429 57.8733L34.6769 57.4099L34.9782 56.585L34.4291 56.235L34.5729 55.438L34.2624 55.2896L34.1837 54.613L34.2742 53.7441L34.2464 53.5865L34.258 53.422L34.1816 52.9887L34.1932 52.8242L33.8851 52.2286L33.964 51.5242L33.6768 51.0469L33.7301 50.4282L33.5448 50.2984L33.5241 49.4897L33.3295 49.0772L33.3388 48.6694L33.172 48.4145L31.865 49.2949L31.8233 49.0585L31.5545 49.1465L31.1907 49.6168L30.8361 49.6794L30.4746 50.393L30.0529 50.3049L29.9254 50.7335C28.5043 50.1988 27.7543 49.7083 27.6756 49.2618C27.6201 48.9467 27.6919 48.6632 27.8912 48.4115L27.7477 47.8275C28.4089 47.2777 29.0655 46.9318 29.7174 46.7897L29.9445 46.4654L31.1148 45.731L31.3419 45.4066L32.4588 45.2909L32.6418 45.1774L32.7532 43.7362L33.7334 43.7664L34.5443 44.6795L34.8363 44.2624L35.6356 44.6495C35.977 44.5893 36.3169 44.5971 36.6552 44.6728L36.9147 44.9926L37.1696 44.8258L37.5264 45.0066C37.7102 44.9742 37.857 44.9619 37.9666 44.9696L37.9689 45.2129L38.7869 44.7843L39.3036 45.1807L40.0937 45.285L40.717 45.825L41.7666 46.2492L41.8198 46.321L42.61 46.4254L42.6517 46.6618C42.8895 46.7823 43.0841 46.9646 43.2355 47.2087L43.5854 47.3501L43.8981 47.7417L44.3708 47.6584L44.5097 48.4462L44.8341 48.6733L44.9615 48.9352L45.3693 48.9445C45.5284 49.5393 45.7894 50.0213 46.1523 50.3905L46.201 50.6663L46.6643 50.9907L46.6967 51.6349L47.1368 52.2884L47.4009 53.0948L47.6905 53.125ZM44.8403 54.2368L44.7662 54.0468L44.7778 53.8823L44.4164 53.2149L44.5115 52.8326L44.2983 52.5452L44.1895 52.1582L43.7632 51.5835L43.5292 51.178L42.7577 50.258L42.2156 49.9474L41.8217 49.3264L41.4394 49.2313L40.6633 48.5152L40.0469 48.7051L39.4631 48.1582L39.083 48.3064L38.717 47.843L38.5525 47.8314L38.001 47.9286L37.6418 48.195L37.2711 47.9354L36.8911 48.0837L36.6849 47.8357L35.955 47.8426L36.0777 48.3083L36.1309 49.0707L36.3649 49.4762L37.0067 49.8911L36.74 50.9129L36.8836 51.4968L36.895 52.7133C37.0618 53.1984 37.2935 53.5908 37.59 53.8905L37.5089 54.3516C37.5397 54.3733 37.5575 54.3972 37.5621 54.4235C37.576 54.5023 37.4918 54.639 37.3095 54.8336L37.6478 55.1395L37.5342 55.6469L37.5457 56.1729L37.7611 56.7036L37.812 57.2226L38.6392 57.0767C38.735 57.0057 38.8748 56.954 39.0587 56.9216C39.295 56.8799 39.519 56.9216 39.7306 57.0468C39.7569 57.0421 39.8071 57.0198 39.8812 56.9796C39.9338 56.9703 39.9732 56.9634 39.9994 56.9588C40.0782 56.9449 40.2273 56.9457 40.4466 56.9611C40.5903 56.8546 40.7278 56.7897 40.8591 56.7666C41.0692 56.7295 41.2754 56.7473 41.4778 56.8199L41.8323 56.7574L42.1613 56.7806L42.9075 56.4054L43.6072 56.6882C43.8575 56.7253 43.9563 56.7485 43.9038 56.7577L44.5203 55.8773L44.5018 55.3119L44.6849 55.1984L44.5112 54.9041L44.7313 54.5403L44.8403 54.2368ZM53.941 30.577C53.9966 30.8922 53.8374 31.2181 53.4635 31.5548L53.4774 31.6336C53.085 32.3256 52.7119 32.7434 52.3581 32.887L51.8922 33.7002L51.5886 34.2818L50.7243 34.6779L50.4276 35.2989L49.8529 35.7251L48.9884 36.8118L48.254 36.332L48.1985 35.3264L48.5068 34.5409C48.4682 34.1686 48.6227 33.8164 48.9703 33.4843L48.9426 33.3268L49.1511 33.1275L49.0863 32.5297L49.6888 32.261L49.6263 31.9065L50.0851 31.7443C50.0976 31.2006 50.2536 30.7804 50.5534 30.4839L50.6577 30.3842L50.8523 30.1062L51.0008 29.1052C52.8081 29.2198 53.7882 29.7104 53.941 30.577ZM61.6404 50.7465C61.7469 51.3505 61.709 51.7498 61.5267 51.9444L61.3575 52.1367L61.2578 52.7229L60.6622 53.031C60.5525 53.4836 60.3346 53.8605 60.0086 54.1617L59.6749 54.3424L59.2601 54.9842L58.8082 55.1857C58.7077 55.6908 58.3709 56.0075 57.7978 56.1356C57.7592 56.2236 57.6688 56.402 57.5266 56.6708C57.179 57.0029 56.7997 57.2322 56.3888 57.3588L56.1988 57.433L55.9856 57.8361L55.1977 57.975L54.6508 58.5589L52.8273 57.6619L51.808 56.2576L51.4282 54.3343L51.1873 53.8894L51.0488 50.3395L51.1786 50.1541C51.0303 49.7741 50.9238 49.4003 50.859 49.0326C50.8173 48.7962 50.8104 48.2965 50.8383 47.5334L50.8755 46.5927C50.7952 46.4443 50.6601 46.2922 50.4701 46.1361L50.5745 45.346L50.4935 44.4261L50.5514 44.294C50.4047 44.0762 50.2928 43.8251 50.2156 43.5409C50.2326 43.4837 50.2473 43.4135 50.2596 43.33C50.2674 43.2204 50.2666 43.1393 50.2573 43.0867C50.1369 42.8643 50.0581 42.648 50.0211 42.4379C49.9099 41.8076 50.2135 41.4562 50.9319 41.3837L51.4115 41.3398C51.6989 41.1266 51.8819 41.0131 51.9607 40.9992C52.486 40.9066 52.8914 41.133 53.1771 41.6783L53.2049 41.8359C53.3655 42.1325 53.4713 42.4253 53.5222 42.7141C53.5639 42.9505 53.5678 43.1258 53.5338 43.2401L53.6053 45.2584L53.9783 45.7612C54.0616 46.2339 53.9782 46.6819 53.7279 47.1051L53.9688 47.5501L53.7206 49.1373C53.7839 49.8031 53.8062 50.3136 53.7876 50.6689L53.9613 51.6537L53.8221 52.2469L53.931 52.6339L54.012 53.5538L54.2158 54.2489L54.89 54.6175L55.3488 54.4553L55.4068 54.3233L55.7289 54.3071L56.2132 54.0592L56.5701 53.5495L56.686 53.2854L56.9548 53.1973L56.9988 52.9865L57.0892 52.8081L57.3534 52.924L57.6778 52.4606L57.9211 52.4583L57.9513 52.1687L58.0301 52.1548L58.0927 51.8188L58.4194 51.5987L59.1054 51.1122C59.6353 50.5855 60.1891 50.2713 60.7669 50.1694L60.9245 50.1416C61.2458 50.2745 61.4844 50.4761 61.6404 50.7465ZM88.833 45.3018C88.8701 45.5119 88.748 45.8177 88.4668 46.2193L88.1516 46.9654L88.1329 47.781L87.7992 47.9617L87.7621 48.212C87.3651 48.4174 87.121 48.7989 87.0297 49.3565C86.8057 49.7751 86.5369 50.0933 86.2232 50.3111C86.1151 50.4655 86.0131 50.5783 85.9173 50.6493L85.7829 51.0386L85.4422 51.1799L84.5153 51.912L83.2037 52.3057L82.8353 52.2894L82.2653 52.5118L81.9803 52.2777C81.5802 52.1587 81.2852 52.0212 81.0952 51.8652C80.7662 51.842 80.4858 51.6341 80.2542 51.2417C79.7151 50.7952 79.4178 50.4144 79.3622 50.0993L79.3414 49.9811L78.9823 49.557L78.8896 49.4921L78.5282 48.8247L78.0417 48.1388L77.9608 47.2189L77.4765 46.7762L76.2883 43.4927C76.1308 43.0601 76.0243 42.6863 75.9687 42.3711L75.8552 42.1881L75.6096 41.9471L75.3384 42.4823L74.1842 44.2292L73.818 45.1468L73.6395 45.7469L73.3173 46.4536L73.0577 46.8243L73.1319 47.0143L72.7957 48.3327L72.55 48.7822L72.17 48.9304L71.878 49.3475C71.9706 49.8727 71.7813 50.2581 71.3101 50.5036L71.2452 50.5963C71.1107 51.2158 70.9106 51.6166 70.6449 51.7988L70.3876 52.4128C69.9025 53.0399 69.5796 53.4354 69.4189 53.5991C69.3864 53.8756 69.2813 54.1243 69.1037 54.3452C69.065 54.4332 68.9916 54.5545 68.8835 54.7089C68.8834 55.1693 68.5713 55.5492 67.9472 55.8488L67.5347 56.0434C67.0049 56.1097 66.5183 55.8841 66.075 55.3666L65.3105 54.486L65.3407 53.5058L65.1717 53.0076L65.2366 52.9149L65.1857 52.3959L64.5856 51.5269L64.8174 50.9986L64.5696 50.5143L64.7481 49.9142L64.6671 48.9943L64.4817 48.8645L64.6996 48.2574L64.5328 48.0025L64.3823 47.3792L64.3315 46.1696C64.2327 45.9163 64.1763 45.7502 64.1624 45.6714C64.1532 45.6189 64.157 45.5641 64.174 45.5069C64.1601 45.4281 64.1509 45.3756 64.1462 45.3493L63.8937 45.0689L63.7896 43.7875L63.6738 43.3612L63.6809 42.71L63.3358 41.6742L63.8364 40.3674C64.6737 40.3552 65.2707 40.4395 65.6275 40.6203C65.9797 40.7748 66.2068 41.1409 66.3086 41.7187L66.3711 42.0732L66.7302 42.4973L66.7579 43.3454L67.1933 44.8933L67.0496 45.6904L67.3136 46.4968L67.4317 47.1664L67.193 47.6553L67.5543 48.3227L67.3944 48.7977L67.4314 49.2379L67.7442 49.6296L67.5749 50.5124L67.5192 50.8878L67.5817 51.2423L67.8482 51.6015L68.3997 50.8137C68.3303 50.4198 68.4153 50.134 68.6547 49.9564C68.6347 49.6892 68.705 49.4737 68.8657 49.31L68.7267 49.2126L69.1554 48.6496L69.2458 48.4712L69.1833 48.1167L69.7302 47.5329L69.8183 47.1111L70.1312 46.8123L71.3619 44.8081C71.2584 44.9889 70.9107 45.5511 70.3189 46.4949L70.3328 46.5736L70.363 46.284L70.7709 45.6028L71.0074 44.8706L70.9379 44.4767L71.494 44.1756L71.4825 43.6496L71.6123 43.4642L71.617 43.2603L71.5684 42.9846L72.0226 42.3358C72.0133 42.2833 72.0018 42.2177 71.9879 42.1389C71.9477 42.0647 71.9253 42.0145 71.9207 41.9883C71.8374 41.5155 72.0537 41.2066 72.5696 41.0615C72.7226 40.5471 73.0285 40.2088 73.4874 40.0467L73.6612 39.6505L73.7261 39.5578C73.9022 39.1747 74.2151 38.8759 74.6647 38.6612L74.9428 38.1654L75.8882 37.9987L76.4582 38.4668L76.9331 38.6268L76.9934 38.738L77.283 38.7682L77.5077 39.5815L78.2468 39.8574L78.1239 40.7726L78.7239 41.6416L78.9184 42.7446L79.4974 44.186L79.8263 45.5902L80.3267 46.3549L80.7436 47.3374C80.929 47.4672 81.0865 47.6696 81.2162 47.9446L81.96 48.0165L82.0989 48.8044L82.5693 49.1682L82.5901 49.2864L82.7546 49.298L82.9539 49.5066L83.0767 49.2818C83.0242 49.2911 83.0922 49.2927 83.2806 49.2865C83.5695 49.2356 83.8252 48.9197 84.0477 48.3389L84.4996 48.1374L84.583 47.9196C84.6248 47.6956 84.7546 47.5102 84.9724 47.3635L85.2551 47.3543L85.3849 47.1689L85.3895 46.965L85.4799 46.7866C85.7101 46.5565 85.8322 46.2506 85.8462 45.8691L86.1961 45.32L86.2124 44.9515L86.377 44.2726L87.0768 43.8649L88.2029 44.0319L88.7589 45.1118C88.7635 45.138 88.7813 45.162 88.8122 45.1836C88.8215 45.2361 88.8284 45.2755 88.833 45.3018ZM93.2564 23.6447C93.312 23.9598 93.1528 24.2857 92.7789 24.6224L92.7928 24.7012C92.4003 25.3932 92.0272 25.811 91.6735 25.9546L91.2076 26.7679L90.904 27.3494L90.0396 27.7456L89.7429 28.3665L89.1682 28.7928L88.3038 29.8794L87.5693 29.3996L87.5139 28.394L87.8221 27.6085C87.7836 27.2362 87.9381 26.8841 88.2857 26.552L88.2579 26.3944L88.4665 26.1952L88.4017 25.5973L89.0042 25.3286L88.9417 24.9741L89.4005 24.812C89.4129 24.2682 89.569 23.8481 89.8687 23.5515L89.973 23.4519L90.1677 23.1739L90.3161 22.1729C92.1235 22.2874 93.1036 22.778 93.2564 23.6447ZM100.956 43.8141C101.062 44.4181 101.024 44.8174 100.842 45.0121L100.673 45.2044L100.573 45.7906L99.9776 46.0987C99.8679 46.5513 99.65 46.9282 99.324 47.2293L98.9903 47.41L98.5755 48.0518L98.1236 48.2533C98.0231 48.7585 97.6863 49.0751 97.1132 49.2032C97.0745 49.2913 96.9842 49.4697 96.842 49.7385C96.4944 50.0705 96.1151 50.2999 95.7042 50.4265L95.5142 50.5006L95.3009 50.9038L94.5131 51.0427L93.9662 51.6265L92.1427 50.7295L91.1234 49.3252L90.7436 47.4019L90.5027 46.957L90.3642 43.4071L90.4939 43.2218C90.3457 42.8417 90.2392 42.4679 90.1743 42.1002C90.1327 41.8639 90.1258 41.3642 90.1537 40.601L90.1909 39.6603C90.1106 39.512 89.9754 39.3598 89.7855 39.2038L89.8898 38.4136L89.8089 37.4937L89.8668 37.3617C89.7201 37.1438 89.6081 36.8928 89.5309 36.6085C89.5479 36.5514 89.5626 36.4811 89.575 36.3977C89.5827 36.288 89.582 36.2069 89.5727 36.1544C89.4523 35.9319 89.3735 35.7156 89.3365 35.5055C89.2253 34.8753 89.5289 34.5239 90.2472 34.4514L90.7269 34.4074C91.0142 34.1943 91.1973 34.0808 91.2761 34.0669C91.8013 33.9743 92.2068 34.2006 92.4925 34.746L92.5203 34.9035C92.6809 35.2002 92.7867 35.4929 92.8376 35.7818C92.8793 36.0181 92.8831 36.1935 92.8491 36.3078L92.9207 38.326L93.2937 38.8289C93.377 39.3016 93.2935 39.7496 93.0432 40.1728L93.2841 40.6177L93.036 42.2049C93.0992 42.8707 93.1216 43.3813 93.103 43.7365L93.2766 44.7214L93.1375 45.3145L93.2464 45.7015L93.3273 46.6214L93.5311 47.3166L94.2054 47.6851L94.6642 47.523L94.7221 47.3909L95.0442 47.3747L95.5285 47.1269L95.8855 46.6171L96.0013 46.353L96.2701 46.265L96.3142 46.0541L96.4046 45.8757L96.6687 45.9916L96.9932 45.5282L97.2365 45.526L97.2667 45.2363L97.3454 45.2224L97.4081 44.8864L97.7348 44.6664L98.4207 44.1799C98.9507 43.6532 99.5045 43.3389 100.082 43.237L100.24 43.2092C100.561 43.3421 100.8 43.5438 100.956 43.8141ZM116.382 37.5197L116.271 38.2705C116.391 38.9533 116.447 39.4986 116.437 39.9064L116.27 40.342L116.347 40.7753L116.199 41.0858L116.178 41.6581L115.821 42.1678L115.719 43.2013L115.424 43.375L115.343 43.8361L114.919 44.1952L114.722 44.9204L114.291 45.2401L114.335 45.7198L113.635 46.1275C113.377 46.6604 113.01 47.0365 112.534 47.2558L112.384 47.323C112.113 47.9393 111.676 48.3007 111.072 48.4072C110.837 48.6111 110.549 48.7431 110.208 48.8033L109.862 49.1485L109.489 49.3362L109.047 49.8204L108.528 49.8713L108.004 50.1261L107.286 49.9684L105.571 50.1489L104.82 49.3471L103.794 48.5939L103.88 47.9289L103.053 46.6937L103.238 46.133L102.874 45.2223L102.967 44.5967C102.85 44.2383 102.777 43.9803 102.749 43.8228C102.662 43.3238 102.728 42.933 102.949 42.6503C102.929 42.3831 103.023 41.9197 103.232 41.2601L103.429 41.2253L103.301 40.9635L103.322 40.3912L103.218 39.8003C103.387 39.5269 103.477 39.3485 103.489 39.265L103.274 38.7344L103.246 38.5768C103.365 38.1767 103.39 37.7798 103.32 37.3858L103.946 36.0976C103.946 36.0976 103.968 36.0667 104.011 36.0049C104.081 35.9385 104.137 35.8744 104.18 35.8126L104.113 35.662L104.271 35.6342L104.743 34.8603L104.623 33.9474L105.545 33.4192C105.871 33.118 106.038 32.6824 106.046 32.1124L106.558 32.0221C106.819 31.8136 107.068 31.6885 107.304 31.6468C107.541 31.6052 107.773 31.6183 108.002 31.6863L108.442 31.6493L109.397 31.0748L110.039 31.4896L110.521 31.689L110.836 31.6334L111.482 31.8444L111.797 31.7888C112.194 32.0437 112.665 32.4076 113.208 32.8804L113.322 33.0634L113.625 33.1724L114.64 34.0901L115.715 35.8096L115.784 36.2035L116.382 37.5197ZM113.949 38.9236L113.875 38.7336C113.659 38.5821 113.519 38.4037 113.455 38.1982L113.539 37.9804L113.052 37.2945L112.999 36.5322L112.807 36.363C112.419 36.1606 112.198 35.9829 112.144 35.8299C111.889 35.7666 111.725 35.5248 111.651 35.1046L111.408 35.1069L110.796 34.4024L110.393 34.1892L109.51 34.0199L109.181 33.9967C109.023 34.0245 108.909 33.9905 108.838 33.8947L108.203 34.9002L107.885 36.0935L107.135 36.6727L107.093 37.1268L106.734 37.3933L106.757 38.4452L106.326 38.7649C106.285 39.1511 106.293 39.5018 106.349 39.8169L105.822 40.5189L106.04 40.6024C106.096 40.9175 106.026 41.2141 105.832 41.4921C105.795 41.7424 105.736 42.0235 105.655 42.3356L105.711 42.6507L105.621 42.8291L105.743 43.2949L105.498 44.4349L105.611 44.6179L105.806 45.7209L105.745 46.3002L105.882 46.8447L106.327 47.2943L106.913 47.394L107.124 47.4381L107.411 47.225L108.449 47.1232L108.537 46.7014L108.695 46.6737C108.852 46.6459 108.951 46.6691 108.991 46.7432L109.325 46.5625L109.661 46.6251L110.111 46.1803L110.169 46.0482L110.509 45.9069C110.642 45.5857 111.025 45.2204 111.656 44.8111L111.7 44.6002L112.391 43.9098L112.713 43.2032L113.288 42.7769L113.293 42.573L113.413 42.1049L113.323 41.5928L113.726 41.1156L113.835 40.812L113.99 40.5409C113.83 40.2443 113.738 40.0304 113.715 39.8991C113.673 39.6627 113.708 39.3993 113.819 39.1089L113.949 38.9236ZM144.959 35.4052C144.996 35.6153 144.874 35.9211 144.593 36.3227L144.278 37.0688L144.259 37.8844L143.926 38.0651L143.888 38.3154C143.491 38.5208 143.247 38.9023 143.156 39.4599C142.932 39.8785 142.663 40.1967 142.35 40.4145C142.241 40.569 142.139 40.6817 142.044 40.7528L141.909 41.142L141.569 41.2833L140.642 42.0154L139.33 42.4091L138.962 42.3929L138.392 42.6152L138.107 42.3812C137.707 42.2622 137.412 42.1246 137.222 41.9686C136.893 41.9454 136.612 41.7376 136.381 41.3452C135.841 40.8986 135.544 40.5178 135.489 40.2027L135.468 40.0845L135.109 39.6604L135.016 39.5955L134.655 38.9281L134.168 38.2422L134.087 37.3223L133.603 36.8796L132.415 33.5961C132.257 33.1635 132.151 32.7897 132.095 32.4746L131.982 32.2915L131.736 32.0505L131.465 32.5857L130.311 34.3326L129.944 35.2502L129.766 35.8503L129.444 36.557L129.184 36.9277L129.258 37.1177L128.922 38.4361L128.676 38.8856L128.296 39.0338L128.004 39.4509C128.097 39.9761 127.908 40.3615 127.436 40.6071L127.372 40.6997C127.237 41.3192 127.037 41.72 126.771 41.9022L126.514 42.5163C126.029 43.1434 125.706 43.5388 125.545 43.7025C125.513 43.979 125.408 44.2277 125.23 44.4486C125.191 44.5366 125.118 44.6579 125.01 44.8123C125.01 45.2727 124.698 45.6526 124.074 45.9522L123.661 46.1468C123.131 46.2132 122.645 45.9876 122.201 45.47L121.437 44.5894L121.467 43.6092L121.298 43.111L121.363 43.0184L121.312 42.4993L120.712 41.6303L120.944 41.102L120.696 40.6177L120.874 40.0176L120.793 39.0977L120.608 38.9679L120.826 38.3608L120.659 38.1059L120.509 37.4826L120.458 36.273C120.359 36.0197 120.303 35.8536 120.289 35.7748C120.279 35.7223 120.283 35.6675 120.3 35.6103C120.286 35.5315 120.277 35.479 120.273 35.4527L120.02 35.1723L119.916 33.8909L119.8 33.4646L119.807 32.8135L119.462 31.7777L119.963 30.4709C120.8 30.4586 121.397 30.5429 121.754 30.7237C122.106 30.8782 122.333 31.2443 122.435 31.8221L122.497 32.1766L122.857 32.6007L122.884 33.4488L123.32 34.9967L123.176 35.7938L123.44 36.6002L123.558 37.2698L123.319 37.7587L123.681 38.4261L123.521 38.9011L123.558 39.3414L123.871 39.733L123.701 40.6158L123.646 40.9912L123.708 41.3457L123.975 41.7049L124.526 40.9171C124.457 40.5232 124.542 40.2375 124.781 40.0598C124.761 39.7926 124.831 39.5771 124.992 39.4134L124.853 39.3161L125.282 38.753L125.372 38.5746L125.31 38.2201L125.857 37.6363L125.945 37.2146L126.258 36.9157L127.488 34.9115C127.385 35.0923 127.037 35.6545 126.445 36.5983L126.459 36.6771L126.489 36.3874L126.897 35.7062L127.134 34.9741L127.064 34.5801L127.62 34.279L127.609 33.753L127.739 33.5676L127.743 33.3637L127.695 33.088L128.149 32.4392C128.14 32.3867 128.128 32.3211 128.114 32.2423C128.074 32.1681 128.052 32.1179 128.047 32.0917C127.964 31.619 128.18 31.31 128.696 31.1649C128.849 30.6505 129.155 30.3123 129.614 30.1501L129.788 29.7539L129.852 29.6612C130.029 29.2782 130.341 28.9793 130.791 28.7646L131.069 28.2688L132.015 28.1021L132.584 28.5702L133.059 28.7302L133.12 28.8414L133.409 28.8716L133.634 29.6849L134.373 29.9608L134.25 30.876L134.85 31.745L135.045 32.848L135.624 34.2894L135.953 35.6936L136.453 36.4583L136.87 37.4408C137.055 37.5706 137.213 37.773 137.343 38.048L138.086 38.1199L138.225 38.9078L138.696 39.2716L138.716 39.3898L138.881 39.4014L139.08 39.61L139.203 39.3852C139.151 39.3945 139.219 39.3961 139.407 39.3899C139.696 39.339 139.952 39.0231 140.174 38.4423L140.626 38.2408L140.709 38.023C140.751 37.799 140.881 37.6136 141.099 37.4669L141.381 37.4577L141.511 37.2723L141.516 37.0684L141.606 36.89C141.836 36.6599 141.959 36.354 141.973 35.9725L142.322 35.4234L142.339 35.055L142.503 34.3761L143.203 33.9683L144.329 34.1353L144.885 35.2152C144.89 35.2415 144.908 35.2654 144.939 35.287C144.948 35.3396 144.955 35.3789 144.959 35.4052ZM157.224 31.4961L156.468 32.2792L155.344 32.3555L154.846 32.5246L153.803 32.8303L152.45 32.9877C152.249 33.0773 151.952 33.1568 151.558 33.2262L151.046 33.3165L150.121 33.6014L149.832 33.5713L148.402 33.9858C148.226 33.9086 148.085 33.8792 147.98 33.8977C147.823 33.9255 147.651 34.0236 147.464 34.1919L146.773 34.1918L146.025 34.3238L145.202 33.5752L145.063 32.7874L145.568 32.6577L145.872 32.0761L146.926 32.2964L147.26 32.1157C147.396 32.1188 147.582 32.0996 147.818 32.0579L148.015 32.0232L148.238 31.9027L148.266 32.0603L148.68 32.109L148.921 31.8634L149.447 31.8519L150.275 31.706L152.073 31.3077L152.186 31.4908L152.337 31.4236L152.515 31.514L153 31.2661C153.228 31.3341 153.5 31.3404 153.815 31.2848C154.025 31.2478 154.242 31.169 154.464 31.0485L155.122 31.095L155.595 31.0116C156.488 30.8542 157.031 31.0157 157.224 31.4961ZM175.04 12.4327C175.133 12.958 174.91 13.5388 174.372 14.1751L174.023 14.0337L173.455 14.4994L172.396 13.102C172.274 12.7174 172.111 12.4076 171.907 12.1728L171.692 12.3326L170.96 12.0962L170.716 12.0985L170.26 12.5039L169.391 12.4134L169.136 12.5802C168.946 12.8845 168.733 13.0575 168.496 13.0992C168.391 13.1177 168.297 13.1208 168.214 13.1084L168.283 13.5023C168.095 13.9688 167.857 14.5388 167.569 15.2123C167.589 15.4795 167.583 15.9816 167.55 16.7184L167.238 17.0173L167.156 17.4784L167.022 17.8676L167.358 18.6208L167.01 19.4132L166.957 20.0318L166.855 20.3748L166.991 20.9193L166.69 22.4347L166.887 23.0904C166.879 23.2001 166.786 23.5956 166.609 24.2768L166.597 24.4413C166.841 24.2899 167.053 24.1849 167.232 24.1263L167.475 24.124C167.523 24.0884 167.634 24.0282 167.809 23.9433L167.927 23.9224C167.927 23.9224 168.378 23.87 169.28 23.7651L169.385 23.6654C169.691 23.5574 169.87 23.4987 169.922 23.4894C170.185 23.4431 170.485 23.4578 170.824 23.5336C171.125 23.3992 171.394 23.3112 171.63 23.2695C171.84 23.2325 172.031 23.2395 172.202 23.2905L172.557 23.2279L173.09 23.2558C174.04 23.1154 174.58 23.4128 174.709 24.1482C174.746 24.3582 174.751 24.6147 174.723 24.9174L173.041 25.7421L171.989 25.7651C171.714 25.8949 171.244 26.0724 170.58 26.2979L170.348 26.1356C170.197 26.3519 169.964 26.4878 169.648 26.5434L169.215 26.6198L168.202 27.3264L167.602 27.1479L167.405 27.1826C167.242 27.4822 167.009 27.6993 166.708 27.8336L166.789 28.063L166.729 28.6423L167.083 29.2703L166.751 30.3848L167.147 31.9396L167.048 32.5259L167.263 33.0565L167.022 33.9926L167.224 34.4445C167.254 34.4661 167.279 34.5294 167.298 34.6345C167.302 34.6607 167.301 34.9589 167.293 35.5289C167.281 36.0727 167.321 36.6071 167.413 37.1324L167.476 37.4869C167.507 37.5085 167.681 37.6538 167.999 37.9226L167.842 38.6409L168.256 39.3801L168.171 40.0451L168.944 41.8989L169.437 44.0053L170.207 44.682L170.005 45.6111C170.417 46.1071 170.654 46.5257 170.714 46.8671L170.735 46.9853C170.744 47.0378 170.769 47.1012 170.809 47.1753C170.827 47.2804 170.839 47.346 170.843 47.3723C171.019 48.3702 170.534 48.9973 169.388 49.2536L168.962 48.6789L168.44 48.4865L168.237 47.7913L167.06 45.7243L166.983 45.291C166.795 44.8368 166.694 44.5703 166.68 44.4915C166.657 44.3602 166.654 44.266 166.671 44.2088L166.435 43.56L166.435 42.8695L166.24 42.457L166.087 41.5904L165.256 39.1781L165.321 39.0854L165.165 38.666L165.147 38.1006L164.781 37.6371L164.941 37.1622L164.58 35.1138L164.735 34.8427L164.485 33.4245L164.547 33.0886L164.214 31.8882L164.288 31.3878C164.262 30.932 164.244 29.9063 164.233 28.3106L164.075 28.3384L163.536 28.2711L162.945 28.3753L161.869 28.7273L161.172 28.6879L160.071 29.1256L159.664 29.1163C159.537 29.1657 159.382 29.2066 159.198 29.2391C157.95 28.9176 157.261 28.6193 157.131 28.3444L156.816 27.7094C156.977 26.625 157.359 26.0296 157.963 25.9231C157.989 25.9184 158.452 25.9316 159.351 25.9626L161.65 25.6386L162.711 25.2077L163.663 25.0804L164.025 25.0573L164.053 24.5244L163.93 23.3681L164.044 22.8607L163.787 22.0936C163.736 21.8048 163.797 21.5368 163.97 21.2896L163.854 20.8633L164.204 20.3141L164.193 19.0976L164.315 18.8729L164.107 18.3816C164.357 17.9584 164.462 17.6286 164.42 17.3923C164.366 17.2393 164.339 17.1629 164.339 17.1629C164.376 17.3729 164.466 16.7342 164.61 15.2466L164.851 15.001L164.738 14.1275L164.851 14.3105L164.831 14.1923C164.752 13.7459 164.878 13.3852 165.208 13.1103L165.382 12.7141L165.653 11.4884L165.732 11.4745C166.021 11.4235 166.135 11.2274 166.075 10.886L166.047 10.7284L167.081 10.14L167.396 10.0844C167.719 9.91918 168.064 9.80414 168.432 9.73931L168.708 9.69069L168.891 9.57718L169.723 9.2274L170.789 9.28317C170.846 9.30017 170.958 9.32104 171.125 9.34577C171.369 9.19442 171.543 9.10949 171.648 9.09096C172.016 9.02614 172.406 9.24168 172.818 9.73761L173.439 10.0343L173.972 10.7527L174.667 11.2394L175.019 12.3146L175.04 12.4327ZM190.079 18.9198L189.993 20.2753L188.571 20.7292L187.873 21.3802L187.319 21.2342L186.823 21.6466L186.274 21.9871L185.929 22.3323L185.957 22.4899L185.199 23.0297L184.772 23.836L184.497 23.8846C184.155 24.4051 183.902 24.7341 183.737 24.8716L183.345 25.8749L183.162 25.9884C183.12 26.2124 183.084 26.5437 183.053 26.9824L182.536 27.2766L182.383 27.791L182.137 28.2405L182.163 28.8453L181.868 29.019L181.973 29.6099L181.875 29.7489C181.977 29.8663 182.095 29.9946 182.227 30.1336L181.678 30.4741L181.69 31.0001L181.414 31.7393L181.74 32.2097L181.353 33.0091C181.452 33.2624 181.511 33.4416 181.529 33.5467C181.534 33.5729 181.543 33.6254 181.557 33.7042C181.545 33.7876 181.543 33.8556 181.553 33.9081L181.694 34.2488L182.489 34.8397L182.136 35.8361L181.726 36.274L180.72 37.0199L179.159 36.686L178.999 35.78L178.779 35.4533L178.793 34.8416C178.666 34.4306 178.584 34.1201 178.547 33.91C178.533 33.8312 178.528 33.7239 178.531 33.5879C178.508 33.4566 178.492 33.3647 178.482 33.3122L178.374 32.9252C178.157 32.7738 178.028 32.5799 177.987 32.3436C177.95 32.1335 178 31.8809 178.137 31.5859C178.114 31.4546 178.019 31.0653 177.85 30.418L177.948 30.279L177.739 29.7877L177.735 29.3011L177.607 29.0393L177.566 28.1124L177.26 27.7602L177.341 27.2991L177.093 26.8147C177.092 26.6525 177.068 26.4401 177.021 26.1775C176.952 25.7836 176.853 25.5302 176.725 25.4175L176.841 25.1533L176.558 24.472L176.113 24.0225L176.199 23.3575L176 23.1489L175.676 22.2313L175.62 21.9161C175.461 21.7817 175.361 21.5963 175.319 21.36C175.226 20.8347 175.725 20.2864 176.816 19.715L177.835 19.7383L178.164 20.452L178.649 20.8947L178.718 21.9791C178.889 22.4904 179.083 23.052 179.299 23.6637L179.529 24.2732C179.564 24.3211 179.616 24.4609 179.684 24.6926C179.712 24.8502 179.676 25.0325 179.577 25.2394L179.834 26.0064L179.908 26.887L179.82 27.3087L179.966 27.4454L180.114 27.8254C180.24 27.6138 180.297 27.4007 180.286 27.1859L180.339 26.5673C180.39 26.3958 180.488 26.2568 180.631 26.1502L180.685 25.5316L181.181 25.1192L181.176 24.6326L181.526 24.0835L181.737 23.437C182.014 23.0091 182.3 22.7149 182.597 22.5543L182.655 22.4222L182.912 21.8082L183.292 21.66L183.389 21.521L183.505 21.2568L183.897 20.9441L184.085 20.6266L184.328 20.6244L184.615 20.4112L184.731 20.1471L185.162 19.8274L185.756 19.276L186.645 18.7941C187.004 18.6768 187.196 18.6158 187.222 18.6112C187.227 18.6374 187.229 18.6506 187.229 18.6506C187.203 18.6552 187.192 18.6706 187.197 18.6969L187.236 18.69C187.341 18.6714 187.49 18.5911 187.681 18.449C187.794 18.3208 187.969 18.2359 188.205 18.1942C188.31 18.1757 188.498 18.1696 188.77 18.1758C189.458 18.0816 189.894 18.3296 190.079 18.9198ZM204.921 28.0818C204.976 28.3969 204.809 28.8325 204.42 29.3886C204.363 29.8319 204.226 30.208 204.01 30.5169L203.78 30.598L203.479 31.4229L202.791 31.6661L202.126 32.2708L201.857 33.0493L201.41 33.0469C201.144 33.2291 200.921 33.3496 200.742 33.4083L200.568 33.8045C200.485 33.7921 200.365 33.7998 200.207 33.8276C199.866 33.8878 199.579 34.182 199.347 34.7103L198.712 34.3348C198.612 34.3796 198.457 34.4205 198.247 34.4576C197.905 34.5178 197.607 34.5162 197.352 34.4528L196.682 34.5709L196.333 34.4295C195.307 34.4479 194.609 34.1783 194.24 33.6205L194.22 33.5024L193.705 33.3494L193.351 32.7214L192.822 32.4896L192.718 31.8987L191.94 30.2488L191.769 28.8168L191.815 28.1587L191.669 27.3315L191.755 26.6665L191.667 26.3977L191.859 25.8763L191.795 25.969C191.753 25.7327 191.775 25.4716 191.86 25.1858L191.825 24.9889L191.54 24.0643C191.461 23.6178 191.589 23.1892 191.922 22.7783C191.939 22.7212 191.939 22.6401 191.92 22.535C191.902 22.43 191.812 22.2292 191.651 21.9325C191.512 21.605 191.431 21.3756 191.408 21.2443C191.353 20.9292 191.374 20.587 191.471 20.2178C191.737 20.4959 192.066 20.6002 192.46 20.5308L192.578 20.5099C192.612 20.3956 192.71 20.2566 192.87 20.0929C192.965 19.3993 193.156 18.7969 193.445 18.2856L193.575 18.1003C193.557 17.9952 193.582 17.6793 193.652 17.1526L193.967 17.097L194.011 16.8861L194.312 16.7518C194.406 16.5185 194.464 16.3865 194.486 16.3556C194.529 16.2938 194.788 16.0722 195.262 15.6907C195.335 15.4883 195.462 15.2898 195.645 15.0952C195.741 15.0242 195.863 14.9485 196.011 14.8682L196.127 14.6041C196.794 14.2427 197.22 14.0458 197.404 14.0134C197.614 13.9763 197.82 13.9941 198.022 14.0667L198.212 13.9926L198.516 14.1016C198.873 14.2824 199.223 14.4238 199.565 14.5258L200.325 14.9198L200.353 15.0773C201.041 15.4435 201.461 16.06 201.613 16.9266L201.565 17.3414L201.912 18.6205L201.599 18.9193L201.386 20.013L200.783 20.9722L200.855 21.6094C200.121 22.3616 199.432 22.9841 198.788 23.4767C198.616 23.8861 198.281 24.1347 197.782 24.2227L197.664 24.2436L196.999 24.8482L196.369 24.9594L195.493 25.52L194.721 25.2905L194.642 25.3044C194.627 25.5237 194.63 25.8481 194.652 26.2776L194.378 26.5695L194.422 27.0492L194.304 27.7605C194.494 28.3769 194.605 28.777 194.637 28.9608L194.5 29.1068C194.561 29.4482 194.592 29.7 194.593 29.8622C194.598 29.8885 194.592 29.9302 194.575 29.9873C194.584 30.0398 194.591 30.0792 194.595 30.1055C194.632 30.3156 194.768 30.4678 195.001 30.562C195.135 30.8633 195.301 31.0371 195.499 31.0835L195.816 31.2712L196.725 31.3547L196.745 31.4729L197.075 31.4961L198.428 31.3387L199.195 31.0817L199.54 30.7364L199.763 30.616L200.052 29.9556L200.242 29.8815L201.171 29.3927C201.244 29.1904 201.387 29.0027 201.6 28.8297L201.684 28.6119C202.19 28.4143 202.444 28.0853 202.444 27.6249C202.747 27.1924 203.187 26.9253 203.765 26.8234L203.922 26.7956C204.523 27.2854 204.856 27.7141 204.921 28.0818ZM199.021 17.4244C199.007 17.3456 198.939 17.195 198.819 16.9725L198.615 16.9679L198.543 17.0212C198.517 17.0258 198.464 17.0351 198.386 17.049C198.338 17.0845 198.288 17.1069 198.235 17.1161C198.209 17.1208 198.167 17.1146 198.11 17.0976C198.057 17.1068 198.018 17.1138 197.992 17.1184L197.646 17.4636L197.299 17.5655L197.116 17.679L196.599 18.6637L196.221 19.0553L195.785 20.2694L195.473 20.5683C195.473 21.0286 195.356 21.4418 195.123 21.8079L195.014 22.1114C195.27 21.8767 195.582 21.7269 195.95 21.662L196.205 21.4952L196.26 21.1199L196.819 21.062L197.051 20.5337L197.287 20.4921L197.748 20.5732L197.841 19.9476L198.117 19.899L198.04 19.4657L198.531 19.2572L198.629 19.1182L198.645 18.7498L199.025 17.911C199.054 17.7704 199.053 17.6082 199.021 17.4244ZM219.77 25.4635C219.825 25.7786 219.659 26.2142 219.269 26.7703C219.212 27.2136 219.075 27.5897 218.859 27.8987L218.629 27.9797L218.328 28.8046L217.64 29.0478L216.975 29.6525L216.706 30.431L216.259 30.4286C215.993 30.6108 215.771 30.7313 215.591 30.79L215.417 31.1862C215.334 31.1738 215.214 31.1815 215.056 31.2093C214.715 31.2695 214.428 31.5637 214.196 32.092L213.561 31.7166C213.461 31.7613 213.306 31.8023 213.096 31.8393C212.754 31.8995 212.456 31.8979 212.201 31.8345L211.532 31.9526L211.182 31.8112C210.156 31.8296 209.459 31.56 209.089 31.0023L209.069 30.8841L208.554 30.7311L208.2 30.1031L207.671 29.8713L207.567 29.2804L206.789 27.6305L206.618 26.1985L206.664 25.5404L206.518 24.7132L206.604 24.0482L206.516 23.7794L206.708 23.258L206.644 23.3507C206.602 23.1144 206.624 22.8533 206.709 22.5675L206.674 22.3706L206.389 21.446C206.31 20.9996 206.438 20.5709 206.771 20.16C206.788 20.1029 206.788 20.0218 206.769 19.9167C206.751 19.8117 206.661 19.6109 206.5 19.3143C206.361 18.9867 206.28 18.7573 206.257 18.626C206.202 18.3109 206.223 17.9687 206.32 17.5995C206.586 17.8776 206.915 17.982 207.309 17.9125L207.428 17.8917C207.462 17.7773 207.559 17.6383 207.72 17.4746C207.814 16.781 208.006 16.1786 208.294 15.6673L208.424 15.482C208.406 15.3769 208.431 15.061 208.501 14.5343L208.816 14.4787L208.86 14.2679L209.161 14.1335C209.256 13.9003 209.313 13.7682 209.335 13.7373C209.378 13.6755 209.637 13.4539 210.111 13.0724C210.184 12.87 210.312 12.6715 210.494 12.4769C210.59 12.4059 210.712 12.3302 210.86 12.2499L210.976 11.9858C211.643 11.6244 212.069 11.4275 212.253 11.3951C212.463 11.358 212.669 11.3758 212.871 11.4485L213.061 11.3743L213.365 11.4833C213.722 11.6641 214.072 11.8055 214.415 11.9075L215.174 12.3015L215.202 12.4591C215.89 12.8253 216.31 13.4417 216.463 14.3083L216.414 14.7231L216.761 16.0022L216.448 16.301L216.235 17.3947L215.632 18.3539L215.704 18.9911C214.97 19.7433 214.281 20.3658 213.637 20.8585C213.466 21.2678 213.13 21.5165 212.631 21.6044L212.513 21.6253L211.848 22.23L211.218 22.3411L210.342 22.9017L209.57 22.6722L209.491 22.6861C209.476 22.9055 209.479 23.2299 209.501 23.6593L209.227 23.9512L209.271 24.4309L209.153 25.1422C209.343 25.7586 209.454 26.1587 209.486 26.3425L209.35 26.4885C209.41 26.8299 209.441 27.0817 209.442 27.2439C209.447 27.2702 209.441 27.3119 209.424 27.369C209.433 27.4216 209.44 27.4609 209.444 27.4872C209.481 27.6973 209.617 27.8495 209.85 27.9437C209.984 28.245 210.15 28.4188 210.348 28.4652L210.665 28.6529L211.574 28.7364L211.595 28.8546L211.924 28.8778L213.277 28.7205L214.044 28.4634L214.389 28.1182L214.612 27.9977L214.901 27.3374L215.091 27.2632L216.021 26.7744C216.093 26.5721 216.236 26.3844 216.449 26.2114L216.533 25.9936C217.039 25.796 217.293 25.467 217.293 25.0066C217.596 24.5742 218.036 24.307 218.614 24.2051L218.771 24.1773C219.372 24.6671 219.705 25.0958 219.77 25.4635ZM213.87 14.8061C213.856 14.7273 213.789 14.5767 213.668 14.3543L213.464 14.3496L213.392 14.4029C213.366 14.4075 213.314 14.4168 213.235 14.4307C213.187 14.4662 213.137 14.4886 213.084 14.4978C213.058 14.5025 213.016 14.4963 212.959 14.4793C212.906 14.4885 212.867 14.4955 212.841 14.5001L212.496 14.8453L212.148 14.9472L211.965 15.0607L211.448 16.0455L211.07 16.437L210.634 17.6511L210.322 17.95C210.322 18.4103 210.205 18.8235 209.972 19.1896L209.863 19.4931C210.119 19.2584 210.431 19.1086 210.799 19.0437L211.054 18.8769L211.109 18.5016L211.668 18.4437L211.9 17.9155L212.136 17.8738L212.597 17.9549L212.69 17.3293L212.966 17.2807L212.889 16.8474L213.38 16.6389L213.478 16.4999L213.494 16.1315L213.874 15.2927C213.904 15.1522 213.902 14.99 213.87 14.8061Z" fill="black"/>
<g clip-path="url(#clip0_9_126)">
<path class="bd-svg-black" d="M169.876 58.5403C171.2 59.3952 172.673 59.9901 173.923 60.9749C184.729 69.8452 197.422 72.2721 210.681 71.9083C215.246 71.7847 220.122 70.3684 224.267 68.2681C236.171 62.4393 246.209 54.1415 253.918 43.2789C256.146 40.1529 257.8 36.5207 258.936 32.5877C257.922 33.2991 256.806 34.0379 255.82 34.852C252.936 37.1642 250.08 39.5789 247.039 41.7133C245.747 42.6094 244.01 43.0747 242.348 43.41C241.735 43.5743 240.569 42.8972 240.302 42.309C240.035 41.7208 240.345 40.428 240.828 40.1886C248.796 35.1947 254.98 28.0395 261.663 21.5204C264.009 19.2425 265.855 19.1876 267.823 21.6292C272.627 27.7094 275.907 34.6379 277.71 42.1822C277.765 42.3874 277.438 42.8046 276.991 43.5844C270.359 42.9421 270.438 35.8833 266.074 31.4447C265.689 32.8674 265.453 34.0302 265.06 35.0152C256.451 54.3662 241.647 67.3498 222.655 75.7374C219.83 77.0442 216.507 77.7148 213.305 78.0229C201.547 79.0843 190.272 77.0471 179.881 71.3642C176.538 69.5109 173.69 66.6452 170.897 63.9848C169.75 62.9726 169.283 61.2285 168.592 59.8742C169.02 59.4296 169.448 58.985 169.876 58.5403Z" fill="black"/>
</g>
<defs>
<clipPath id="clip0_9_126">
<rect width="110" height="43.5" fill="white" transform="translate(165 46.4701) rotate(-15)"/>
</clipPath>
</defs>
</svg>
