<svg width="216" height="152" viewBox="0 0 216 152" fill="none" xmlns="http://www.w3.org/2000/svg">
<path class="bd-svg-black" d="M61.4805 50.0685C61.536 50.3836 61.4325 50.7945 61.1698 51.3012C60.8469 51.9267 60.4112 52.4504 59.8627 52.872C59.685 53.0929 59.4803 53.2373 59.2486 53.3052C58.8315 53.7037 58.402 53.9554 57.9602 54.0604C57.8088 54.2767 57.5237 54.5029 57.1051 54.7392L56.3891 54.8249L55.7842 55.5408L55.008 55.5152L54.7785 55.5962L54.2016 55.7792C53.8169 55.9012 53.4933 55.9853 53.2306 56.0316C53.1781 56.0409 53.0839 56.044 52.9479 56.0409C52.8166 56.064 52.7116 56.0826 52.6328 56.0964L52.116 56.3906L51.3421 56.6084L50.4291 56.7287L50.0305 57.0021L50.1696 57.0994C49.5655 57.2059 49.1021 57.3418 48.7792 57.507L48.5753 57.5024L46.9394 57.669L44.6407 57.9931L43.8714 58.0069C43.6536 58.1536 43.3871 58.2547 43.072 58.3103C42.7043 58.3751 42.3027 58.3241 41.8671 58.1572L41.1673 58.5649L40.7108 58.2798C39.6032 58.4481 38.9413 58.4565 38.725 58.3051L38.5536 58.2541C38.6324 58.2402 38.4138 58.3058 37.8978 58.4509L36.1809 57.6976L35.4441 57.6651C34.9606 57.5337 34.5149 57.2332 34.1072 56.7635C33.7659 56.3634 33.5581 55.9532 33.4841 55.533C33.4331 55.2442 33.4741 54.7089 33.6071 53.9273L34.2421 52.9217L35.1945 52.7944C35.3536 52.4685 35.6302 52.2708 36.0241 52.2013C36.8645 52.0532 37.4027 52.6487 37.6389 53.9881C37.1106 54.2166 36.8008 54.3796 36.7097 54.4769C36.6061 54.6576 36.4393 54.863 36.2091 55.0932L36.2299 55.2113L36.6192 55.3458L37.1822 55.7745L38.7046 55.4249L40.074 55.5896L42.1154 55.189L42.9473 55.5297L43.2671 55.2702C43.4246 55.2425 43.6285 55.2471 43.8788 55.2842L44.9238 55.2218L45.0373 55.4049L45.6676 55.2937C46.2392 55.0034 46.5644 54.8513 46.6432 54.8374C46.7745 54.8143 46.939 54.8259 47.1367 54.8722C47.3638 54.778 47.6612 54.6985 48.0289 54.6337C48.2915 54.5874 48.5325 54.572 48.7518 54.5874C48.9171 54.45 49.118 54.3604 49.3543 54.3187C49.6432 54.2678 49.9019 54.2763 50.1305 54.3443L50.9555 53.9552L51.3055 53.4061L52.8302 53.2997C53.5501 52.929 54.1332 52.7044 54.5797 52.6256L54.7766 52.5909C54.9373 52.4272 55.0833 52.3338 55.2146 52.3106C55.2934 52.2967 55.39 52.3068 55.5043 52.3408C55.5043 52.3408 55.6263 52.2651 55.8704 52.1137L55.8148 51.7986L56.6421 51.6527C56.7842 51.384 57.0893 51.1948 57.5574 51.0852C57.8649 50.6789 58.1345 50.4418 58.3662 50.3739C58.3662 50.3739 58.4435 50.1978 58.598 49.8456C58.5563 49.6093 57.6256 49.2454 55.806 48.7539L55.4492 48.5731C54.8884 48.6178 54.4389 48.6023 54.1006 48.5266C53.9168 48.559 53.7438 48.5759 53.5816 48.5775L53.5028 48.5914C53.3715 48.6145 52.8316 48.5472 51.8831 48.3895C51.5572 48.2304 51.2367 48.1786 50.9215 48.2342C50.8165 48.2527 50.6636 48.3067 50.4627 48.3963L49.6749 48.5352L49.5359 48.4379C49.1018 48.4332 48.7527 48.3729 48.4885 48.257L48.0436 48.4979L46.7183 48.1223L45.9304 48.2613L45.3628 48.0364L44.5749 48.1753L44.422 47.9992L43.7917 48.1104L43.1291 47.5773L42.8533 47.6259C42.0392 47.7695 41.3812 47.7231 40.8792 47.4866L40.7865 47.4217C40.1763 47.3398 39.7052 47.125 39.3731 46.7774L38.5923 46.2652L37.9784 45.3174L37.3946 44.7705L37.3067 43.1207L38.0577 41.851C38.2106 41.7969 38.2987 41.6054 38.3219 41.2764C38.3961 41.2362 38.5158 41.1474 38.6811 41.0099L40.4956 39.5527C40.7675 39.5589 40.956 39.5528 41.061 39.5342C41.4287 39.4694 41.7863 39.271 42.1339 38.9389L42.3703 38.8972L42.3842 38.976L42.7156 38.552L42.9125 38.5173C43.6973 38.054 44.3655 37.7737 44.917 37.6764L45.1139 37.6417L45.4754 37.6186L46.0038 37.1599C46.1567 37.1058 46.3645 37.0556 46.6271 37.0093L46.8635 36.9677C47.0473 36.9353 47.3578 36.8534 47.795 36.7222C48.2585 36.5863 48.6192 36.4821 48.8772 36.4095L49.5793 36.2451L50.5456 35.5061C50.6337 35.5447 50.8391 35.7116 51.1619 36.0067L52.0285 35.8538C52.1861 35.8261 52.4889 35.8539 52.9368 35.9374L53.2126 35.8888C53.8429 35.7776 54.3913 35.8163 54.8577 36.0049C56.3098 36.1008 57.1284 36.674 57.3137 37.7245C57.4711 38.6174 56.8438 39.2831 55.4319 39.7216L55.0334 39.3045C54.95 39.2921 54.7963 39.2651 54.5723 39.2233C54.3746 39.1769 54.2209 39.1499 54.1112 39.1422L53.2446 39.295L52.7742 38.9311L52.1578 39.121L51.8728 39.5775L50.8093 39.0745L49.8129 39.4127L48.5431 39.3522C47.7908 39.539 47.1751 39.8101 46.6962 40.1653L46.6244 40.2186C46.5548 40.285 46.4722 40.3537 46.3764 40.4248C46.3022 40.4649 46.252 40.4873 46.2258 40.4919L45.6326 40.3528L44.6199 41.0594L42.6688 41.9721L42.1752 41.9373L41.4058 42.6416L41.0119 42.711L40.8381 43.1072L40.1081 43.8046L40.2285 44.0271C40.2285 44.0271 40.3984 44.146 40.7383 44.384L41.153 44.4327L41.8528 44.7155L43.1503 44.9335L43.7481 44.8687L44.9229 45.3114L45.2172 45.1377C46.0065 45.1609 46.5557 45.2807 46.8646 45.4971L47.0036 45.5944L47.0824 45.5805C47.0824 45.5805 47.3728 45.6918 47.9536 45.9143L48.1807 45.5899L49.1331 45.4626L49.3046 45.5136L49.856 45.4164L50.4839 45.7524L50.7597 45.7038C51.2061 45.6251 51.6116 45.6213 51.9762 45.6924C52.0025 45.6878 52.1314 45.6515 52.3632 45.5836C52.8359 45.5002 53.3982 45.6177 54.05 45.936L54.5019 45.7345L54.8842 45.8295L55.5538 45.7114L56.8351 46.2979L58.0378 46.2077L58.6216 46.7546C59.6117 47.1486 60.2751 47.5326 60.6119 47.9065C60.9702 48.2495 61.2165 48.8017 61.3508 49.5633C61.3601 49.6159 61.3871 49.6923 61.4319 49.7927C61.4504 49.8978 61.4666 49.9897 61.4805 50.0685ZM79.983 45.5469L79.7186 46.812L80.1727 47.5443L80.0568 47.8084L80.0104 48.4665L79.7925 49.0735L79.6488 49.1801L79.702 49.9424L79.0068 50.1462C78.6993 50.5525 78.3672 50.8954 78.0103 51.1749L77.767 51.1772L77.2108 51.4784L76.8633 51.5803L76.1634 51.988L75.2273 51.7469L75.0953 51.6889L74.4325 51.8464L74.604 51.8974L73.4732 51.9343L72.5301 52.3443L72.0737 52.0592L71.2603 52.2839L70.9035 52.1031C70.8772 52.1077 70.7745 52.1394 70.5953 52.1981L70.637 52.4344C70.6787 52.6708 70.6809 52.9141 70.6438 53.1643L70.894 53.8919L70.6483 54.3414C70.8027 54.9099 70.9054 55.3386 70.9563 55.6275L71.0118 56.6331L71.4333 58.1022L71.1876 58.5517L71.4494 59.1148L71.4007 59.5296L71.6578 59.6061L71.762 60.197C71.8423 60.3453 71.8894 60.4588 71.9033 60.5376C71.945 60.774 71.8353 60.9964 71.5742 61.2049L71.829 61.7286L71.6876 62.0785L71.8867 63.6681C72.132 65.5203 71.8871 66.5112 71.1517 66.6409C70.9942 66.6686 70.5161 66.6446 69.7174 66.5688L69.6272 65.3662L69.0853 63.6746L69.3542 62.8961L69.2407 62.0225L68.8748 60.8686L69.0996 60.3009L68.5853 59.4574L68.7777 58.936L68.4025 58.1899L68.5926 57.4252C68.5123 57.2769 68.3818 57.151 68.201 57.0475C68.0466 56.9393 67.9647 56.859 67.9555 56.8065C67.9416 56.7277 68.0196 56.6327 68.1895 56.5215C68.1494 56.4474 68.1131 56.3184 68.0807 56.1345C68.0205 55.7931 68.0205 55.3328 68.0809 54.7535L67.775 54.4013L67.8029 53.8683L67.4647 53.5624L67.7428 53.0666L67.3838 51.952L67.3354 50.2952L66.9693 49.8318L67.2707 49.0069L66.7216 48.6569L66.8653 47.8599L66.5548 47.7115L66.4762 47.0349L66.5667 46.166L66.5389 46.0084L66.5505 45.8439L66.4741 45.4106L66.4857 45.2461L66.1776 44.6505L66.2565 43.9461L65.9692 43.4688L66.0226 42.8501L65.8372 42.7203L65.8165 41.9116L65.6219 41.4991L65.6312 41.0913L65.4644 40.8364L64.1574 41.7168L64.1158 41.4804L63.847 41.5684L63.4831 42.0387L63.1286 42.1013L62.767 42.8149L62.3453 42.7268L62.2178 43.1554C60.7967 42.6207 60.0468 42.1302 59.9681 41.6837C59.9125 41.3686 59.9844 41.0851 60.1837 40.8334L60.0401 40.2494C60.7013 39.6996 61.3579 39.3537 62.0098 39.2116L62.2369 38.8873L63.4072 38.1529L63.6343 37.8285L64.7512 37.7128L64.9343 37.5993L65.0457 36.1581L66.0258 36.1883L66.8367 37.1014L67.1287 36.6843L67.9281 37.0714C68.2695 37.0112 68.6093 37.019 68.9476 37.0947L69.2071 37.4145L69.462 37.2477L69.8188 37.4285C70.0026 37.3961 70.1494 37.3838 70.2591 37.3915L70.2614 37.6348L71.0794 37.2062L71.596 37.6026L72.3862 37.7069L73.0094 38.2469L74.059 38.6711L74.1123 38.7429L74.9024 38.8473L74.9441 39.0837C75.182 39.2042 75.3766 39.3865 75.5279 39.6306L75.8778 39.772L76.1906 40.1636L76.6633 40.0803L76.8022 40.8681L77.1266 41.0952L77.254 41.3571L77.6618 41.3664C77.8208 41.9612 78.0818 42.4432 78.4448 42.8124L78.4934 43.0882L78.9568 43.4126L78.9891 44.0568L79.4293 44.7103L79.6933 45.5167L79.983 45.5469ZM77.1327 46.6587L77.0586 46.4687L77.0702 46.3042L76.7088 45.6368L76.8039 45.2545L76.5908 44.9671L76.4819 44.5801L76.0556 44.0054L75.8217 43.5999L75.0502 42.6799L74.508 42.3693L74.1142 41.7483L73.7319 41.6532L72.9557 40.9371L72.3393 41.127L71.7555 40.5801L71.3755 40.7283L71.0094 40.2649L70.8449 40.2533L70.2934 40.3505L69.9342 40.6169L69.5635 40.3573L69.1835 40.5056L68.9773 40.2576L68.2474 40.2645L68.3701 40.7302L68.4233 41.4926L68.6573 41.8981L69.2991 42.313L69.0325 43.3348L69.1761 43.9187L69.1875 45.1352C69.3542 45.6203 69.5859 46.0127 69.8825 46.3124L69.8013 46.7735C69.8322 46.7952 69.8499 46.8191 69.8546 46.8454C69.8685 46.9242 69.7843 47.0609 69.6019 47.2555L69.9402 47.5614L69.8266 48.0688L69.8381 48.5948L70.0535 49.1255L70.1044 49.6445L70.9317 49.4986C71.0275 49.4276 71.1673 49.3759 71.3511 49.3435C71.5875 49.3018 71.8114 49.3435 72.0231 49.4687C72.0493 49.464 72.0995 49.4417 72.1737 49.4015C72.2262 49.3922 72.2656 49.3853 72.2919 49.3807C72.3706 49.3668 72.5197 49.3676 72.7391 49.383C72.8827 49.2765 73.0202 49.2116 73.1515 49.1885C73.3616 49.1514 73.5679 49.1692 73.7702 49.2418L74.1247 49.1793L74.4538 49.2025L75.1999 48.8273L75.8997 49.1101C76.1499 49.1472 76.2488 49.1704 76.1963 49.1796L76.8127 48.2992L76.7943 47.7338L76.9773 47.6203L76.8036 47.326L77.0238 46.9622L77.1327 46.6587ZM97.0579 32.0975L96.7542 32.6791L97.2361 33.5689L96.8282 34.2501L96.7771 35.1121L96.6936 35.3299L96.8071 35.5129C96.872 35.8806 96.8287 36.1726 96.6772 36.3888L96.6193 36.5209L96.6471 36.6784C96.7583 36.8484 96.8278 37.0121 96.8556 37.1697C96.8787 37.301 96.8818 37.3952 96.8648 37.4524L96.932 37.603L96.8508 38.0641L97.0523 38.516L96.7928 38.8867L97.0082 39.4173L97.2931 39.6514L96.9942 40.0291L97.1053 40.6593L96.9407 41.3382L97.2488 41.9338L97.068 42.2906L97.5106 42.4969L97.1188 43.5002L97.1003 43.6253L97.5081 43.6346L97.3921 44.5893L97.4199 44.7468C97.4523 44.9307 97.4646 45.0774 97.4569 45.1871L97.5171 45.2983L98.1613 45.266L98.8123 45.9635L98.6408 46.603L99.0671 46.4872C99.2803 46.7746 99.4208 47.0341 99.4887 47.2658L99.002 47.9609C98.8506 48.1772 98.6204 48.4073 98.3114 48.6513L97.7043 49.1239L97.4726 48.9617L97.1203 49.2675L95.6491 48.0647L95.531 47.395C95.2809 46.8976 95.1164 46.4257 95.0377 45.9792L94.996 45.7429L94.3499 43.4604L94.3733 41.7503L93.9702 40.8466L93.495 42.0677L93.3211 43.1544L93.0337 43.3675L92.635 44.3314L91.81 45.4111L91.6176 45.9324L90.8829 46.8337L90.7763 47.3805L89.6546 48.3906L88.5793 50.1237L87.8586 50.4132L87.4159 50.8974C86.7548 50.9869 86.2118 50.8254 85.7871 50.4129C84.5034 50.0435 83.7404 49.3251 83.498 48.2577L83.6742 48.1048L83.5931 47.8754L83.4703 47.4096L83.1437 46.9392L83.2828 46.346L83.2157 45.5049L83.2623 44.1563C83.2576 44.13 83.2484 44.0775 83.2345 43.9987C83.1989 43.9508 83.1766 43.9006 83.1673 43.8481C83.1488 43.7431 83.1519 43.6071 83.1766 43.4403C83.1411 43.3924 83.1094 43.2897 83.0817 43.1321C83.0492 42.9483 83.0748 42.6324 83.1583 42.1844L83.4132 42.0176C83.2324 41.9141 83.1282 41.7835 83.1004 41.626C83.0819 41.5209 83.0811 41.4398 83.0981 41.3827C83.058 41.3085 83.0286 41.2189 83.0101 41.1139C82.9545 40.7987 83.0704 40.5346 83.3578 40.3214C83.3903 40.0449 83.4884 39.7569 83.6522 39.4572L83.3997 39.1768L83.7682 38.5026L83.7404 38.345C83.6524 37.846 83.7421 37.3563 84.0094 36.876L83.845 36.1738L83.9748 35.9885C83.9701 35.9622 83.9632 35.9228 83.9539 35.8703C83.9184 35.8224 83.8983 35.7853 83.8937 35.7591C83.8659 35.6015 83.8953 35.4609 83.9818 35.3374L83.9401 35.101C83.9989 34.8199 84.2051 34.3773 84.559 33.7734C84.9128 33.1694 85.16 32.652 85.3007 32.221L85.5324 32.3832L85.931 32.1099L86.114 31.9964L87.3098 31.1763L90.3708 30.799L90.4194 31.0747L91.3995 31.105C92.0036 30.9985 92.4322 31.126 92.6855 31.4875C92.6716 31.4087 92.6685 31.3145 92.6763 31.2048C92.6624 31.126 92.6531 31.0735 92.6485 31.0472L93.6077 31.6498L94.3839 31.6754L95.7395 31.0708L96.4253 31.9654L97.0579 32.0975ZM93.6768 34.8058L93.4706 34.5578L93.1416 34.5346L91.7467 33.7651L90.9381 33.7859L90.3078 33.897L90.2151 33.8321L89.9208 34.0058L89.5315 33.8714L88.5073 34.052L88.6533 34.1887L87.8028 34.6636L87.68 34.8884L87.5688 34.9486C87.1655 35.4259 86.8951 35.812 86.7576 36.107L86.6486 37.1011L86.5535 37.4834L87.0447 37.9654L86.4653 38.5956L86.5719 38.7393C86.371 39.2892 86.3122 39.8005 86.3956 40.2732L86.1499 40.7227L86.2749 41.4318L86.0223 41.8419L86.006 42.2103L85.9017 42.3099L85.999 42.8614L85.9155 43.0792C85.9711 43.3943 85.9888 43.6485 85.9687 43.8415L86.0822 44.0246L85.8597 44.8356L86.0589 45.0442L85.8526 45.4867L86.2603 46.1865L85.9243 46.8144L86.135 47.549L86.1559 47.6672L86.3273 47.7182L86.5173 47.644C86.6255 47.4896 86.736 47.3483 86.8488 47.2201L86.7144 46.9188L87.252 46.7428L87.3216 46.4462L89.3123 44.1456L89.5348 44.0251L89.6924 43.3068C89.8407 43.2265 90.0454 43.0821 90.3065 42.8736L90.4317 42.2016L90.7469 42.1461L90.5106 41.4972L91.0482 41.3212C91.0822 41.2069 91.1379 41.0617 91.2151 40.8856C91.3186 40.7049 91.4245 40.5373 91.5326 40.3828L93.0693 37.3499L93.2803 36.7035L93.2131 36.5528L93.4124 36.0709L93.4148 35.6237L93.7138 35.246L93.6768 34.8058ZM136.933 36.7236C136.866 37.1144 136.744 37.4202 136.567 37.6411C136.539 37.9439 136.458 38.1748 136.323 38.3339C136.238 38.6197 136.113 38.8313 135.948 38.9687L135.832 39.2329C135.755 39.409 135.624 39.5132 135.44 39.5456L135.313 39.9743L135.037 40.0229L134.903 40.4122L134.608 40.5859L134.421 40.9033L134.251 41.0956C133.857 41.1651 133.55 41.3412 133.329 41.6238C133.011 41.8153 132.668 41.9435 132.3 42.0083C131.933 42.0731 131.549 42.0461 131.149 41.9271C130.724 41.9749 130.502 41.9463 130.484 41.8412L129.918 41.8597L129.779 41.7624L129.459 41.3313L128.964 41.0532C128.615 40.7627 128.401 40.4754 128.324 40.1911C128.094 39.9609 127.822 39.4944 127.509 38.7915L127.004 38.2306L126.941 37.8761L126.457 36.743L126.413 36.2633L125.961 35.0838L125.906 34.0782L125.66 33.8372L125.44 34.8914C125.038 35.5309 124.797 35.9256 124.715 36.0754C124.654 36.1943 124.559 36.2654 124.427 36.2885C124.401 36.2932 124.346 36.2893 124.263 36.2769L124.103 36.7519C124.081 36.7828 124.077 36.8376 124.091 36.9164C124.119 37.074 124.227 37.1497 124.416 37.1435C124.372 37.2053 124.273 37.4123 124.119 37.7645C124.051 37.9931 123.985 38.1538 123.92 38.2464L123.767 38.0703L123.785 38.6357C123.49 38.9585 123.323 39.3941 123.284 39.9425C123.082 40.3302 122.761 40.8878 122.32 41.6153L121.905 42.2571C121.774 42.2803 121.713 42.3181 121.722 42.3706L121.736 42.4494C121.644 42.8449 121.419 43.1824 121.062 43.4619L120.693 44.1362L120.418 44.1848L119.535 44.706C118.738 44.7924 118.192 44.5367 117.897 43.9388L117.781 43.5124L117.454 43.042L117.378 42.6087L116.861 41.5219L116.799 41.1674L116.493 40.8151L116.435 39.5662C116.386 39.4395 116.34 39.258 116.298 39.0216C116.261 38.8115 116.249 38.6648 116.261 38.5814L116.18 38.3519L116.153 38.1944L115.879 37.7958L116.062 36.9918C115.973 36.7909 115.834 36.4634 115.645 36.0092L115.701 35.6339L115.618 34.4707L115.157 33.699L115.118 33.0154L114.937 32.6817C114.897 32.6076 114.761 32.3743 114.529 31.9819L114.281 32.1881L113.88 32.9087L113.484 33.4253L112.747 34.7738L112.744 35.221L112.2 36.0482L112.021 36.6483L111.801 37.012C111.824 37.6037 111.607 38.0617 111.15 38.386L111.208 38.9444C111.078 39.1298 110.944 39.37 110.807 39.665C110.695 39.9554 110.605 40.1338 110.536 40.2002C110.488 40.2358 110.397 40.3331 110.262 40.4922L109.907 41.2452C109.986 41.6916 109.871 42.0369 109.562 42.2809L109.604 42.5172C109.483 42.7551 109.31 43.0023 109.085 43.2587L109.031 43.1868L109.01 43.7591C108.8 43.7962 108.647 44.0804 108.551 44.6118L108.461 44.7902C108.509 45.215 108.341 45.5695 107.958 45.8537L107.497 46.463C107.114 46.7472 106.857 46.9009 106.725 46.924C106.042 47.0444 105.496 46.5585 105.087 45.4663L104.777 44.6275C104.741 44.5796 104.714 44.5031 104.696 44.3981C104.663 44.2142 104.67 44.0235 104.717 43.8257L104.388 43.112L104.355 42.4679L104.166 41.8515C104.121 41.2907 104.153 40.9331 104.261 40.7786C104.085 40.241 103.99 39.9329 103.976 39.8541L103.851 39.145C103.923 38.9427 104.013 38.6831 104.12 38.3665L103.842 38.1718C103.752 37.971 103.705 37.8574 103.7 37.8312C103.668 37.6473 103.77 37.3044 104.006 36.8024L103.599 36.1026L103.673 35.6021L103.235 34.5014L103.217 33.936L102.867 33.1041L102.802 32.5063L102.322 31.8597C102.667 30.7429 103.141 30.1312 103.745 30.0247C104.061 29.9692 104.386 30.0472 104.721 30.2589L104.869 30.6389C105.357 30.7966 105.643 31.1117 105.726 31.5844C105.712 31.5057 105.722 31.7884 105.754 32.4325L105.59 32.4209L106.062 33.0281L105.881 33.3849L105.87 33.5494L106.426 35.3198L106.618 36.87L106.548 37.1665L106.817 37.769C106.914 37.8602 106.977 37.9846 107.005 38.1421C107.042 38.3522 106.974 38.5808 106.801 38.828C106.865 39.1956 106.853 39.5092 106.763 39.7687L107.09 40.9297L107.173 41.4024L107.199 41.3166L107.373 40.9204L107.75 39.8384L107.869 39.8175C108.026 39.7898 108.153 39.5102 108.249 38.9788L108.392 38.1817C108.417 38.0149 108.57 37.7307 108.851 37.3291L108.884 36.5922L109.232 35.7998L109.292 35.2205C109.409 35.1186 109.524 35.0035 109.637 34.8753L109.656 34.7502C109.716 34.6313 109.956 34.3046 110.377 33.7702L110.592 33.6103L110.601 33.2025L110.778 33.0496C110.812 32.4749 111.075 32.0494 111.568 31.7729L111.389 31.6826L111.533 31.576C111.502 31.5544 111.482 31.5173 111.473 31.4648C111.464 31.4122 111.476 31.3288 111.51 31.2145L112.092 30.8276L112.099 30.1765L112.532 30.1001C112.527 30.0738 112.537 29.9773 112.562 29.8105L113.239 29.0413C113.588 28.8714 113.828 28.7749 113.96 28.7517C114.275 28.6962 114.724 28.7117 115.308 28.7983L115.799 29.2803L115.971 29.3313L116.251 29.7693L116.935 30.4205L117.025 30.9326L117.449 31.264L117.553 31.8549C117.953 32.4342 118.192 32.9471 118.271 33.3936L118.236 33.8871L118.591 34.5151L118.234 35.0248L118.544 35.8637L118.546 36.107L118.542 36.3109C118.536 36.5828 118.544 36.7843 118.567 36.9157C118.59 37.047 118.702 37.298 118.903 37.6688L118.861 38.1229L119.077 38.6536L118.979 38.7926C119.097 39.151 119.284 39.7542 119.542 40.6024L119.531 40.7669L120.548 39.1659L120.81 38.348C120.887 38.1719 121.014 37.8923 121.19 37.5092L121.176 37.4304C121.207 36.9917 121.327 36.6727 121.536 36.4735C121.508 36.3159 121.604 36.0958 121.825 35.8131L122.106 35.5606C122.132 35.0957 122.343 34.6794 122.738 34.3118L122.838 33.7255L123.109 33.1903L123.434 32.7269C123.638 32.5014 123.771 32.1801 123.832 31.7631L124.064 31.2348L124.118 30.6161L124.509 30.3034L124.845 29.6755L125.112 28.6537C125.007 28.6722 124.95 28.6552 124.941 28.6027C124.941 28.6027 124.958 28.5455 124.992 28.4312L125.226 28.1462L125.43 27.4604C125.848 27.2241 126.084 27.1013 126.136 27.092C126.136 27.092 126.194 27.109 126.308 27.143L127.024 27.0574L127.703 27.222L128.365 27.7551L128.581 28.2857L128.618 28.726L128.449 28.9183L128.161 29.8219L128.163 30.7557C128.318 30.8639 128.425 31.0887 128.485 31.4301C128.403 31.5799 128.381 31.7598 128.418 31.9699L128.316 32.3129C128.392 32.4349 128.455 32.6404 128.506 32.9292C128.548 33.1656 128.565 33.3386 128.557 33.4483L128.434 33.673L128.64 33.921L128.427 34.3241C128.585 34.2964 128.693 34.4532 128.754 34.7946C128.834 34.9429 128.879 35.0433 128.888 35.0958C128.902 35.1746 128.892 35.2712 128.858 35.3855C128.957 35.6388 129.027 35.8837 129.069 36.12L129.082 36.1988C129.092 36.2513 129.357 36.7596 129.879 37.7236L130.028 38.1036L130.544 38.4999L130.878 39.0097L131.135 39.0862L131.334 39.2948L131.538 39.2995L131.907 39.3157L132.097 39.2416L132.215 39.2208C132.477 39.1745 132.774 39.0139 133.105 38.7389C133.163 38.4578 133.391 38.1334 133.786 37.7658C133.789 37.6299 133.903 37.3526 134.127 36.934L134.713 36.3433L134.866 35.8289C135.053 35.6605 135.265 35.5555 135.501 35.5138C135.79 35.4629 136.119 35.4861 136.488 35.5835C136.692 35.8183 136.84 36.1983 136.933 36.7236ZM149.855 30.9114L149.099 31.6945L147.975 31.7708L147.477 31.9399L146.434 32.2456L145.081 32.403C144.88 32.4926 144.583 32.5721 144.189 32.6416L143.677 32.7318L142.752 33.0167L142.463 32.9866L141.033 33.4011C140.857 33.3239 140.716 33.2945 140.611 33.313C140.454 33.3408 140.281 33.4389 140.094 33.6072L139.404 33.6071L138.655 33.7391L137.833 32.9906L137.694 32.2027L138.199 32.073L138.503 31.4915L139.557 31.7117L139.891 31.531C140.027 31.5342 140.213 31.5149 140.449 31.4732L140.646 31.4385L140.869 31.318L140.896 31.4756L141.311 31.5243L141.552 31.2787L142.078 31.2672L142.905 31.1213L144.704 30.723L144.817 30.9061L144.968 30.8389L145.146 30.9293L145.631 30.6815C145.859 30.7495 146.131 30.7557 146.446 30.7001C146.656 30.6631 146.873 30.5843 147.095 30.4638L147.753 30.5103L148.226 30.4269C149.119 30.2695 149.662 30.431 149.855 30.9114ZM167.671 11.8481C167.764 12.3733 167.541 12.9541 167.003 13.5905L166.653 13.4491L166.086 13.9147L165.027 12.5173C164.905 12.1327 164.742 11.8229 164.538 11.5881L164.323 11.748L163.59 11.5115L163.347 11.5138L162.891 11.9192L162.022 11.8287L161.767 11.9955C161.577 12.2998 161.364 12.4728 161.127 12.5145C161.022 12.533 160.928 12.5361 160.845 12.5237L160.914 12.9176C160.725 13.3841 160.487 13.9541 160.2 14.6276C160.22 14.8948 160.214 15.3969 160.181 16.1337L159.868 16.4326L159.787 16.8937L159.653 17.2829L159.989 18.0361L159.641 18.8285L159.588 19.4471L159.486 19.7901L159.622 20.3346L159.321 21.85L159.518 22.5058C159.51 22.6154 159.417 23.0109 159.24 23.6921L159.228 23.8566C159.472 23.7053 159.684 23.6002 159.863 23.5416L160.106 23.5393C160.154 23.5038 160.265 23.4435 160.44 23.3586L160.558 23.3378C160.558 23.3378 161.009 23.2853 161.911 23.1804L162.016 23.0808C162.321 22.9727 162.501 22.914 162.553 22.9047C162.816 22.8584 163.116 22.8731 163.454 22.9489C163.756 22.8145 164.025 22.7265 164.261 22.6848C164.471 22.6478 164.662 22.6548 164.833 22.7058L165.188 22.6433L165.721 22.6711C166.671 22.5307 167.211 22.8281 167.34 23.5635C167.377 23.7736 167.382 24.03 167.354 24.3328L165.672 25.1574L164.62 25.1804C164.345 25.3102 163.875 25.4877 163.211 25.7132L162.979 25.551C162.828 25.7672 162.594 25.9031 162.279 25.9587L161.846 26.0351L160.833 26.7417L160.233 26.5632L160.036 26.5979C159.872 26.8976 159.64 27.1146 159.339 27.2489L159.42 27.4783L159.359 28.0576L159.714 28.6856L159.382 29.8001L159.778 31.3549L159.679 31.9412L159.894 32.4718L159.653 33.4079L159.854 33.8598C159.885 33.8814 159.91 33.9447 159.929 34.0498C159.933 34.0761 159.932 34.3742 159.924 34.9442C159.911 35.488 159.951 36.0225 160.044 36.5477L160.107 36.9022C160.137 36.9238 160.312 37.0691 160.63 37.3379L160.473 38.0562L160.887 38.7954L160.801 39.4604L161.575 41.3142L162.068 43.4206L162.837 44.0973L162.636 45.0265C163.048 45.5224 163.284 45.941 163.345 46.2824L163.365 46.4006C163.375 46.4531 163.399 46.5165 163.44 46.5906C163.458 46.6957 163.47 46.7613 163.474 46.7876C163.65 47.7855 163.165 48.4126 162.019 48.6689L161.593 48.0942L161.071 47.9018L160.867 47.2066L159.691 45.1396L159.614 44.7063C159.426 44.2521 159.325 43.9856 159.311 43.9068C159.288 43.7755 159.285 43.6813 159.302 43.6241L159.065 42.9753L159.065 42.2848L158.871 41.8723L158.718 41.0057L157.887 38.5934L157.951 38.5007L157.796 38.0813L157.778 37.5159L157.412 37.0525L157.572 36.5775L157.211 34.5291L157.366 34.258L157.116 32.8399L157.178 32.5039L156.845 31.3036L156.919 30.8031C156.893 30.3474 156.874 29.3216 156.864 27.7259L156.706 27.7537L156.166 27.6864L155.576 27.7906L154.5 28.1427L153.803 28.1032L152.702 28.5409L152.294 28.5316C152.168 28.581 152.012 28.622 151.829 28.6544C150.58 28.3329 149.892 28.0346 149.762 27.7597L149.447 27.1247C149.608 26.0403 149.99 25.4449 150.594 25.3384C150.62 25.3337 151.083 25.3469 151.982 25.378L154.281 25.0539L155.342 24.623L156.294 24.4957L156.656 24.4726L156.684 23.9397L156.561 22.7834L156.675 22.276L156.418 21.509C156.367 21.2201 156.428 20.9521 156.601 20.7049L156.485 20.2786L156.835 19.7295L156.823 18.513L156.946 18.2882L156.738 17.7969C156.988 17.3737 157.092 17.0439 157.051 16.8076C156.997 16.6546 156.97 16.5782 156.97 16.5782C157.007 16.7883 157.097 16.1495 157.241 14.6619L157.482 14.4163L157.369 13.5428L157.482 13.7258L157.461 13.6077C157.383 13.1612 157.509 12.8005 157.839 12.5256L158.013 12.1294L158.284 10.9037L158.363 10.8898C158.652 10.8388 158.766 10.6427 158.706 10.3013L158.678 10.1437L159.712 9.5553L160.027 9.49973C160.35 9.33449 160.695 9.21945 161.063 9.15462L161.339 9.106L161.522 8.99249L162.354 8.64271L163.419 8.69847C163.477 8.71547 163.589 8.73634 163.755 8.76108C163.999 8.60973 164.174 8.52479 164.279 8.50627C164.647 8.44144 165.037 8.65699 165.449 9.15292L166.07 9.4496L166.603 10.168L167.298 10.6547L167.65 11.7299L167.671 11.8481ZM182.71 18.3351L182.624 19.6906L181.202 20.1445L180.504 20.7956L179.95 20.6495L179.454 21.0619L178.905 21.4024L178.56 21.7476L178.588 21.9052L177.83 22.445L177.403 23.2513L177.128 23.2999C176.786 23.8204 176.533 24.1494 176.367 24.2869L175.976 25.2902L175.793 25.4037C175.751 25.6277 175.714 25.959 175.684 26.3977L175.167 26.6919L175.014 27.2063L174.768 27.6558L174.793 28.2606L174.499 28.4343L174.603 29.0252L174.506 29.1642C174.608 29.2816 174.725 29.4099 174.858 29.5489L174.309 29.8895L174.32 30.4154L174.045 31.1546L174.371 31.625L173.984 32.4244C174.083 32.6777 174.142 32.8569 174.16 32.962C174.165 32.9882 174.174 33.0407 174.188 33.1195C174.176 33.2029 174.174 33.2709 174.183 33.3234L174.325 33.6641L175.119 34.2551L174.767 35.2514L174.357 35.6893L173.351 36.4352L171.789 36.1014L171.63 35.1953L171.41 34.8686L171.424 34.2569C171.297 33.8459 171.215 33.5354 171.178 33.3253C171.164 33.2466 171.159 33.1392 171.162 33.0033C171.139 32.8719 171.123 32.78 171.113 32.7275L171.004 32.3405C170.788 32.1891 170.659 31.9952 170.618 31.7589C170.58 31.5488 170.631 31.2962 170.768 31.0012C170.745 30.8699 170.649 30.4806 170.481 29.8333L170.578 29.6943L170.37 29.203L170.365 28.7164L170.238 28.4546L170.196 27.5277L169.891 27.1755L169.972 26.7144L169.724 26.2301C169.722 26.0679 169.698 25.8554 169.652 25.5928C169.583 25.1989 169.484 24.9456 169.356 24.8328L169.472 24.5686L169.189 23.8874L168.744 23.4378L168.83 22.7728L168.631 22.5642L168.306 21.6466L168.251 21.3314C168.092 21.197 167.991 21.0116 167.95 20.7753C167.857 20.25 168.356 19.7017 169.447 19.1303L170.466 19.1536L170.795 19.8673L171.279 20.31L171.349 21.3944C171.52 21.9058 171.714 22.4673 171.93 23.0791L172.16 23.6885C172.195 23.7364 172.247 23.8762 172.315 24.1079C172.343 24.2655 172.307 24.4478 172.208 24.6547L172.465 25.4218L172.539 26.3023L172.451 26.724L172.597 26.8607L172.745 27.2407C172.87 27.0291 172.928 26.816 172.917 26.6012L172.97 25.9826C173.021 25.8111 173.119 25.6721 173.262 25.5655L173.316 24.9469L173.812 24.5345L173.807 24.0479L174.157 23.4988L174.368 22.8523C174.644 22.4245 174.931 22.1302 175.228 21.9696L175.286 21.8375L175.543 21.2235L175.923 21.0753L176.02 20.9363L176.136 20.6721L176.528 20.3594L176.716 20.042L176.959 20.0397L177.246 19.8265L177.362 19.5624L177.793 19.2427L178.386 18.6913L179.276 18.2095C179.635 18.0921 179.827 18.0311 179.853 18.0265C179.858 18.0527 179.86 18.0659 179.86 18.0659C179.834 18.0705 179.823 18.086 179.828 18.1122L179.867 18.1053C179.972 18.0867 180.12 18.0064 180.312 17.8643C180.425 17.7361 180.599 17.6512 180.836 17.6095C180.941 17.591 181.129 17.5849 181.401 17.5911C182.089 17.4969 182.525 17.7449 182.71 18.3351ZM197.552 27.4971C197.607 27.8122 197.44 28.2478 197.051 28.8039C196.994 29.2472 196.857 29.6233 196.641 29.9322L196.411 30.0133L196.11 30.8382L195.422 31.0814L194.757 31.6861L194.488 32.4646L194.04 32.4622C193.775 32.6444 193.552 32.7649 193.373 32.8236L193.199 33.2198C193.116 33.2074 192.995 33.2151 192.838 33.2429C192.496 33.3031 192.21 33.5973 191.978 34.1256L191.343 33.7502C191.243 33.7949 191.088 33.8359 190.877 33.8729C190.536 33.9331 190.238 33.9315 189.983 33.8681L189.313 33.9862L188.963 33.8448C187.938 33.8632 187.24 33.5936 186.871 33.0359L186.85 32.9177L186.336 32.7647L185.982 32.1367L185.453 31.9049L185.349 31.314L184.571 29.6641L184.399 28.2321L184.446 27.574L184.3 26.7468L184.386 26.0818L184.298 25.813L184.49 25.2916L184.425 25.3843C184.384 25.148 184.405 24.8869 184.49 24.6011L184.456 24.4042L184.171 23.4796C184.092 23.0332 184.22 22.6045 184.553 22.1936C184.57 22.1365 184.569 22.0554 184.551 21.9503C184.532 21.8453 184.443 21.6445 184.282 21.3478C184.143 21.0203 184.062 20.7909 184.039 20.6596C183.983 20.3445 184.004 20.0023 184.102 19.6331C184.367 19.9112 184.697 20.0156 185.091 19.9461L185.209 19.9253C185.243 19.8109 185.341 19.6719 185.501 19.5082C185.596 18.8146 185.787 18.2122 186.076 17.7009L186.206 17.5156C186.187 17.4105 186.213 17.0946 186.283 16.5679L186.598 16.5123L186.642 16.3014L186.943 16.1671C187.037 15.9339 187.095 15.8018 187.117 15.7709C187.16 15.7091 187.419 15.4875 187.893 15.106C187.966 14.9036 188.093 14.7051 188.276 14.5105C188.371 14.4395 188.493 14.3638 188.642 14.2835L188.758 14.0194C189.425 13.658 189.851 13.4611 190.035 13.4287C190.245 13.3916 190.451 13.4094 190.653 13.4821L190.843 13.4079L191.147 13.5169C191.504 13.6977 191.853 13.8391 192.196 13.9411L192.956 14.3351L192.984 14.4926C193.671 14.8589 194.092 15.4753 194.244 16.3419L194.196 16.7567L194.543 18.0358L194.23 18.3346L194.017 19.4283L193.414 20.3875L193.486 21.0247C192.752 21.7769 192.063 22.3994 191.419 22.8921C191.247 23.3014 190.912 23.5501 190.413 23.638L190.295 23.6589L189.63 24.2636L189 24.3747L188.124 24.9353L187.352 24.7058L187.273 24.7197C187.258 24.9391 187.261 25.2635 187.282 25.6929L187.009 25.9848L187.053 26.4645L186.935 27.1758C187.124 27.7922 187.236 28.1923 187.268 28.3761L187.131 28.5221C187.192 28.8635 187.222 29.1153 187.224 29.2775C187.229 29.3038 187.222 29.3455 187.205 29.4026C187.215 29.4551 187.222 29.4945 187.226 29.5208C187.263 29.7309 187.398 29.8831 187.632 29.9773C187.766 30.2786 187.932 30.4524 188.13 30.4988L188.447 30.6865L189.355 30.77L189.376 30.8882L189.705 30.9114L191.059 30.7541L191.826 30.497L192.171 30.1518L192.393 30.0313L192.683 29.3709L192.873 29.2968L193.802 28.808C193.875 28.6057 194.018 28.418 194.231 28.245L194.315 28.0272C194.821 27.8296 195.075 27.5006 195.075 27.0402C195.378 26.6078 195.818 26.3406 196.396 26.2387L196.553 26.2109C197.154 26.7007 197.487 27.1294 197.552 27.4971ZM191.651 16.8397C191.637 16.7609 191.57 16.6103 191.45 16.3879L191.246 16.3832L191.174 16.4365C191.148 16.4411 191.095 16.4504 191.017 16.4643C190.969 16.4998 190.918 16.5222 190.866 16.5314C190.84 16.5361 190.798 16.5299 190.741 16.5129C190.688 16.5221 190.649 16.5291 190.623 16.5337L190.277 16.8789L189.93 16.9808L189.747 17.0943L189.23 18.0791L188.852 18.4706L188.416 19.6847L188.103 19.9836C188.103 20.4439 187.987 20.8571 187.753 21.2232L187.644 21.5267C187.901 21.292 188.213 21.1422 188.581 21.0773L188.835 20.9105L188.891 20.5352L189.45 20.4773L189.681 19.949L189.918 19.9074L190.379 19.9885L190.472 19.3629L190.747 19.3143L190.671 18.881L191.162 18.6725L191.26 18.5335L191.276 18.1651L191.656 17.3263C191.685 17.1858 191.684 17.0236 191.651 16.8397ZM212.401 24.8788C212.456 25.1939 212.289 25.6295 211.9 26.1856C211.843 26.6289 211.706 27.005 211.49 27.314L211.26 27.395L210.959 28.2199L210.271 28.4631L209.606 29.0678L209.337 29.8463L208.89 29.8439C208.624 30.0262 208.401 30.1466 208.222 30.2053L208.048 30.6015C207.965 30.5891 207.844 30.5968 207.687 30.6246C207.345 30.6848 207.059 30.9791 206.827 31.5073L206.192 31.1319C206.092 31.1766 205.937 31.2176 205.726 31.2546C205.385 31.3148 205.087 31.3132 204.832 31.2498L204.162 31.3679L203.813 31.2265C202.787 31.2449 202.089 30.9753 201.72 30.4176L201.699 30.2994L201.185 30.1464L200.831 29.5184L200.302 29.2866L200.198 28.6957L199.42 27.0458L199.249 25.6138L199.295 24.9557L199.149 24.1285L199.235 23.4635L199.147 23.1947L199.339 22.6734L199.274 22.766C199.233 22.5297 199.254 22.2686 199.339 21.9828L199.305 21.7859L199.02 20.8613C198.941 20.4149 199.069 19.9862 199.402 19.5754C199.419 19.5182 199.419 19.4371 199.4 19.3321C199.381 19.227 199.292 19.0262 199.131 18.7296C198.992 18.4021 198.911 18.1726 198.888 18.0413C198.833 17.7262 198.853 17.384 198.951 17.0149C199.216 17.2929 199.546 17.3973 199.94 17.3278L200.058 17.307C200.092 17.1927 200.19 17.0536 200.35 16.8899C200.445 16.1963 200.636 15.5939 200.925 15.0826L201.055 14.8973C201.037 14.7922 201.062 14.4763 201.132 13.9496L201.447 13.894L201.491 13.6832L201.792 13.5488C201.886 13.3156 201.944 13.1835 201.966 13.1526C202.009 13.0908 202.268 12.8692 202.742 12.4877C202.815 12.2853 202.942 12.0869 203.125 11.8922C203.22 11.8212 203.343 11.7455 203.491 11.6652L203.607 11.4011C204.274 11.0397 204.7 10.8428 204.884 10.8104C205.094 10.7733 205.3 10.7911 205.502 10.8638L205.692 10.7896L205.996 10.8986C206.353 11.0794 206.702 11.2208 207.045 11.3228L207.805 11.7168L207.833 11.8744C208.52 12.2406 208.941 12.857 209.093 13.7236L209.045 14.1384L209.392 15.4175L209.079 15.7163L208.866 16.81L208.263 17.7692L208.335 18.4064C207.601 19.1586 206.912 19.7811 206.268 20.2738C206.096 20.6831 205.761 20.9318 205.262 21.0197L205.144 21.0406L204.479 21.6453L203.849 21.7564L202.973 22.317L202.201 22.0875L202.122 22.1014C202.107 22.3208 202.11 22.6452 202.131 23.0746L201.858 23.3665L201.902 23.8462L201.784 24.5575C201.974 25.1739 202.085 25.574 202.117 25.7579L201.98 25.9038C202.041 26.2452 202.071 26.497 202.073 26.6592C202.078 26.6855 202.071 26.7272 202.054 26.7843C202.064 26.8369 202.071 26.8763 202.075 26.9025C202.112 27.1126 202.247 27.2648 202.481 27.359C202.615 27.6603 202.781 27.8341 202.979 27.8805L203.296 28.0682L204.205 28.1517L204.225 28.2699L204.554 28.2931L205.908 28.1358L206.675 27.8787L207.02 27.5335L207.242 27.413L207.532 26.7527L207.722 26.6785L208.651 26.1898C208.724 25.9874 208.867 25.7997 209.08 25.6267L209.164 25.4089C209.67 25.2113 209.924 24.8823 209.924 24.422C210.227 23.9895 210.667 23.7223 211.245 23.6204L211.402 23.5926C212.003 24.0824 212.336 24.5111 212.401 24.8788ZM206.5 14.2214C206.487 14.1427 206.419 13.992 206.299 13.7696L206.095 13.7649L206.023 13.8182C205.997 13.8228 205.944 13.8321 205.866 13.846C205.818 13.8815 205.767 13.9039 205.715 13.9131C205.689 13.9178 205.647 13.9116 205.59 13.8946C205.537 13.9039 205.498 13.9108 205.472 13.9154L205.126 14.2606L204.779 14.3625L204.596 14.4761L204.079 15.4608L203.701 15.8523L203.265 17.0664L202.952 17.3653C202.952 17.8256 202.836 18.2388 202.602 18.6049L202.493 18.9084C202.75 18.6737 203.062 18.5239 203.43 18.4591L203.685 18.2923L203.74 17.9169L204.299 17.859L204.53 17.3308L204.767 17.2891L205.228 17.3702L205.321 16.7446L205.596 16.696L205.52 16.2627L206.011 16.0542L206.109 15.9152L206.125 15.5468L206.505 14.708C206.534 14.5675 206.533 14.4053 206.5 14.2214Z" fill="black"/>
<g clip-path="url(#clip0_9_125)">
<path class="bd-svg-black" d="M23.6632 70.9831C23.9948 72.5237 24.6158 73.986 24.8028 75.5657C26.172 89.4794 33.4312 100.171 43.064 109.289C46.3794 112.43 50.8284 114.876 55.2443 116.321C67.7834 120.617 80.749 121.848 93.881 119.618C97.6667 118.983 101.405 117.584 104.989 115.606C103.769 115.393 102.458 115.126 101.185 115.004C97.5107 114.6 93.7835 114.288 90.124 113.647C88.5764 113.367 87.0195 112.468 85.6073 111.53C85.0578 111.212 84.7115 109.909 84.9386 109.304C85.1657 108.699 86.2993 108.005 86.8103 108.177C95.9756 110.28 105.408 109.593 114.743 109.709C118.013 109.757 119.357 111.024 119.022 114.142C118.12 121.838 115.54 129.057 111.48 135.666C111.373 135.85 110.848 135.914 109.98 136.149C105.745 131.006 110.792 126.07 110.845 119.846C109.566 120.579 108.577 121.235 107.603 121.653C87.8322 129.249 68.1833 127.962 48.8233 120.464C45.9019 119.39 43.0775 117.514 40.5956 115.468C31.5307 107.904 24.9987 98.4911 21.6699 87.1254C20.6165 83.4511 20.629 79.4109 20.5353 75.5548C20.4399 74.028 21.3427 72.4642 21.8115 71.0178C22.4287 71.0062 23.046 70.9947 23.6632 70.9831Z" fill="black"/>
</g>
<defs>
<clipPath id="clip0_9_125">
<rect width="110" height="43.5" fill="white" transform="translate(28.75 59) rotate(30)"/>
</clipPath>
</defs>
</svg>
