<svg width="288" height="124" viewBox="0 0 288 124" fill="none" xmlns="http://www.w3.org/2000/svg">
<path class="bd-svg-black" d="M29.4796 84.1472L28.8213 86.1723L27.9361 86.4503L26.7149 86.6656L26.0661 86.9018L25.5331 86.874L23.0862 87.5085L22.3493 87.476L22.1987 87.5431C21.9546 87.6945 21.5267 87.8783 20.9149 88.0944L19.4968 88.3445L19.1608 88.2819L19.0426 88.3027C18.78 88.349 18.4108 88.4818 17.935 88.7011C17.5596 88.8756 17.083 89.0138 16.5053 89.1157L15.8472 89.0693L15.8124 89.5628L15.3397 89.6462L15.5479 91.5184L15.8005 91.7988L15.8259 92.4036L16.0065 93.4278C16.1963 94.5045 16.2186 95.2453 16.0734 95.65L16.4649 96.0277L16.43 97.2118L16.7219 97.4852L16.3997 98.1919L16.4553 98.507L16.2953 98.982L16.6057 99.8209L16.7793 101.496L16.6749 102.286C16.7058 102.308 16.7305 102.371 16.749 102.476C16.7397 102.424 16.7305 102.601 16.7211 103.009C16.7258 103.036 16.7482 103.086 16.7883 103.16C16.8022 103.239 16.8138 103.304 16.823 103.357C16.874 103.646 16.8307 103.938 16.6932 104.233L16.9086 104.763C16.941 104.947 16.9487 105.068 16.9317 105.125L16.9131 105.25C16.8884 105.417 16.8899 105.579 16.9177 105.737C17.0057 106.236 17.1323 106.646 17.2975 106.969C16.7383 107.176 16.4193 107.287 16.3405 107.301C16.1042 107.342 15.9026 107.351 15.7357 107.326L15.65 107.3C14.9394 107.263 14.4869 106.693 14.2924 105.59C14.2955 105.454 14.2762 105.268 14.2346 105.032C14.1975 104.822 14.1203 104.537 14.003 104.179C13.881 103.794 13.8038 103.51 13.7714 103.326C13.7251 103.064 13.7251 102.834 13.7715 102.636L13.6443 100.993C13.3832 100.741 13.2365 100.523 13.2041 100.339C13.1948 100.287 13.2026 100.177 13.2273 100.01C13.0852 99.8188 13.0049 99.6705 12.9864 99.5655C12.9493 99.3554 12.9849 99.1731 13.093 99.0187C13.0514 98.7823 13.0985 98.4355 13.2345 97.9783C13.145 97.7775 13.0793 97.5589 13.0377 97.3225C13.2215 97.2901 13.2972 97.182 13.2648 96.9981C13.2555 96.9456 13.2154 96.8715 13.1443 96.7757C13.0687 96.6536 13.0192 96.527 12.9961 96.3956L13.1421 96.5324L12.922 96.2056C12.834 95.7067 12.8232 95.2618 12.8897 94.871L12.6883 93.7286L12.3455 92.9361L12.2715 91.365L11.8731 90.2574L11.8825 89.8496L11.2985 89.9932L10.9069 90.3059L10.5848 90.3221L10.6126 90.4797C10.0611 90.5769 9.51578 90.6324 8.97666 90.6463L8.91405 90.9822L7.28745 90.741L5.23211 91.0628L3.99468 91.6466C2.78677 90.9389 2.14809 90.3881 2.07863 89.9942C2.03696 89.7578 2.03467 89.5145 2.07178 89.2643L2.09262 89.3825L2.82728 88.4812L3.58268 88.3886L6.30531 88.396L6.94025 88.0809L8.95621 87.7661L10.5666 87.6852L11.5214 87.1107L11.6953 86.024L13.3405 86.14L13.4054 86.0474L13.505 86.1517L14.1745 86.7241L14.3391 86.7357L14.8558 86.4415L16.0468 86.5158C17.139 86.1066 17.7902 85.8835 18.0003 85.8464C18.3154 85.7908 18.6552 85.7986 19.0198 85.8697C19.0986 85.8558 19.2585 85.8412 19.4995 85.8258C19.8579 85.7084 20.0896 85.6405 20.1946 85.622L20.4704 85.5733L21.7819 85.1796L22.959 85.1751L23.1305 85.2261L23.6866 84.925L24.5486 84.9761L26.5043 84.55L27.3918 84.5154L29.4796 84.1472ZM43.408 86.3622L43.3221 87.7178L41.8993 88.1717L41.2018 88.8227L40.648 88.6767L40.1521 89.0891L39.6029 89.4296L39.2576 89.7748L39.2853 89.9324L38.5276 90.4722L38.1011 91.2785L37.8253 91.3271C37.4839 91.8476 37.2305 92.1766 37.0652 92.3141L36.6735 93.3174L36.4904 93.4309C36.4486 93.6548 36.4123 93.9862 36.3813 94.4249L35.8646 94.7191L35.7116 95.2335L35.4659 95.683L35.4913 96.2878L35.197 96.4615L35.3012 97.0524L35.2038 97.1914C35.3058 97.3088 35.4232 97.437 35.556 97.5761L35.0068 97.9166L35.0183 98.4426L34.7425 99.1818L35.0691 99.6522L34.682 100.452C34.7809 100.705 34.8395 100.884 34.8581 100.989C34.8627 101.015 34.872 101.068 34.8858 101.147C34.8735 101.23 34.8719 101.298 34.8812 101.351L35.0225 101.691L35.8172 102.282L35.4648 103.279L35.0546 103.716L34.0489 104.462L32.4872 104.129L32.3274 103.223L32.1074 102.896L32.1213 102.284C31.9947 101.873 31.9129 101.563 31.8759 101.353C31.862 101.274 31.8566 101.166 31.8597 101.03C31.8365 100.899 31.8203 100.807 31.8111 100.755L31.7022 100.368C31.486 100.216 31.357 100.022 31.3153 99.7861C31.2783 99.576 31.3285 99.3234 31.466 99.0284C31.4429 98.8971 31.3472 98.5078 31.1789 97.8605L31.2762 97.7215L31.0678 97.2302L31.0632 96.7436L30.9358 96.4818L30.8942 95.5549L30.5884 95.2027L30.6696 94.7416L30.4217 94.2572C30.4202 94.095 30.3962 93.8826 30.3499 93.62C30.2805 93.2261 30.1817 92.9727 30.0535 92.86L30.1693 92.5958L29.8868 91.9145L29.4419 91.465L29.5278 90.7999L29.3285 90.5914L29.0042 89.6737L28.9487 89.3586C28.7896 89.2242 28.6892 89.0388 28.6475 88.8024C28.5549 88.2772 29.0539 87.7289 30.1446 87.1575L31.1642 87.1808L31.4931 87.8945L31.9773 88.3372L32.0467 89.4216C32.2181 89.9329 32.4119 90.4945 32.628 91.1062L32.8574 91.7157C32.8929 91.7636 32.9446 91.9034 33.0125 92.1351C33.0403 92.2927 33.0048 92.4749 32.9059 92.6819L33.163 93.4489L33.237 94.3295L33.1489 94.7512L33.2948 94.8879L33.4431 95.2679C33.5682 95.0563 33.6254 94.8431 33.6146 94.6284L33.668 94.0098C33.719 93.8383 33.8164 93.6993 33.96 93.5927L34.0134 92.974L34.5094 92.5617L34.5048 92.0751L34.8547 91.526L35.0657 90.8795C35.3423 90.4516 35.6289 90.1574 35.9255 89.9968L35.9834 89.8647L36.2407 89.2507L36.6207 89.1025L36.7181 88.9635L36.834 88.6993L37.2256 88.3866L37.4134 88.0691L37.6567 88.0669L37.944 87.8537L38.0599 87.5896L38.4909 87.2699L39.0842 86.7185L39.974 86.2366C40.3324 86.1193 40.5248 86.0583 40.551 86.0537C40.5557 86.0799 40.558 86.0931 40.558 86.0931C40.5317 86.0977 40.5209 86.1131 40.5255 86.1394L40.5649 86.1324C40.67 86.1139 40.8183 86.0336 41.0099 85.8915C41.1226 85.7633 41.2972 85.6784 41.5336 85.6367C41.6386 85.6182 41.8271 85.612 42.0989 85.6183C42.7864 85.5241 43.2227 85.7721 43.408 86.3622ZM65.6999 89.8645C65.672 90.1673 65.6117 90.5164 65.519 90.9118L65.6 91.1412L66.1258 92.5107L66.114 94.0563L66.3572 94.7445L66.2112 95.2983L66.6744 97.0038L66.5654 97.3073L66.7669 98.4497L66.8872 99.3626L67.0749 99.7357L67.4337 102.231L67.8738 102.885L67.693 103.242L67.9293 103.89L67.7671 104.122L68.0821 104.757L67.797 105.214L67.8457 105.489L67.7506 105.872C67.7505 106.332 67.5751 107.026 67.2243 107.955L67.1222 108.988C66.9307 109.13 66.8132 109.232 66.77 109.294L66.6726 109.433L66.4015 109.968L66.1117 110.628L65.5046 111.101C65.2913 111.734 64.9815 112.127 64.5752 112.28C64.4671 112.435 64.3891 112.53 64.3412 112.565L64.2438 112.704L63.734 113.038L63.4744 113.409L63.0805 113.478L62.9391 113.828L62.2023 113.795L61.5372 114.4L60.8003 114.368L59.5351 114.794L59.2524 114.803L59.0693 114.916L57.7277 114.909L57.1368 115.014L56.8588 114.819L55.1928 114.585L53.8188 114.624L53.5593 114.304L52.8363 114.35L52.4819 113.722L51.9883 113.687L51.569 113.152L50.7719 113.008L49.9819 112.213L48.7145 111.706L48.6613 110.943C48.6042 110.926 48.3957 110.435 48.0359 109.47C47.9618 109.049 47.9634 108.521 48.0408 107.885L47.9782 107.53L48.3374 107.264L48.4557 106.552L48.6272 106.603L48.91 105.904L49.5218 105.227L50.0455 104.972L50.9563 103.918L51.9944 103.816C52.2107 103.507 52.5289 103.316 52.9491 103.242C53.604 103.424 53.9686 103.726 54.0427 104.146C54.089 104.408 54.0171 104.692 53.827 104.996L53.3242 105.369L52.8097 105.907L52.2466 106.168L52.0101 106.901L51.4193 107.005L51.2524 107.44L50.8167 107.964L50.9603 108.548L50.7424 109.155L50.9694 109.521L51.3563 110.103L52.3201 110.501L52.6213 111.058L53.8307 111.697L54.4286 111.632L55.2349 112.059L55.9439 111.934L56.4537 112.291L56.9982 112.154L57.355 112.335L59.232 111.923L60.3837 111.314L61.1391 111.221L61.883 110.602C62.0792 110.487 62.256 110.415 62.4136 110.387C62.4615 110.351 62.5442 110.283 62.6616 110.181L62.803 109.831L63.2177 109.88L63.3475 109.694L63.2919 109.379C63.2904 109.217 63.438 109.056 63.7346 108.895C63.7933 108.614 63.9641 108.353 64.2468 108.114C64.3024 107.969 64.3171 107.668 64.2909 107.213L64.7869 106.8L64.8564 106.504C64.9244 106.275 64.9901 106.033 65.0535 105.779L65.072 105.653L64.9193 104.096L65.056 103.95L64.9449 103.32L64.6831 102.757L64.8362 102.243C64.691 101.727 64.6022 101.377 64.5698 101.193C64.5282 100.956 64.4927 100.678 64.4634 100.359C64.4387 100.065 64.4217 99.8921 64.4124 99.8396L64.0582 97.8306L63.6922 97.3671L63.822 96.4913L63.6043 95.7173L63.2501 93.7083L63.0416 93.217L63.1506 92.9135L63.0603 92.4014C63.0279 92.2176 63.0202 92.0971 63.0372 92.0399L62.5623 91.1895L62.3192 89.8107L62.0109 90.5962L61.6007 91.0341L61.2113 91.5902L60.917 91.7639L60.8822 92.2574L60.5624 92.5169L60.5438 92.642L60.0757 93.212L59.487 94.25L58.6179 95.5405L58.2448 95.7282L58.1614 95.946L57.1324 97.021L56.7779 97.0835L56.4534 97.5469L56.3653 97.9686L55.5473 98.3971L55.4383 98.7006L54.8613 98.8836L54.1313 99.581L53.4895 99.8566L53.216 100.149L52.7966 100.304L52.6923 100.403C52.4157 100.831 51.9098 101.11 51.1744 101.24C50.3866 101.379 49.7255 101.238 49.191 100.818L48.0952 99.6705L47.9238 98.929L47.2011 97.5942L46.9927 96.4125L46.7518 95.9675L46.9187 95.5319L46.5689 94.7L46.803 94.4151L46.7729 94.0142L46.9259 93.4998L46.7012 92.6865L46.8032 92.3435L46.7546 92.0678C46.6574 91.5163 46.6358 90.8567 46.69 90.0889L46.3843 89.0462L46.3288 88.0405L45.7242 86.6849L45.7544 86.3953L45.5552 86.1867L45.8056 84.8428C45.8366 84.4041 45.815 83.9747 45.7409 83.5545C46.0283 83.3413 46.3295 83.207 46.6446 83.1514C46.881 83.1098 47.1243 83.1075 47.3745 83.1446L47.868 83.8699L48.621 84.2245C48.6117 84.6324 48.6016 84.9591 48.5908 85.2047L49.0495 85.7331L48.9614 86.1548L49.5499 86.4978L49.23 87.4478L49.6469 88.4303L49.4476 88.9122L49.5009 88.9841L49.5632 90.7196L49.8341 92.2559L49.6394 92.5339L49.7249 93.9405L49.4468 94.4363C49.47 94.5676 49.5132 94.736 49.5765 94.9414C49.6089 95.1253 49.6321 95.2566 49.646 95.3354L50.0467 95.9958L49.8613 96.5565L50.0512 97.1729L50.0002 97.3444C50.1083 97.6502 50.1623 97.8032 50.1623 97.8032L50.5724 98.0558L50.8343 97.9284L50.9154 98.1578L51.1216 97.7153L52.264 97.5138C52.3938 97.3285 52.5676 97.1624 52.7854 97.0157C53.3154 96.489 53.8121 96.1577 54.2755 96.0219L54.2246 95.5028C54.8905 94.9792 55.7325 94.3028 56.7506 93.4734L56.8526 93.1304C56.783 93.1969 56.7243 93.2478 56.6764 93.2834C56.746 93.2169 56.909 93.0663 57.1654 92.8316L57.2327 92.2917L57.432 91.8098L57.9488 91.5156L58.1806 90.9873L58.3845 90.9919L58.5931 90.7927L58.9755 90.1972L59.1655 90.1231L59.184 89.998L59.7611 89.1245L60.0694 88.3391C60.3444 88.2093 60.5615 87.9815 60.7206 87.6556L61.0707 86.416L60.7766 85.2087L61.1427 84.9817L61.1219 84.8635L60.7605 84.1961L60.7721 84.0316C60.5373 83.7751 60.4061 83.5681 60.3783 83.4105C60.3273 83.1217 60.4224 82.7394 60.6635 82.2636L60.6843 82.3818L60.7724 81.9601L60.784 81.7956L60.8048 81.9137C60.9223 81.3515 61.3989 80.9831 62.2347 80.8087L63.7106 81.8075L64.0093 82.8109L64.5213 83.4111L64.3961 84.0831L64.4841 84.3519L64.5189 84.5488C64.4802 84.6369 64.4354 84.7666 64.3844 84.9381L64.5443 85.1536L64.6554 85.7839L64.609 86.4419L64.9193 87.2808L65.0305 87.9111L65.1973 88.166L65.2505 88.9283L65.6999 89.8645ZM84.5351 66.7628C84.5906 67.078 84.4315 67.4039 84.0576 67.7406L84.0715 67.8194C83.679 68.5114 83.3059 68.9292 82.9521 69.0728L82.4863 69.8861L82.1827 70.4676L81.3183 70.8637L81.0216 71.4847L80.4469 71.911L79.5825 72.9976L78.848 72.5178L78.7925 71.5122L79.1008 70.7267C79.0623 70.3544 79.2168 70.0022 79.5644 69.6702L79.5366 69.5126L79.7452 69.3134L79.6804 68.7155L80.2829 68.4468L80.2204 68.0923L80.6792 67.9301C80.6916 67.3864 80.8477 66.9662 81.1474 66.6697L81.2517 66.5701L81.4464 66.292L81.5948 65.2911C83.4022 65.4056 84.3823 65.8962 84.5351 66.7628ZM92.2344 86.9323C92.3409 87.5363 92.303 87.9356 92.1207 88.1302L91.9515 88.3225L91.8518 88.9088L91.2563 89.2168C91.1465 89.6694 90.9287 90.0463 90.6027 90.3475L90.269 90.5282L89.8541 91.17L89.4023 91.3715C89.3018 91.8767 88.965 92.1933 88.3919 92.3214C88.3532 92.4095 88.2628 92.5879 88.1207 92.8566C87.7731 93.1887 87.3938 93.4181 86.9829 93.5447L86.7928 93.6188L86.5796 94.0219L85.7918 94.1609L85.2448 94.7447L83.4214 93.8477L82.402 92.4434L82.0223 90.5201L81.7814 90.0752L81.6428 86.5253L81.7726 86.34C81.6244 85.9599 81.5178 85.5861 81.453 85.2184C81.4113 84.9821 81.4045 84.4823 81.4324 83.7192L81.4696 82.7785C81.3893 82.6302 81.2541 82.478 81.0641 82.3219L81.1685 81.5318L81.0875 80.6119L81.1455 80.4798C80.9988 80.262 80.8868 80.011 80.8096 79.7267C80.8266 79.6696 80.8413 79.5993 80.8537 79.5159C80.8614 79.4062 80.8606 79.3251 80.8514 79.2726C80.7309 79.0501 80.6522 78.8338 80.6151 78.6237C80.504 77.9935 80.8076 77.6421 81.5259 77.5696L82.0056 77.5256C82.2929 77.3125 82.476 77.1989 82.5548 77.1851C83.08 77.0924 83.4855 77.3188 83.7712 77.8641L83.799 78.0217C83.9596 78.3183 84.0653 78.6111 84.1163 78.9C84.158 79.1363 84.1618 79.3116 84.1278 79.4259L84.1993 81.4442L84.5723 81.9471C84.6557 82.4198 84.5722 82.8677 84.3219 83.291L84.5628 83.7359L84.3147 85.3231C84.3779 85.9889 84.4002 86.4994 84.3816 86.8547L84.5553 87.8395L84.4162 88.4327L84.525 88.8197L84.606 89.7396L84.8098 90.4348L85.4841 90.8033L85.9429 90.6411L86.0008 90.5091L86.3229 90.4929L86.8072 90.245L87.1641 89.7353L87.28 89.4712L87.5488 89.3832L87.5929 89.1723L87.6833 88.9939L87.9474 89.1098L88.2719 88.6464L88.5152 88.6441L88.5453 88.3545L88.6241 88.3406L88.6867 88.0046L89.0135 87.7845L89.6994 87.298C90.2293 86.7714 90.7832 86.4571 91.3609 86.3552L91.5185 86.3274C91.8398 86.4603 92.0784 86.6619 92.2344 86.9323ZM105.099 76.0125C105.14 76.2489 104.943 76.5138 104.508 76.8072C104.426 76.9571 104.25 77.11 103.979 77.266C103.639 77.4884 103.4 77.666 103.261 77.7988L102.385 77.6689C102.02 78.0581 101.51 78.3106 100.853 78.4264L100.36 78.3916L100.061 78.7692L98.9972 78.9568L98.404 79.5082C98.0966 79.4541 97.8116 79.4502 97.5489 79.4965C97.4794 79.5629 97.3048 79.6478 97.0252 79.7513C96.8939 79.7744 96.7425 79.7605 96.5711 79.7095L96.7168 81.2273L96.9507 82.3233L97.0757 83.7229L97.4184 85.2059L97.6616 85.8941L97.7588 86.4456L98.5187 87.5301C98.4538 87.6228 98.4306 87.7217 98.4491 87.8267C98.4816 88.0105 98.7959 88.104 99.3922 88.1072L99.5543 88.566L99.8509 88.6356L100.379 88.8674L100.736 89.0482C100.989 88.9493 101.169 88.8906 101.274 88.8721C101.51 88.8304 101.753 88.8282 102.003 88.8653C102.099 88.7942 102.29 88.571 102.576 88.1957C102.775 87.9439 102.98 87.7995 103.19 87.7625C103.216 87.7579 103.256 87.7509 103.308 87.7416C103.365 87.7586 103.407 87.7648 103.433 87.7602C103.582 87.2196 103.944 86.8172 104.52 86.5531C105.072 86.4559 105.561 86.5455 105.989 86.8221L106.038 87.0979C106.195 87.9908 105.98 88.6109 105.391 88.9584C105.252 89.5516 104.816 89.9941 104.082 90.286L103.685 90.8026L103.173 90.8929L102.309 91.289C102.108 91.3786 101.811 91.4581 101.417 91.5276C101.207 91.5646 100.974 91.5515 100.719 91.4881L100.207 91.5784L98.6966 91.073L98.3213 91.0174L97.2995 90.0603L96.7365 89.6315L95.5226 87.8147L94.881 86.0188L94.8764 85.5322L94.4849 85.1545L94.5846 84.5683L94.2348 83.7364L94.462 83.412L94.4505 82.886L94.2489 82.4341L94.2027 81.7112L93.934 81.1087L94.0962 80.877L93.9851 80.2467L93.6885 80.1772L92.9678 80.4667L92.1685 80.0796L92.0503 80.1005C91.2624 80.2394 90.7944 79.8887 90.6462 79.0483L90.6254 78.9301L90.0207 78.265L90.6442 77.424L91.6567 77.4079L92.155 77.2388L92.9381 77.3038L93.7654 77.1579L93.6265 76.3701L92.9199 75.3574L93.3834 74.9914L93.0822 74.4352L92.9063 73.2071L92.5008 72.7506C92.2661 72.4941 92.1278 72.2477 92.0862 72.0113C92.0352 71.7225 92.0592 71.4745 92.1581 71.2676L92.179 70.6952L92.4386 70.3245C93.1245 70.0682 93.5857 69.9192 93.822 69.8775C94.6624 69.7293 95.1891 70.0291 95.4022 70.7768L95.3187 70.9946C95.518 71.2031 95.6361 71.4125 95.6732 71.6226C95.6778 71.6488 95.6762 71.7168 95.6685 71.8265L95.6314 72.0767L95.6406 72.3594L95.8885 72.8437L95.8838 73.0476L96.0598 73.5852L95.7887 74.1205L96.1245 74.8736L96.1337 75.8468L96.5113 76.1457L96.3212 76.9104L97.5146 76.5375L99.7159 76.3524L101.401 75.771L101.998 75.7062L102.188 75.6321L103.725 75.3612C104.539 75.2177 104.997 75.4348 105.099 76.0125ZM131.55 76.4256L131.439 77.1763C131.559 77.8591 131.615 78.4044 131.605 78.8122L131.438 79.2478L131.515 79.6812L131.367 79.9916L131.346 80.564L130.989 81.0737L130.887 82.1071L130.592 82.2809L130.511 82.742L130.087 83.1011L129.89 83.8263L129.459 84.146L129.503 84.6256L128.803 85.0334C128.545 85.5663 128.178 85.9424 127.702 86.1617L127.552 86.2288C127.281 86.8452 126.844 87.2066 126.24 87.3131C126.005 87.5169 125.717 87.649 125.376 87.7092L125.03 88.0544L124.657 88.242L124.215 88.7262L123.696 88.7771L123.172 89.032L122.454 88.8743L120.739 89.0548L119.988 88.253L118.962 87.4997L119.048 86.8347L118.221 85.5996L118.406 85.0389L118.042 84.1282L118.135 83.5026C118.018 83.1442 117.945 82.8862 117.917 82.7286C117.829 82.2296 117.896 81.8388 118.117 81.5562C118.097 81.2889 118.191 80.8255 118.4 80.1659L118.597 80.1312L118.469 79.8693L118.49 79.297L118.386 78.7061C118.554 78.4327 118.645 78.2543 118.657 78.1709L118.442 77.6403L118.414 77.4827C118.533 77.0826 118.558 76.6856 118.488 76.2917L119.114 75.0034C119.114 75.0034 119.136 74.9726 119.179 74.9108C119.249 74.8444 119.305 74.7803 119.348 74.7185L119.281 74.5678L119.439 74.5401L119.911 73.7662L119.791 72.8532L120.713 72.3251C121.039 72.0239 121.206 71.5883 121.214 71.0183L121.726 70.928C121.987 70.7195 122.236 70.5944 122.472 70.5527C122.709 70.511 122.941 70.5242 123.17 70.5922L123.61 70.5552L124.565 69.9806L125.207 70.3955L125.689 70.5948L126.004 70.5393L126.65 70.7502L126.965 70.6947C127.362 70.9496 127.833 71.3135 128.376 71.7862L128.49 71.9693L128.793 72.0782L129.808 72.996L130.883 74.7154L130.952 75.1094L131.55 76.4256ZM129.117 77.8294L129.043 77.6394C128.826 77.488 128.687 77.3096 128.623 77.1041L128.707 76.8863L128.22 76.2004L128.167 75.438L127.975 75.2688C127.587 75.0664 127.366 74.8887 127.312 74.7358C127.057 74.6724 126.893 74.4306 126.819 74.0105L126.575 74.0127L125.964 73.3083L125.561 73.095L124.678 72.9257L124.349 72.9025C124.191 72.9303 124.077 72.8963 124.006 72.8005L123.371 73.8061L123.053 74.9994L122.302 75.5785L122.261 76.0327L121.902 76.2991L121.925 77.3511L121.494 77.6708C121.453 78.057 121.461 78.4076 121.517 78.7228L120.99 79.4248L121.208 79.5082C121.264 79.8234 121.194 80.12 121 80.398C120.962 80.6482 120.904 80.9294 120.823 81.2414L120.879 81.5566L120.789 81.735L120.911 82.2007L120.665 83.3407L120.779 83.5238L120.973 84.6268L120.913 85.2061L121.05 85.7506L121.495 86.2002L122.081 86.2999L122.292 86.344L122.579 86.1308L123.617 86.029L123.705 85.6073L123.863 85.5795C124.02 85.5517 124.119 85.5749 124.159 85.6491L124.493 85.4684L124.829 85.531L125.279 85.0862L125.337 84.9541L125.677 84.8128C125.81 84.4915 126.193 84.1262 126.824 83.717L126.868 83.5061L127.559 82.8157L127.881 82.109L128.456 81.6827L128.461 81.4788L128.581 81.0108L128.491 80.4987L128.894 80.0214L129.003 79.7179L129.158 79.4468C128.998 79.1502 128.906 78.9362 128.883 78.8049C128.841 78.5686 128.876 78.3052 128.987 78.0148L129.117 77.8294ZM157.698 78.9635C157.754 79.2787 157.585 79.7011 157.191 80.2309L156.896 80.4047L156.683 80.8078L156.009 81.1298C155.91 81.3368 155.795 81.4519 155.664 81.475C155.637 81.4797 155.609 81.4712 155.578 81.4495C155.525 81.4588 155.486 81.4657 155.46 81.4704C154.933 81.8611 154.262 82.1283 153.448 82.2718L153.133 82.3274L152.114 82.3041L151.388 82.107L149.669 81.1104L149.166 80.1024L148.446 79.7014C148.506 79.5825 148.515 79.4048 148.474 79.1685C148.446 79.0109 148.295 78.7668 148.02 78.4362L147.971 77.4699L147.943 77.3124C147.888 76.9972 147.724 76.6064 147.452 76.1398L147.48 74.9164L147.149 76.0309L146.572 76.2139L146.639 77.055C146.447 77.1971 146.207 77.2936 145.918 77.3445L145.652 78.3664L145.244 79.0475C145.075 79.3209 144.915 79.4847 144.762 79.5387L144.657 79.6383L143.496 81.3459L143.339 81.3737L142.743 82.3723L142.096 82.8518L141.793 83.4334L140.935 83.8689L139.726 84.6102L138.869 84.3552C138.343 84.4478 137.934 84.2763 137.641 83.8406L137.251 83.7062C137.237 83.6274 137.232 83.52 137.235 83.3841C137.212 83.2528 137.196 83.1609 137.186 83.1084L136.459 82.668L136.575 82.4039L135.908 81.3842L136.037 81.1989L135.945 81.134C135.935 81.0815 135.922 81.0027 135.903 80.8976C135.863 80.8235 135.838 80.7601 135.829 80.7076C135.778 80.4187 135.769 80.136 135.801 79.8595L135.66 78.8284L135.357 78.0289C135.451 77.7957 135.484 77.6003 135.456 77.4427C135.424 77.2589 135.315 77.1021 135.13 76.9723L135.507 76.5807L135.424 76.108L135.037 74.8359L135.026 72.2384C134.952 71.8182 134.725 71.2219 134.345 70.4494C134.276 69.5952 134.746 69.0384 135.756 68.779L136.092 68.8416L136.658 68.8231L137.506 69.4859L137.45 70.5518L137.67 72.2596L138.017 73.5387L137.864 74.0531L138.038 74.3474L137.952 75.0124L138.022 75.4063L137.964 75.5384C138.004 75.6125 138.038 75.7284 138.066 75.886C138.126 76.2274 138.136 76.5912 138.096 76.9773L138.341 77.2184L138.288 77.837L138.45 78.2958L138.547 78.8473C138.706 78.9817 138.807 79.1671 138.848 79.4035C138.885 79.6136 138.87 79.8329 138.802 80.0615L138.83 80.2191C139.04 80.6424 139.156 80.9197 139.179 81.051L139.597 81.343C139.736 81.2102 139.896 81.0465 140.079 80.8519C140.111 80.5754 140.265 80.3722 140.54 80.2425L140.47 79.8486C140.628 79.8208 140.87 79.7374 141.198 79.5985L141.214 79.23L141.835 78.8362L141.933 78.6972C142.084 78.4809 142.356 78.257 142.748 78.0253L142.721 77.8678L143.372 77.1843C143.468 76.6529 143.738 76.2668 144.183 76.0258C144.421 75.686 144.588 75.4806 144.683 75.4096L145.077 74.6496L145.057 74.5314L145.2 74.4248L145.527 74.2048L145.627 73.6185L146.392 73.1181L146.542 73.051C146.542 73.051 146.618 72.9428 146.769 72.7266L146.707 72.3721L146.929 72.2516C146.934 71.8175 147.088 71.4653 147.393 71.1951L147.748 69.7515L147.819 69.0077L147.87 68.8363L148.028 68.8085L148.269 68.5629L148.019 68.5258C148.224 68.0022 148.36 67.4638 148.425 66.9108L149.56 66.67L150.598 67.2587L151.103 67.8195L150.968 69.5898L150.516 70.4818L150.315 72.1015L149.962 72.4073L150.067 72.9982L149.907 73.4732L150.15 74.1614L149.883 74.4927L150.263 75.7255L150.654 77.4842L150.851 77.4495L151.032 78.4737L151.702 79.0461L152.262 79.2316L152.336 79.4216C152.525 79.4154 152.76 79.4417 153.041 79.5005L154.04 79.4056L154.603 79.1438L155.576 78.4442C155.767 78.3021 156.021 78.2033 156.336 78.1477C157.124 78.0088 157.578 78.2807 157.698 78.9635ZM170.15 64.5423C170.192 64.7786 169.995 65.0435 169.559 65.337C169.477 65.4868 169.301 65.6397 169.03 65.7957C168.691 66.0181 168.451 66.1957 168.312 66.3285L167.436 66.1986C167.072 66.5879 166.561 66.8404 165.904 66.9561L165.411 66.9213L165.112 67.299L164.048 67.4865L163.455 68.0379C163.148 67.9838 162.863 67.9799 162.6 68.0262C162.531 68.0926 162.356 68.1775 162.076 68.281C161.945 68.3042 161.794 68.2902 161.622 68.2392L161.768 69.757L162.002 70.853L162.127 72.2526L162.47 73.7356L162.713 74.4238L162.81 74.9753L163.57 76.0598C163.505 76.1525 163.482 76.2514 163.5 76.3564C163.533 76.5403 163.847 76.6338 164.443 76.6369L164.605 77.0957L164.902 77.1653L165.43 77.3971L165.787 77.5779C166.041 77.479 166.22 77.4204 166.325 77.4018C166.561 77.3602 166.804 77.3579 167.055 77.395C167.15 77.324 167.341 77.1008 167.627 76.7254C167.826 76.4737 168.031 76.3293 168.241 76.2922C168.267 76.2876 168.307 76.2806 168.359 76.2714C168.417 76.2884 168.458 76.2946 168.484 76.2899C168.633 75.7493 168.995 75.3469 169.571 75.0828C170.123 74.9856 170.613 75.0753 171.04 75.3518L171.089 75.6276C171.246 76.5205 171.031 77.1407 170.442 77.4882C170.303 78.0813 169.867 78.5238 169.133 78.8157L168.737 79.3324L168.225 79.4227L167.36 79.8188C167.159 79.9083 166.862 79.9878 166.468 80.0573C166.258 80.0944 166.025 80.0812 165.771 80.0178L165.258 80.1081L163.748 79.6028L163.372 79.5471L162.351 78.59L161.788 78.1612L160.574 76.3444L159.932 74.5486L159.928 74.062L159.536 73.6842L159.636 73.098L159.286 72.2661L159.513 71.9417L159.502 71.4157L159.3 70.9639L159.254 70.2409L158.985 69.6384L159.147 69.4067L159.036 68.7764L158.74 68.7069L158.019 68.9964L157.22 68.6094L157.101 68.6302C156.314 68.7691 155.846 68.4184 155.697 67.578L155.677 67.4598L155.072 66.7947L155.695 65.9537L156.708 65.9376L157.206 65.7685L157.989 65.8335L158.817 65.6877L158.678 64.8998L157.971 63.8871L158.435 63.5211L158.133 62.9649L157.957 61.7368L157.552 61.2803C157.317 61.0238 157.179 60.7774 157.137 60.5411C157.086 60.2522 157.11 60.0043 157.209 59.7973L157.23 59.225L157.49 58.8542C158.176 58.5979 158.637 58.4489 158.873 58.4072C159.714 58.2591 160.24 58.5588 160.453 59.3065L160.37 59.5243C160.569 59.7329 160.687 59.9422 160.724 60.1523C160.729 60.1786 160.727 60.2465 160.72 60.3562L160.683 60.6064L160.692 60.8891L160.94 61.3735L160.935 61.5774L161.111 62.115L160.84 62.6502L161.176 63.4033L161.185 64.3765L161.562 64.6755L161.372 65.4401L162.566 65.0672L164.767 64.8821L166.452 64.3008L167.05 64.236L167.24 64.1618L168.776 63.891C169.59 63.7474 170.048 63.9645 170.15 64.5423ZM177.177 59.1195L177.08 59.2586L177.08 59.9491L176.883 59.9838L176.841 60.438L176.959 60.4171C177.068 60.723 177.162 60.9501 177.242 61.0984L177.147 61.4807C177.246 61.7341 177.305 61.9133 177.323 62.0183C177.337 62.0971 177.338 62.2593 177.328 62.5049L177.311 62.8733L177.749 66.0456L178.055 66.3978L177.992 67.4243L178.374 68.2098L178.247 68.6385C178.372 68.8872 178.457 69.1429 178.504 69.4055L178.819 70.0404L178.603 70.2003L178.638 70.3973C178.68 70.6336 178.684 70.8089 178.65 70.9233L178.698 71.199C178.666 71.9358 178.347 72.3575 177.743 72.464C176.955 72.6029 176.471 72.1603 176.291 71.1361L176.159 70.3876L175.927 69.5349L175.552 68.7887L175.672 68.3207L175.406 67.9615L175.422 66.9026L175.001 66.8145L175.077 65.8668L174.936 65.5261L174.811 64.8171L174.697 64.634L174.7 64.1868C174.677 64.0555 174.694 63.8493 174.753 63.5681L174.653 63.4638L174.612 63.2275L174.188 62.8961L174.517 62.2288L174.283 61.8232L174.332 61.4085C174.304 61.2509 174.271 61.0671 174.234 60.857C174.171 60.6515 174.135 60.5225 174.126 60.47C174.107 60.365 174.099 60.2445 174.102 60.1085C174.079 59.9772 174.063 59.8853 174.054 59.8328C173.974 59.6845 173.929 59.5841 173.919 59.5315L173.774 59.3948C173.755 59.2898 173.794 59.2017 173.889 59.1307L173.743 58.9939L173.66 58.5212L173.204 58.2362L173.035 56.3569L174.205 56.3131L174.814 56.0838L176.348 56.2601L176.643 56.7768C176.697 56.9298 176.749 57.1507 176.8 57.4396C176.828 57.5971 176.835 57.7176 176.823 57.801L176.747 58.0582L176.689 58.1903L177.177 59.1195ZM180.903 75.6436L180.882 76.2159C180.872 76.4615 180.873 76.6237 180.887 76.7025L179.995 77.6316L179.29 77.5527L178.748 77.9326L178.141 77.7147L177.314 77.8606L176.577 76.447L176.719 75.4066L177.212 74.751L177.363 74.6838L177.687 74.2204C178.091 74.2035 178.391 74.2182 178.589 74.2646C179.009 74.1905 179.323 74.2029 179.53 74.3018C179.412 74.4037 179.292 74.4925 179.17 74.5682L180.058 74.5336L180.424 74.997L180.903 75.6436Z" fill="black"/>
<g clip-path="url(#clip0_9_124)">
<path class="bd-svg-black" d="M178.598 35.2097C180.098 34.7266 181.675 34.5332 183.137 33.9053C195.871 28.1342 208.76 29.0752 221.473 32.8583C225.85 34.1592 230.193 36.7891 233.653 39.8906C243.643 48.6018 251.192 59.215 255.826 71.7026C257.169 75.2987 257.827 79.2353 257.906 83.3283C257.111 82.3787 256.224 81.3763 255.483 80.3347C253.296 77.355 251.162 74.2832 248.777 71.4345C247.76 70.2344 246.203 69.3355 244.685 68.5815C244.135 68.2642 242.833 68.6162 242.423 69.1153C242.013 69.6143 241.978 70.9434 242.383 71.2998C248.786 78.1857 252.908 86.6977 257.676 94.7243C259.352 97.5317 261.121 98.0627 263.654 96.2136C269.868 91.5839 274.83 85.7404 278.523 78.9197C278.63 78.7357 278.423 78.2483 278.192 77.3791C271.62 76.2832 269.87 83.122 264.505 86.2799C264.501 84.8059 264.575 83.6217 264.45 82.5686C261.142 61.6487 250.203 45.2759 234.03 32.2587C231.639 30.2654 228.603 28.7574 225.59 27.6311C214.507 23.5626 203.089 22.6122 191.581 25.4122C187.873 26.3371 184.38 28.368 180.994 30.2149C179.624 30.8958 178.721 32.4595 177.703 33.5887C178.001 34.129 178.3 34.6693 178.598 35.2097Z" fill="black"/>
</g>
<defs>
<clipPath id="clip0_9_124">
<rect width="110" height="43.5" fill="white" transform="matrix(0.866025 0.5 0.5 -0.866025 170.764 45.6065)"/>
</clipPath>
</defs>
</svg>
