<svg width="127" height="31" viewBox="0 0 127 31" fill="none" xmlns="http://www.w3.org/2000/svg"><path fill-rule="evenodd" clip-rule="evenodd" d="M14.449 2.697C10.946.13 5.972.43 2.815 3.6c-3.49 3.503-3.49 9.237 0 12.742l.86.863a7.547 7.547 0 012.177-5.877l8.597-8.632zM33.33 13.522c0 .61-.156 1.22-.468 1.761a8.87 8.87 0 01-.901 1.057l-1.886 1.894-12.69 12.74-6.753-6.78a7.487 7.487 0 005.853-2.186l5.183-5.205.546-.548 5.183-5.204a3.461 3.461 0 012.46-1.017 3.461 3.461 0 013.473 3.487z" fill="url(#paint0_linear_781_8069)"/><path d="M17.382 5.489L8.71 14.197a3.49 3.49 0 00-1.012 2.47 3.461 3.461 0 003.473 3.487c.893 0 1.786-.338 2.46-1.016l5.183-5.204.546-.548 5.183-5.204a7.486 7.486 0 015.318-2.205c1.521 0 3.042.458 4.337 1.375a8.939 8.939 0 00-2.234-3.75c-3.489-3.504-9.198-3.504-12.687 0L17.39 5.494l-.009-.006z" fill="url(#paint1_linear_781_8069)"/><path d="M55.79 10.842h-6.72v3.984h6.528v3.168H49.07v6.48h-3.312v-16.8H55.79v3.168zm11.39 1.632h3.095v12H67.18v-1.416c-.928 1.168-2.232 1.752-3.912 1.752-1.6 0-2.976-.608-4.128-1.824-1.136-1.232-1.704-2.736-1.704-4.512 0-1.776.568-3.272 1.704-4.488 1.152-1.232 2.528-1.848 4.128-1.848 1.68 0 2.984.584 3.912 1.752v-1.416zm-5.713 8.448c.624.624 1.416.936 2.376.936s1.752-.312 2.376-.936c.64-.64.96-1.456.96-2.448s-.32-1.8-.96-2.424c-.624-.64-1.416-.96-2.376-.96s-1.752.32-2.376.96c-.624.624-.936 1.432-.936 2.424s.312 1.808.936 2.448zm18.287-8.784c1.313 0 2.392.44 3.24 1.32.865.88 1.296 2.096 1.296 3.648v7.368h-3.096V17.49c0-.8-.216-1.408-.648-1.824-.431-.432-1.008-.648-1.728-.648-.8 0-1.44.248-1.92.744s-.72 1.24-.72 2.232v6.48h-3.096v-12h3.097v1.344c.751-1.12 1.944-1.68 3.575-1.68zm10.036 3.744c0 .32.208.584.624.792.432.192.952.368 1.56.528.608.144 1.216.336 1.824.576a3.38 3.38 0 011.536 1.152c.432.544.648 1.224.648 2.04 0 1.232-.464 2.184-1.392 2.856-.912.656-2.056.984-3.432.984-2.464 0-4.144-.952-5.04-2.856l2.688-1.512c.352 1.04 1.136 1.56 2.352 1.56 1.104 0 1.656-.344 1.656-1.032 0-.32-.216-.576-.648-.768a8.04 8.04 0 00-1.536-.552c-.608-.16-1.216-.36-1.824-.6a3.879 3.879 0 01-1.56-1.128c-.416-.528-.624-1.184-.624-1.968 0-1.184.432-2.112 1.296-2.784.88-.688 1.968-1.032 3.264-1.032.976 0 1.864.224 2.664.672a4.741 4.741 0 011.896 1.872l-2.64 1.44c-.384-.816-1.024-1.224-1.92-1.224-.4 0-.736.088-1.008.264a.83.83 0 00-.384.72zm8.183 8.592V6.954h3.096v17.52h-3.096zm8.546-4.728c.416 1.504 1.544 2.256 3.384 2.256 1.184 0 2.08-.4 2.688-1.2l2.496 1.44c-1.184 1.712-2.928 2.568-5.232 2.568-1.984 0-3.576-.6-4.776-1.8-1.2-1.2-1.8-2.712-1.8-4.536 0-1.808.592-3.312 1.776-4.512 1.184-1.216 2.704-1.824 4.56-1.824 1.76 0 3.208.608 4.344 1.824 1.152 1.216 1.728 2.72 1.728 4.512 0 .4-.04.824-.12 1.272h-9.048zm-.048-2.4h6.12c-.176-.816-.544-1.424-1.104-1.824-.544-.4-1.168-.6-1.872-.6-.832 0-1.52.216-2.064.648-.544.416-.904 1.008-1.08 1.776zm17.89-1.896h-2.712v4.992c0 .416.104.72.312.912.208.192.512.304.912.336.4.016.896.008 1.488-.024v2.808c-2.128.24-3.632.04-4.512-.6-.864-.64-1.296-1.784-1.296-3.432V15.45h-2.088v-2.976h2.088V10.05l3.096-.936v3.36h2.712v2.976z" fill="url(#paint2_linear_781_8069)"/><defs><linearGradient id="paint0_linear_781_8069" x1=".198" y1="15.974" x2="34.191" y2="15.481" gradientUnits="userSpaceOnUse"><stop stop-color="#6969CF"/><stop offset="1" stop-color="#63A4D8"/></linearGradient><linearGradient id="paint1_linear_781_8069" x1=".198" y1="15.974" x2="34.191" y2="15.481" gradientUnits="userSpaceOnUse"><stop stop-color="#7567DC"/><stop offset="1" stop-color="#D45BBB"/></linearGradient><linearGradient id="paint2_linear_781_8069" x1="44.198" y1="15.974" x2="126.091" y2="13.01" gradientUnits="userSpaceOnUse"><stop stop-color="#6969CF"/><stop offset="1" stop-color="#9363D2"/></linearGradient></defs></svg>