<svg width="124" height="32" viewBox="0 0 124 32" fill="none" xmlns="http://www.w3.org/2000/svg">
<path fill-rule="evenodd" clip-rule="evenodd" d="M0.734863 30.0188V2.02423C0.734863 1.47869 0.978917 1.04801 1.46703 0.732167C1.95514 0.416329 2.52939 0.258412 3.18978 0.258412H11.502C17.2733 0.258412 20.1588 2.78508 20.1588 7.83849C20.1588 11.3414 18.9386 13.624 16.498 14.6864C17.9623 15.2607 19.0678 16.0718 19.8143 17.1198C20.5608 18.1678 20.9341 19.6967 20.9341 21.7066V22.611C20.9341 25.7981 20.1588 28.1166 18.6084 29.5666C17.0579 31.0166 14.9619 31.7416 12.3203 31.7416H3.18978C2.47196 31.7416 1.88336 31.5693 1.42396 31.2248C0.96456 30.8802 0.734863 30.4782 0.734863 30.0188V30.0188ZM6.29072 26.8318H11.1575C13.9426 26.8318 15.3351 25.267 15.3351 22.1373V21.4482C15.3351 19.8403 14.9834 18.6774 14.28 17.9596C13.5765 17.2418 12.5357 16.8829 11.1575 16.8829H6.29072V26.8318ZM6.29072 12.4899H11.1144C12.2342 12.4899 13.0884 12.1597 13.677 11.4993C14.2656 10.8389 14.5599 9.93451 14.5599 8.786C14.5599 7.66621 14.2512 6.78332 13.6339 6.13728C13.0166 5.49125 12.1624 5.16824 11.0713 5.16824H6.29072V12.4899ZM24.8102 22.1373V1.98116C24.8102 1.40691 25.083 0.976224 25.6285 0.689098C26.1741 0.401973 26.8345 0.258412 27.6097 0.258412C28.3849 0.258412 29.0453 0.401973 29.5909 0.689098C30.1364 0.976224 30.4092 1.40691 30.4092 1.98116V22.1373C30.4092 25.4392 31.9883 27.0902 35.1467 27.0902C38.3051 27.0902 39.8843 25.4392 39.8843 22.1373V1.98116C39.8843 1.40691 40.157 0.976224 40.7026 0.689098C41.2481 0.401973 41.9085 0.258412 42.6837 0.258412C43.459 0.258412 44.1193 0.401973 44.6649 0.689098C45.2104 0.976224 45.4832 1.40691 45.4832 1.98116V22.1373C45.4832 25.5254 44.5429 28.0161 42.6622 29.6097C40.7815 31.2032 38.2764 32 35.1467 32C32.017 32 29.5119 31.2104 27.6312 29.6312C25.7506 28.052 24.8102 25.5541 24.8102 22.1373V22.1373ZM50.5222 29.9758V1.98116C50.5222 1.40691 50.795 0.976224 51.3405 0.689098C51.8861 0.401973 52.5464 0.258412 53.3217 0.258412C54.0969 0.258412 54.7573 0.401973 55.3028 0.689098C55.8484 0.976224 56.1211 1.40691 56.1211 1.98116V26.8318H66.6299C67.1467 26.8318 67.5559 27.0758 67.8573 27.5639C68.1588 28.052 68.3096 28.6263 68.3096 29.2867C68.3096 29.9471 68.1588 30.5213 67.8573 31.0094C67.5559 31.4975 67.1467 31.7416 66.6299 31.7416H52.9771C52.3167 31.7416 51.7425 31.5837 51.2544 31.2678C50.7663 30.952 50.5222 30.5213 50.5222 29.9758V29.9758ZM71.3674 29.9758V3.05787C71.3674 2.11036 71.633 1.40691 72.1642 0.94751C72.6954 0.488109 73.3629 0.258412 74.1669 0.258412C75.2293 0.258412 76.0476 0.445041 76.6218 0.818304C77.1961 1.19157 77.8277 1.99551 78.5168 3.23015L83.8143 12.8775L89.1117 3.23015C89.8008 1.99551 90.4397 1.19157 91.0283 0.818304C91.6169 0.445041 92.4424 0.258412 93.5047 0.258412C94.3087 0.258412 94.9762 0.488109 95.5074 0.94751C96.0386 1.40691 96.3042 2.11036 96.3042 3.05787V29.9758C96.3042 30.5213 96.0242 30.952 95.4643 31.2678C94.9044 31.5837 94.2512 31.7416 93.5047 31.7416C92.7295 31.7416 92.0691 31.5837 91.5236 31.2678C90.978 30.952 90.7053 30.5213 90.7053 29.9758V11.4563L85.6662 20.4145C85.2642 21.1611 84.6326 21.5343 83.7712 21.5343C82.9385 21.5343 82.3212 21.1611 81.9192 20.4145L76.9664 11.1117V29.9758C76.9664 30.5213 76.6864 30.952 76.1265 31.2678C75.5666 31.5837 74.9134 31.7416 74.1669 31.7416C73.3917 31.7416 72.7313 31.5837 72.1857 31.2678C71.6402 30.952 71.3674 30.5213 71.3674 29.9758V29.9758ZM99.2759 29.4159C99.2759 29.3585 99.3046 29.2149 99.3621 28.9852L107.674 1.89502C107.847 1.29206 108.27 0.825484 108.945 0.495289C109.62 0.165095 110.388 0 111.249 0C112.11 0 112.886 0.165095 113.575 0.495289C114.264 0.825484 114.694 1.29206 114.867 1.89502L123.179 28.9852C123.236 29.2149 123.265 29.3585 123.265 29.4159C123.265 30.0476 122.878 30.5931 122.102 31.0525C121.327 31.5119 120.537 31.7416 119.734 31.7416C118.671 31.7416 118.039 31.3683 117.839 30.6218L116.202 24.8937H106.339L104.703 30.6218C104.502 31.3683 103.87 31.7416 102.808 31.7416C101.975 31.7416 101.178 31.5191 100.417 31.074C99.6564 30.629 99.2759 30.0763 99.2759 29.4159V29.4159ZM107.502 20.5007H114.996L111.249 7.2786L107.502 20.5007Z" fill="black"/>
</svg>
