<svg width="160" height="40" viewBox="0 0 160 40" fill="none" xmlns="http://www.w3.org/2000/svg">
<path fill-rule="evenodd" clip-rule="evenodd" d="M0.000183105 27.5L2.50018 10L12.5002 0L25.0002 12.5L17.5002 20L27.5002 30L12.5002 40L0.000183105 27.5Z" fill="#00D1B2"/>
<path fill-rule="evenodd" clip-rule="evenodd" d="M42.1277 33.1427V6.89771C42.1277 6.38627 42.3565 5.9825 42.8141 5.68641C43.2717 5.39031 43.8101 5.24226 44.4292 5.24226H52.2219C57.6324 5.24226 60.3376 7.61101 60.3376 12.3486C60.3376 15.6326 59.1936 17.7725 56.9056 18.7685C58.2784 19.3069 59.3148 20.0673 60.0146 21.0498C60.7145 22.0323 61.0644 23.4657 61.0644 25.3499V26.1978C61.0644 29.1857 60.3377 31.3593 58.8841 32.7187C57.4305 34.0781 55.4655 34.7577 52.9891 34.7577H44.4292C43.7562 34.7577 43.2044 34.5962 42.7737 34.2732C42.343 33.9502 42.1277 33.5734 42.1277 33.1427V33.1427ZM47.3363 30.1548H51.8989C54.5099 30.1548 55.8154 28.6878 55.8154 25.7537V25.1077C55.8154 23.6003 55.4857 22.5101 54.8262 21.8371C54.1667 21.1642 53.1909 20.8277 51.8989 20.8277H47.3363V30.1548ZM47.3363 16.7093H51.8585C52.9083 16.7093 53.7091 16.3997 54.2609 15.7806C54.8127 15.1615 55.0887 14.3136 55.0887 13.2369C55.0887 12.1871 54.7993 11.3594 54.2206 10.7537C53.6418 10.148 52.841 9.84522 51.8181 9.84522H47.3363V16.7093ZM64.6983 25.7537V6.85734C64.6983 6.31897 64.9541 5.91521 65.4655 5.64603C65.9769 5.37685 66.5961 5.24226 67.3228 5.24226C68.0496 5.24226 68.6687 5.37685 69.1802 5.64603C69.6916 5.91521 69.9473 6.31897 69.9473 6.85734V25.7537C69.9473 28.8493 71.4278 30.397 74.3888 30.397C77.3498 30.397 78.8302 28.8493 78.8302 25.7537V6.85734C78.8302 6.31897 79.086 5.91521 79.5974 5.64603C80.1088 5.37685 80.7279 5.24226 81.4547 5.24226C82.1815 5.24226 82.8006 5.37685 83.3121 5.64603C83.8235 5.91521 84.0792 6.31897 84.0792 6.85734V25.7537C84.0792 28.93 83.1977 31.2651 81.4345 32.7591C79.6714 34.253 77.3229 35 74.3888 35C71.4547 35 69.1062 34.2598 67.343 32.7793C65.5799 31.2988 64.6983 28.9569 64.6983 25.7537V25.7537ZM88.8033 33.1023V6.85734C88.8033 6.31897 89.059 5.91521 89.5705 5.64603C90.0819 5.37685 90.701 5.24226 91.4278 5.24226C92.1546 5.24226 92.7737 5.37685 93.2851 5.64603C93.7966 5.91521 94.0523 6.31897 94.0523 6.85734V30.1548H103.904C104.389 30.1548 104.772 30.3836 105.055 30.8412C105.338 31.2988 105.479 31.8371 105.479 32.4563C105.479 33.0754 105.338 33.6137 105.055 34.0713C104.772 34.5289 104.389 34.7577 103.904 34.7577H91.1048C90.4857 34.7577 89.9473 34.6097 89.4897 34.3136C89.0321 34.0175 88.8033 33.6137 88.8033 33.1023V33.1023ZM108.346 33.1023V7.86676C108.346 6.97846 108.595 6.31898 109.093 5.88829C109.591 5.4576 110.217 5.24226 110.97 5.24226C111.966 5.24226 112.733 5.41723 113.272 5.76716C113.81 6.11709 114.402 6.87079 115.048 8.02826L120.015 17.0727L124.981 8.02826C125.627 6.87079 126.226 6.11709 126.778 5.76716C127.33 5.41723 128.103 5.24226 129.099 5.24226C129.853 5.24226 130.479 5.4576 130.977 5.88829C131.475 6.31898 131.724 6.97846 131.724 7.86676V33.1023C131.724 33.6137 131.461 34.0175 130.937 34.3136C130.412 34.6097 129.799 34.7577 129.099 34.7577C128.373 34.7577 127.754 34.6097 127.242 34.3136C126.731 34.0175 126.475 33.6137 126.475 33.1023V15.7402L121.751 24.1386C121.374 24.8385 120.782 25.1884 119.974 25.1884C119.194 25.1884 118.615 24.8385 118.238 24.1386L113.595 15.4172V33.1023C113.595 33.6137 113.332 34.0175 112.807 34.3136C112.282 34.6097 111.67 34.7577 110.97 34.7577C110.243 34.7577 109.624 34.6097 109.113 34.3136C108.601 34.0175 108.346 33.6137 108.346 33.1023V33.1023ZM134.51 32.5774C134.51 32.5236 134.537 32.389 134.591 32.1736L142.383 6.77658C142.545 6.2113 142.942 5.77389 143.575 5.46433C144.207 5.15478 144.927 5 145.735 5C146.542 5 147.269 5.15478 147.915 5.46433C148.561 5.77389 148.965 6.2113 149.126 6.77658L156.919 32.1736C156.973 32.389 157 32.5236 157 32.5774C157 33.1696 156.636 33.681 155.91 34.1117C155.183 34.5424 154.443 34.7577 153.689 34.7577C152.693 34.7577 152.101 34.4078 151.912 33.7079L150.378 28.3378H141.132L139.597 33.7079C139.409 34.4078 138.817 34.7577 137.821 34.7577C137.04 34.7577 136.293 34.5491 135.58 34.1319C134.867 33.7147 134.51 33.1965 134.51 32.5774V32.5774ZM142.222 24.2194H149.247L145.735 11.8237L142.222 24.2194Z" fill="black"/>
</svg>
